<svg width="14" height="14" viewBox="0 0 14 14" fill="none" xmlns="http://www.w3.org/2000/svg">
<path d="M7 13L7.35355 13.3536L7 13.7071L6.64645 13.3536L7 13ZM13.3536 7.35355L7.35355 13.3536L6.64645 12.6464L12.6464 6.64645L13.3536 7.35355ZM6.64645 13.3536L0.646446 7.35355L1.35355 6.64645L7.35355 12.6464L6.64645 13.3536Z" fill="#9D4DD0"/>
<path d="M7 7L7.35355 7.35355L7 7.70711L6.64645 7.35355L7 7ZM13.3536 1.35355L7.35355 7.35355L6.64645 6.64645L12.6464 0.646447L13.3536 1.35355ZM6.64645 7.35355L0.646446 1.35355L1.35355 0.646447L7.35355 6.64645L6.64645 7.35355Z" fill="#9D4DD0"/>
</svg>
