<svg width="66" height="59" viewBox="0 0 66 59" fill="none" xmlns="http://www.w3.org/2000/svg">
<g filter="url(#filter0_f)">
<path d="M14.6842 42.8945C12.9951 42.4213 12.5791 42.2228 11.9736 41.8404C10.4168 40.8188 9.72712 40.0031 9.11255 39.2052C8.20969 38.1549 7.75729 37.0217 7.38083 35.8923C7.00437 34.4618 7.00796 33.9046 7.00437 33.2571C6.97003 31.8238 7.145 30.8872 7.38083 30.0949C7.80288 28.7672 8.37121 27.4592 9.71489 26.255C11.2309 24.9387 12.6791 24.0672 14.0818 23.6197C15.4371 23.168 15.877 23.1044 16.5665 22.9421C16.7694 22.1277 16.8676 21.7374 17.2441 20.5328C17.7034 19.2372 18.0723 18.4246 19.0511 17.0693C19.8793 15.94 20.3989 15.3827 21.0087 14.8106C22.1995 13.5745 23.5674 12.7611 24.9992 12.1001C26.8019 11.2552 28.4626 10.8201 30.0437 10.6695C30.7967 10.5942 32.3025 10.5942 33.5825 10.8954" stroke="#F0FF4C" stroke-opacity="0.8" stroke-width="6" stroke-linecap="round" stroke-linejoin="round"/>
</g>
<g filter="url(#filter1_f)">
<path d="M55.4924 22.1892C56.0869 22.8336 56.6803 23.4853 57.2242 24.448C58.6528 26.7417 58.7293 27.9038 58.9559 29.1914C59.2261 31.0571 59.2077 32.7706 58.8806 34.3865C58.618 35.4881 58.2613 36.6395 57.2242 38.1511C56.923 38.6782 55.5328 40.0929 54.4384 40.8616C53.6101 41.464 52.029 42.1416 50.8243 42.5181" stroke="#F0FF4C" stroke-opacity="0.8" stroke-width="6" stroke-linecap="round" stroke-linejoin="round"/>
</g>
<g filter="url(#filter2_f)">
<path d="M27.7818 51.098L29.1905 50.5827C28.9742 49.9913 28.4115 49.598 27.7818 49.598V51.098ZM23.6119 51.098V49.598C22.9796 49.598 22.4152 49.9945 22.2008 50.5893L23.6119 51.098ZM22.6754 53.6956V55.1956C23.3076 55.1956 23.872 54.7992 24.0864 54.2044L22.6754 53.6956ZM21.3218 53.6956L19.9205 53.1605C19.7445 53.6216 19.8065 54.1398 20.0864 54.5463C20.3663 54.9528 20.8283 55.1956 21.3218 55.1956V53.6956ZM25.1226 43.7425V42.2425C24.5006 42.2425 23.9432 42.6264 23.7213 43.2074L25.1226 43.7425ZM26.2711 43.7425L27.672 43.2066C27.4499 42.626 26.8927 42.2425 26.2711 42.2425V43.7425ZM30.0787 53.6956V55.1956C30.5724 55.1956 31.0345 54.9527 31.3144 54.546C31.5943 54.1392 31.6561 53.6208 31.4797 53.1597L30.0787 53.6956ZM28.732 53.6956L27.3233 54.2109C27.5396 54.8023 28.1023 55.1956 28.732 55.1956V53.6956ZM24.0084 50.0179L22.5982 49.5065C22.4315 49.9663 22.4994 50.4785 22.7801 50.879C23.0609 51.2795 23.5193 51.5179 24.0084 51.5179V50.0179ZM27.3922 50.0179V51.5179C27.8816 51.5179 28.3403 51.2791 28.621 50.8782C28.9017 50.4772 28.9691 49.9645 28.8016 49.5046L27.3922 50.0179ZM25.6968 45.3626L27.1063 44.8494C26.8904 44.2566 26.3267 43.8622 25.6959 43.8626C25.065 43.863 24.5018 44.2581 24.2867 44.8512L25.6968 45.3626ZM27.7818 49.598H23.6119V52.598H27.7818V49.598ZM22.2008 50.5893L21.2643 53.1869L24.0864 54.2044L25.023 51.6067L22.2008 50.5893ZM22.6754 52.1956H21.3218V55.1956H22.6754V52.1956ZM22.7231 54.2308L26.5239 44.2776L23.7213 43.2074L19.9205 53.1605L22.7231 54.2308ZM25.1226 45.2425H26.2711V42.2425H25.1226V45.2425ZM24.8701 44.2785L28.6777 54.2316L31.4797 53.1597L27.672 43.2066L24.8701 44.2785ZM30.0787 52.1956H28.732V55.1956H30.0787V52.1956ZM30.1407 53.1804L29.1905 50.5827L26.3731 51.6133L27.3233 54.2109L30.1407 53.1804ZM24.0084 51.5179H27.3922V48.5179H24.0084V51.5179ZM28.8016 49.5046L27.1063 44.8494L24.2874 45.8759L25.9827 50.5312L28.8016 49.5046ZM24.2867 44.8512L22.5982 49.5065L25.4185 50.5294L27.107 45.8741L24.2867 44.8512ZM32.731 49.7992V48.2992C31.9026 48.2992 31.231 48.9707 31.231 49.7992H32.731ZM32.731 53.6956V55.1956C33.5594 55.1956 34.231 54.5241 34.231 53.6956H32.731ZM31.4185 53.6956H29.9185C29.9185 54.5241 30.5901 55.1956 31.4185 55.1956V53.6956ZM31.4185 43.7425V42.2425C30.5901 42.2425 29.9185 42.9141 29.9185 43.7425H31.4185ZM37.6461 44.5765L36.6403 45.6894L36.6444 45.6931L37.6461 44.5765ZM37.6666 49.0199L38.647 50.1551L38.6477 50.1545L37.6666 49.0199ZM32.731 48.7259H31.231C31.231 49.5543 31.9026 50.2259 32.731 50.2259V48.7259ZM36.7027 48.2337L37.6924 49.3609L37.7001 49.3541L36.7027 48.2337ZM35.1646 44.8226L35.1961 43.3229C35.1856 43.3227 35.1751 43.3226 35.1646 43.3226V44.8226ZM32.731 44.8226V43.3226C31.9026 43.3226 31.231 43.9942 31.231 44.8226H32.731ZM31.231 49.7992V53.6956H34.231V49.7992H31.231ZM32.731 52.1956H31.4185V55.1956H32.731V52.1956ZM32.9185 53.6956V43.7425H29.9185V53.6956H32.9185ZM31.4185 45.2425H35.0894V42.2425H31.4185V45.2425ZM35.0894 45.2425C35.9262 45.2425 36.378 45.4523 36.6403 45.6894L38.6518 43.4636C37.6836 42.5887 36.431 42.2425 35.0894 42.2425V45.2425ZM36.6444 45.6931C36.9132 45.9342 37.0757 46.2469 37.0757 46.7845H40.0757C40.0757 45.4901 39.6185 44.3308 38.6477 43.4599L36.6444 45.6931ZM37.0757 46.7845C37.0757 47.4131 36.8945 47.7045 36.6855 47.8852L38.6477 50.1545C39.6509 49.2871 40.0757 48.0882 40.0757 46.7845H37.0757ZM36.6861 47.8846C36.4514 48.0873 35.9896 48.2992 35.0757 48.2992V51.2992C36.4132 51.2992 37.6786 50.9915 38.647 50.1551L36.6861 47.8846ZM35.0757 48.2992H32.731V51.2992H35.0757V48.2992ZM32.731 50.2259H35.0894V47.2259H32.731V50.2259ZM35.0894 50.2259C36.0068 50.2259 36.9508 50.012 37.6924 49.3609L35.713 47.1066C35.7072 47.1117 35.5757 47.2259 35.0894 47.2259V50.2259ZM37.7001 49.3541C38.4699 48.6687 38.7632 47.7363 38.7632 46.7982H35.7632C35.7632 46.9628 35.7385 47.0474 35.7259 47.0797C35.7161 47.1047 35.7106 47.1087 35.7053 47.1134L37.7001 49.3541ZM38.7632 46.7982C38.7632 45.8617 38.4531 44.9711 37.7365 44.2895L35.6689 46.4631C35.6997 46.4925 35.7632 46.5498 35.7632 46.7982H38.7632ZM37.7365 44.2895C37.0258 43.6134 36.1193 43.3423 35.1961 43.3229L35.1332 46.3223C35.5133 46.3302 35.6322 46.4283 35.6689 46.4631L37.7365 44.2895ZM35.1646 43.3226H32.731V46.3226H35.1646V43.3226ZM31.231 44.8226V48.7259H34.231V44.8226H31.231ZM41.6588 53.6956V55.1956C42.4872 55.1956 43.1588 54.5241 43.1588 53.6956H41.6588ZM40.3463 53.6956H38.8463C38.8463 54.5241 39.5178 55.1956 40.3463 55.1956V53.6956ZM40.3463 43.7425V42.2425C39.5178 42.2425 38.8463 42.9141 38.8463 43.7425H40.3463ZM41.6588 43.7425H43.1588C43.1588 42.9141 42.4872 42.2425 41.6588 42.2425V43.7425ZM41.6588 52.1956H40.3463V55.1956H41.6588V52.1956ZM41.8463 53.6956V43.7425H38.8463V53.6956H41.8463ZM40.3463 45.2425H41.6588V42.2425H40.3463V45.2425ZM40.1588 43.7425V53.6956H43.1588V43.7425H40.1588Z" fill="#F0FF4C" fill-opacity="0.8"/>
</g>
<g filter="url(#filter3_f)">
<path d="M23.0637 36.5618L24.3855 35.8527C24.1242 35.3657 23.6163 35.0618 23.0637 35.0618V36.5618ZM21.0598 36.5618V35.0618C20.2314 35.0618 19.5598 35.7334 19.5598 36.5618H21.0598ZM21.0598 40.013V41.513C21.8882 41.513 22.5598 40.8414 22.5598 40.013H21.0598ZM19.9289 40.013H18.4289C18.4289 40.8414 19.1005 41.513 19.9289 41.513V40.013ZM19.9289 31.4817V29.9817C19.1005 29.9817 18.4289 30.6533 18.4289 31.4817H19.9289ZM24.968 32.138L23.9975 33.2817L24.0018 33.2853L24.968 32.138ZM25.3137 35.4368L24.1037 34.5503L24.098 34.5581L25.3137 35.4368ZM24.1184 36.3216L23.5835 34.9202C23.1775 35.0751 22.8587 35.3985 22.7095 35.8067C22.5603 36.2149 22.5955 36.6676 22.8059 37.0479L24.1184 36.3216ZM26.1223 39.9427H27.6223C27.6223 39.6886 27.5577 39.4387 27.4347 39.2164L26.1223 39.9427ZM26.1223 40.013V41.513C26.9507 41.513 27.6223 40.8414 27.6223 40.013H26.1223ZM24.9153 40.013L23.5935 40.7221C23.8547 41.2091 24.3626 41.513 24.9153 41.513V40.013ZM21.0598 35.6419H19.5598C19.5598 36.4703 20.2314 37.1419 21.0598 37.1419V35.6419ZM24.1184 35.2083L23.1334 34.0769L23.1268 34.0827L24.1184 35.2083ZM24.1418 32.8352L23.1383 33.9502L23.1453 33.9563L24.1418 32.8352ZM22.7824 32.4075L22.7923 30.9075H22.7824V32.4075ZM21.0598 32.4075V30.9075C20.2314 30.9075 19.5598 31.5791 19.5598 32.4075H21.0598ZM23.0637 35.0618H21.0598V38.0618H23.0637V35.0618ZM19.5598 36.5618V40.013H22.5598V36.5618H19.5598ZM21.0598 38.513H19.9289V41.513H21.0598V38.513ZM21.4289 40.013V31.4817H18.4289V40.013H21.4289ZM19.9289 32.9817H22.7531V29.9817H19.9289V32.9817ZM22.7531 32.9817C23.5061 32.9817 23.8475 33.1544 23.9975 33.2817L25.9385 30.9942C25.0573 30.2465 23.922 29.9817 22.7531 29.9817V32.9817ZM24.0018 33.2853C24.106 33.3731 24.2473 33.5431 24.2473 34.0481H27.2473C27.2473 32.8812 26.8691 31.7779 25.9342 30.9906L24.0018 33.2853ZM24.2473 34.0481C24.2473 34.2896 24.1879 34.4354 24.1037 34.5503L26.5237 36.3233C27.0176 35.6491 27.2473 34.8692 27.2473 34.0481H24.2473ZM24.098 34.5581C24.0049 34.6869 23.8575 34.8156 23.5835 34.9202L24.6533 37.723C25.4027 37.4369 26.0522 36.9757 26.5294 36.3155L24.098 34.5581ZM22.8059 37.0479L24.8098 40.669L27.4347 39.2164L25.4308 35.5953L22.8059 37.0479ZM24.6223 39.9427V40.013H27.6223V39.9427H24.6223ZM26.1223 38.513H24.9153V41.513H26.1223V38.513ZM26.237 39.3038L24.3855 35.8527L21.7419 37.2709L23.5935 40.7221L26.237 39.3038ZM21.0598 37.1419H22.7883V34.1419H21.0598V37.1419ZM22.7883 37.1419C23.6077 37.1419 24.4386 36.9252 25.1099 36.3338L23.1268 34.0827C23.126 34.0835 23.1154 34.0941 23.0749 34.1073C23.0296 34.1221 22.94 34.1419 22.7883 34.1419V37.1419ZM25.1033 36.3396C25.7977 35.7351 26.1164 34.9175 26.1164 34.0481H23.1164C23.1164 34.0836 23.1134 34.104 23.1118 34.1123C23.1103 34.1201 23.11 34.1181 23.1136 34.1097C23.1173 34.1011 23.1227 34.0916 23.1288 34.0833C23.1347 34.0752 23.1377 34.0733 23.1335 34.0769L25.1033 36.3396ZM26.1164 34.0481C26.1164 33.2058 25.851 32.3476 25.1384 31.7141L23.1453 33.9563C23.1365 33.9485 23.1259 33.9371 23.1162 33.9231C23.1065 33.9092 23.102 33.8988 23.1009 33.896C23.0989 33.891 23.1164 33.9325 23.1164 34.0481H26.1164ZM25.1453 31.7203C24.4656 31.1086 23.6027 30.9129 22.7923 30.9075L22.7726 33.9075C23.1497 33.9099 23.193 33.9994 23.1384 33.9502L25.1453 31.7203ZM22.7824 30.9075H21.0598V33.9075H22.7824V30.9075ZM19.5598 32.4075V35.6419H22.5598V32.4075H19.5598ZM32.1516 36.0696V37.5696C32.98 37.5696 33.6516 36.898 33.6516 36.0696H32.1516ZM28.4543 36.0696V34.5696C27.6259 34.5696 26.9543 35.2412 26.9543 36.0696H28.4543ZM28.4543 39.093H26.9543C26.9543 39.9215 27.6259 40.593 28.4543 40.593V39.093ZM32.7492 39.093H34.2492C34.2492 38.2646 33.5777 37.593 32.7492 37.593V39.093ZM32.7492 40.013V41.513C33.5777 41.513 34.2492 40.8414 34.2492 40.013H32.7492ZM27.3293 40.013H25.8293C25.8293 40.8414 26.5009 41.513 27.3293 41.513V40.013ZM27.3293 31.4817V29.9817C26.5009 29.9817 25.8293 30.6533 25.8293 31.4817H27.3293ZM32.6906 31.4817H34.1906C34.1906 30.6533 33.5191 29.9817 32.6906 29.9817V31.4817ZM32.6906 32.4075V33.9075C33.5191 33.9075 34.1906 33.2359 34.1906 32.4075H32.6906ZM28.4543 32.4075V30.9075C27.6259 30.9075 26.9543 31.5791 26.9543 32.4075H28.4543ZM28.4543 35.1497H26.9543C26.9543 35.9781 27.6259 36.6497 28.4543 36.6497V35.1497ZM32.1516 35.1497H33.6516C33.6516 34.3213 32.98 33.6497 32.1516 33.6497V35.1497ZM32.1516 34.5696H28.4543V37.5696H32.1516V34.5696ZM26.9543 36.0696V39.093H29.9543V36.0696H26.9543ZM28.4543 40.593H32.7492V37.593H28.4543V40.593ZM31.2492 39.093V40.013H34.2492V39.093H31.2492ZM32.7492 38.513H27.3293V41.513H32.7492V38.513ZM28.8293 40.013V31.4817H25.8293V40.013H28.8293ZM27.3293 32.9817H32.6906V29.9817H27.3293V32.9817ZM31.1906 31.4817V32.4075H34.1906V31.4817H31.1906ZM32.6906 30.9075H28.4543V33.9075H32.6906V30.9075ZM26.9543 32.4075V35.1497H29.9543V32.4075H26.9543ZM28.4543 36.6497H32.1516V33.6497H28.4543V36.6497ZM30.6516 35.1497V36.0696H33.6516V35.1497H30.6516ZM36.6633 36.2102L37.0802 34.7693L37.0777 34.7686L36.6633 36.2102ZM34.5539 35.1907L33.5332 36.2899L33.5435 36.2993L34.5539 35.1907ZM34.7004 32.0266L35.6498 33.188L35.6507 33.1872L34.7004 32.0266ZM38.3625 31.7044L37.6963 33.0483L37.7008 33.0505L38.3625 31.7044ZM39.4289 32.6419L38.1583 33.4391L38.1639 33.448L39.4289 32.6419ZM39.8098 33.9485V35.4485C40.6382 35.4485 41.3098 34.7769 41.3098 33.9485H39.8098ZM38.6789 33.9485H37.1789C37.1789 34.7769 37.8505 35.4485 38.6789 35.4485V33.9485ZM38.1867 32.7356L37.1803 33.848L37.1877 33.8545L38.1867 32.7356ZM35.4973 32.6595L36.4234 33.8395L36.4253 33.8379L35.4973 32.6595ZM35.4738 34.5579L34.5181 35.714C34.5237 35.7186 34.5293 35.7232 34.5349 35.7277L35.4738 34.5579ZM36.9797 35.2141L36.5729 36.6579L36.575 36.6585L36.9797 35.2141ZM38.6438 35.8763L37.8646 37.158C37.8695 37.161 37.8745 37.164 37.8794 37.1669L38.6438 35.8763ZM39.5344 36.7141L38.2467 37.4836L38.2537 37.4951L39.5344 36.7141ZM39.0188 39.5091L39.9325 40.6987L39.9379 40.6945L39.0188 39.5091ZM35.216 39.7962L34.6049 41.166L34.6137 41.1699L35.216 39.7962ZM34.0383 38.8704L32.8094 39.7306L32.8152 39.7388L34.0383 38.8704ZM33.6281 37.5403V36.0403C32.7997 36.0403 32.1281 36.7119 32.1281 37.5403H33.6281ZM34.759 37.5403H36.259C36.259 36.7119 35.5874 36.0403 34.759 36.0403V37.5403ZM35.3274 38.7649L34.3948 39.9398C34.3992 39.9433 34.4037 39.9468 34.4081 39.9503L35.3274 38.7649ZM38.257 36.8899L37.3296 38.0689L37.3394 38.0765L38.257 36.8899ZM37.0777 34.7686C36.2027 34.5171 35.7568 34.2575 35.5644 34.0821L33.5435 36.2993C34.2338 36.9286 35.1942 37.3487 36.2489 37.6519L37.0777 34.7686ZM35.5746 34.0915C35.4408 33.9673 35.3977 33.8647 35.3977 33.6907H32.3977C32.3977 34.7042 32.792 35.6016 33.5332 36.2899L35.5746 34.0915ZM35.3977 33.6907C35.3977 33.4837 35.4515 33.3501 35.6498 33.188L33.751 30.8653C32.879 31.5782 32.3977 32.5539 32.3977 33.6907H35.3977ZM35.6507 33.1872C35.8636 33.0129 36.2018 32.8645 36.7981 32.8645V29.8645C35.6756 29.8645 34.6153 30.1576 33.7501 30.8661L35.6507 33.1872ZM36.7981 32.8645C37.1873 32.8645 37.4751 32.9387 37.6963 33.0483L39.0287 30.3604C38.3358 30.017 37.5807 29.8645 36.7981 29.8645V32.8645ZM37.7008 33.0505C37.9356 33.1659 38.0699 33.2981 38.1583 33.4391L40.6995 31.8446C40.288 31.1887 39.7113 30.696 39.0242 30.3582L37.7008 33.0505ZM38.1639 33.448C38.2643 33.6055 38.3098 33.7613 38.3098 33.9485H41.3098C41.3098 33.1904 41.1014 32.4752 40.6939 31.8358L38.1639 33.448ZM39.8098 32.4485H38.6789V35.4485H39.8098V32.4485ZM40.1789 33.9485C40.1789 33.0864 39.8883 32.244 39.1858 31.6167L37.1877 33.8545C37.1879 33.8547 37.1866 33.8535 37.1844 33.851C37.1821 33.8485 37.1794 33.8452 37.1766 33.8413C37.1705 33.8326 37.1671 33.8254 37.166 33.8226C37.1634 33.8162 37.1789 33.8495 37.1789 33.9485H40.1789ZM39.1931 31.6233C38.5048 31.0006 37.6355 30.7903 36.7981 30.7903V33.7903C37.1559 33.7903 37.2124 33.8769 37.1804 33.8479L39.1931 31.6233ZM36.7981 30.7903C36.0373 30.7903 35.2332 30.9581 34.5693 31.481L36.4253 33.8379C36.3864 33.8686 36.4495 33.7903 36.7981 33.7903V30.7903ZM34.5712 31.4795C33.8588 32.0386 33.5344 32.8344 33.5344 33.6731H36.5344C36.5344 33.6356 36.5405 33.6609 36.5146 33.7176C36.5022 33.7446 36.486 33.7711 36.4672 33.7946C36.4487 33.8179 36.4323 33.8324 36.4234 33.8394L34.5712 31.4795ZM33.5344 33.6731C33.5344 34.5134 33.917 35.2171 34.5181 35.714L36.4296 33.4018C36.4203 33.3941 36.454 33.42 36.4877 33.4878C36.5232 33.5592 36.5344 33.6287 36.5344 33.6731H33.5344ZM34.5349 35.7277C35.0753 36.1614 35.8186 36.4454 36.5729 36.6579L37.3865 33.7704C36.7267 33.5845 36.4661 33.4309 36.4128 33.3881L34.5349 35.7277ZM36.575 36.6585C37.2214 36.8396 37.6305 37.0157 37.8646 37.158L39.4229 34.5945C38.8602 34.2524 38.1599 33.9871 37.3844 33.7698L36.575 36.6585ZM37.8794 37.1669C38.1201 37.3094 38.2121 37.4256 38.2468 37.4836L40.822 35.9447C40.4739 35.3621 39.9721 34.9196 39.4081 34.5856L37.8794 37.1669ZM38.2537 37.4951C38.2844 37.5455 38.3274 37.6432 38.3274 37.845H41.3274C41.3274 37.1796 41.175 36.5234 40.8151 35.9332L38.2537 37.4951ZM38.3274 37.845C38.3274 38.0801 38.2665 38.1943 38.0996 38.3236L39.9379 40.6945C40.8492 39.9879 41.3274 38.9927 41.3274 37.845H38.3274ZM38.105 38.3195C37.9024 38.4751 37.5365 38.6302 36.8567 38.6302V41.6302C37.9815 41.6302 39.057 41.3711 39.9325 40.6986L38.105 38.3195ZM36.8567 38.6302C36.4661 38.6302 36.1256 38.5571 35.8184 38.4224L34.6137 41.1699C35.3221 41.4805 36.0754 41.6302 36.8567 41.6302V38.6302ZM35.8272 38.4263C35.5246 38.2913 35.3598 38.1406 35.2614 38.002L32.8152 39.7388C33.2715 40.3814 33.8918 40.8479 34.6049 41.166L35.8272 38.4263ZM35.2671 38.0102C35.1776 37.8823 35.1281 37.7419 35.1281 37.5403H32.1281C32.1281 38.3309 32.3521 39.0772 32.8095 39.7306L35.2671 38.0102ZM33.6281 39.0403H34.759V36.0403H33.6281V39.0403ZM33.259 37.5403C33.259 38.4789 33.6311 39.3335 34.3948 39.9398L36.26 37.5901C36.2474 37.5801 36.2456 37.5766 36.2491 37.581C36.2528 37.5857 36.2577 37.5932 36.2617 37.6017C36.2656 37.61 36.2654 37.6126 36.2639 37.6056C36.2624 37.598 36.259 37.5773 36.259 37.5403H33.259ZM34.4081 39.9503C35.1263 40.5072 35.9919 40.7102 36.8567 40.7102V37.7102C36.4479 37.7102 36.2941 37.6164 36.2466 37.5796L34.4081 39.9503ZM36.8567 40.7102C37.6257 40.7102 38.4549 40.5576 39.1336 40.0381L37.3102 37.6558C37.3561 37.6207 37.2751 37.7102 36.8567 37.7102V40.7102ZM39.1336 40.0381C39.8415 39.4962 40.1965 38.715 40.1965 37.8567H37.1965C37.1965 37.8732 37.1944 37.8337 37.2252 37.7694C37.2571 37.7029 37.2976 37.6654 37.3102 37.6558L39.1336 40.0381ZM40.1965 37.8567C40.1965 37.0424 39.8856 36.2531 39.1747 35.7033L37.3394 38.0765C37.3237 38.0643 37.3016 38.0443 37.2784 38.0153C37.255 37.9861 37.2356 37.9542 37.2211 37.9222C37.1912 37.8564 37.1965 37.8236 37.1965 37.8567H40.1965ZM39.1845 35.711C38.6469 35.2881 37.8711 34.9982 37.0802 34.7693L36.2464 37.6511C36.5933 37.7515 36.8574 37.8446 37.0505 37.9269C37.1459 37.9676 37.216 38.0023 37.2652 38.0296C37.3155 38.0575 37.3333 38.0718 37.3296 38.0689L39.1845 35.711ZM47.1692 32.4075V33.9075C47.9976 33.9075 48.6692 33.2359 48.6692 32.4075H47.1692ZM44.427 32.4075V30.9075C43.5985 30.9075 42.927 31.5791 42.927 32.4075H44.427ZM44.427 40.013V41.513C45.2554 41.513 45.927 40.8414 45.927 40.013H44.427ZM43.3078 40.013H41.8078C41.8078 40.8414 42.4794 41.513 43.3078 41.513V40.013ZM43.3078 32.4075H44.8078C44.8078 31.5791 44.1363 30.9075 43.3078 30.9075V32.4075ZM40.5715 32.4075H39.0715C39.0715 33.2359 39.7431 33.9075 40.5715 33.9075V32.4075ZM40.5715 31.4817V29.9817C39.7431 29.9817 39.0715 30.6533 39.0715 31.4817H40.5715ZM47.1692 31.4817H48.6692C48.6692 30.6533 47.9976 29.9817 47.1692 29.9817V31.4817ZM47.1692 30.9075H44.427V33.9075H47.1692V30.9075ZM42.927 32.4075V40.013H45.927V32.4075H42.927ZM44.427 38.513H43.3078V41.513H44.427V38.513ZM44.8078 40.013V32.4075H41.8078V40.013H44.8078ZM43.3078 30.9075H40.5715V33.9075H43.3078V30.9075ZM42.0715 32.4075V31.4817H39.0715V32.4075H42.0715ZM40.5715 32.9817H47.1692V29.9817H40.5715V32.9817ZM45.6692 31.4817V32.4075H48.6692V31.4817H45.6692Z" fill="#F0FF4C" fill-opacity="0.8"/>
</g>
<g filter="url(#filter4_f)">
<path d="M44.7257 20.4191C46.7836 20.4191 48.4519 18.7508 48.4519 16.6929C48.4519 14.635 46.7836 12.9667 44.7257 12.9667C42.6678 12.9667 40.9995 14.635 40.9995 16.6929C40.9995 18.7508 42.6678 20.4191 44.7257 20.4191Z" stroke="#F0FF4C" stroke-opacity="0.8" stroke-width="6" stroke-linecap="round" stroke-linejoin="round"/>
</g>
<g filter="url(#filter5_f)">
<path d="M44.7257 9.59473C45.3545 9.59473 45.9642 9.67649 46.5447 9.82996M50.8499 13.102C51.173 13.652 51.4242 14.2493 51.5905 14.8811L50.8499 13.102ZM50.8662 20.2558C50.5512 20.7976 50.1665 21.2938 49.7244 21.7323L50.8662 20.2558ZM44.7075 23.791C44.0549 23.7892 43.423 23.6996 42.823 23.5331L44.7075 23.791ZM38.5447 20.1852C38.2497 19.6642 38.0187 19.1022 37.8623 18.5099L38.5447 20.1852ZM38.5732 13.1506C38.889 12.6034 39.2756 12.1022 39.7207 11.6596L38.5732 13.1506Z" stroke="#F0FF4C" stroke-opacity="0.8" stroke-width="6" stroke-linecap="round" stroke-linejoin="round"/>
</g>
<g filter="url(#filter6_f)">
<path d="M50.7941 24.3243C49.3865 25.4451 47.6618 26.1847 45.7763 26.3867M41.1073 25.7491C39.3786 25.0578 37.894 23.8858 36.8189 22.3984L41.1073 25.7491ZM35.0797 18.1202C35.0114 17.6544 34.976 17.1778 34.976 16.6929C34.976 15.3005 35.2678 13.9763 35.7938 12.7781L35.0797 18.1202ZM38.6665 9.05416C40.0663 7.94233 41.7787 7.20714 43.6505 7.0018L38.6665 9.05416ZM48.2631 7.60472C49.9839 8.27501 51.4675 9.41996 52.5528 10.8787L48.2631 7.60472ZM54.3657 15.2255C54.438 15.7041 54.4754 16.1942 54.4754 16.6929C54.4754 18.0862 54.1831 19.4113 53.6565 20.6102L54.3657 15.2255Z" stroke="#F0FF4C" stroke-opacity="0.8" stroke-width="6" stroke-linecap="round" stroke-linejoin="round"/>
</g>
<g filter="url(#filter7_f)">
<path d="M49.7308 21.7283L50.794 24.3299M43.6417 7.00064L44.7257 9.58689L43.6417 7.00064Z" stroke="#F0FF4C" stroke-opacity="0.8" stroke-width="6" stroke-linecap="round" stroke-linejoin="round"/>
</g>
<g filter="url(#filter8_f)">
<path d="M38.6741 9.08133L39.7271 11.6742L38.6741 9.08133ZM44.7076 23.8017L45.7634 26.3861L44.7076 23.8017Z" stroke="#F0FF4C" stroke-opacity="0.8" stroke-width="6" stroke-linecap="round" stroke-linejoin="round"/>
</g>
<g filter="url(#filter9_f)">
<path d="M42.8408 23.5012L41.1194 25.7227M52.5508 10.864L50.853 13.0959L52.5508 10.864Z" stroke="#F0FF4C" stroke-opacity="0.8" stroke-width="6" stroke-linecap="round" stroke-linejoin="round"/>
</g>
<g filter="url(#filter10_f)">
<path d="M48.2651 7.60233L46.5461 9.81069L48.2651 7.60233ZM38.5336 20.1877L36.8233 22.3942L38.5336 20.1877Z" stroke="#F0FF4C" stroke-opacity="0.8" stroke-width="6" stroke-linecap="round" stroke-linejoin="round"/>
</g>
<g filter="url(#filter11_f)">
<path d="M51.5692 14.8716L54.3538 15.2516M35.7701 12.781L38.5519 13.1354L35.7701 12.781Z" stroke="#F0FF4C" stroke-opacity="0.8" stroke-width="6" stroke-linecap="round" stroke-linejoin="round"/>
</g>
<g filter="url(#filter12_f)">
<path d="M35.0883 18.1234L37.8603 18.5079L35.0883 18.1234ZM50.8533 20.2584L53.6194 20.6363L50.8533 20.2584Z" stroke="#F0FF4C" stroke-opacity="0.8" stroke-width="6" stroke-linecap="round" stroke-linejoin="round"/>
</g>
<path d="M14.6842 42.8945C12.9951 42.4213 12.5791 42.2228 11.9736 41.8404C10.4168 40.8188 9.72712 40.0031 9.11255 39.2052C8.20969 38.1549 7.75729 37.0217 7.38083 35.8923C7.00437 34.4618 7.00796 33.9046 7.00437 33.2571C6.97003 31.8238 7.145 30.8872 7.38083 30.0949C7.80288 28.7672 8.37121 27.4592 9.71489 26.255C11.2309 24.9387 12.6791 24.0672 14.0818 23.6197C15.4371 23.168 15.877 23.1044 16.5665 22.9421C16.7694 22.1277 16.8676 21.7374 17.2441 20.5328C17.7034 19.2372 18.0723 18.4246 19.0511 17.0693C19.8793 15.94 20.3989 15.3827 21.0087 14.8106C22.1995 13.5745 23.5674 12.7611 24.9992 12.1001C26.8019 11.2552 28.4626 10.8201 30.0437 10.6695C30.7967 10.5942 32.3025 10.5942 33.5825 10.8954" stroke="#EAFF00" stroke-width="4" stroke-linecap="round" stroke-linejoin="round"/>
<path d="M55.4924 22.1892C56.0869 22.8336 56.6803 23.4853 57.2242 24.448C58.6528 26.7417 58.7293 27.9038 58.9559 29.1914C59.2261 31.0571 59.2077 32.7706 58.8806 34.3865C58.618 35.4881 58.2613 36.6395 57.2242 38.1511C56.923 38.6782 55.5328 40.0929 54.4384 40.8616C53.6101 41.464 52.029 42.1416 50.8243 42.5181" stroke="#EAFF00" stroke-width="4" stroke-linecap="round" stroke-linejoin="round"/>
<path d="M27.7818 51.098L28.7209 50.7545C28.5767 50.3602 28.2016 50.098 27.7818 50.098V51.098ZM23.6119 51.098V50.098C23.1904 50.098 22.8141 50.3623 22.6711 50.7588L23.6119 51.098ZM22.6754 53.6956V54.6956C23.0969 54.6956 23.4731 54.4313 23.6161 54.0348L22.6754 53.6956ZM21.3218 53.6956L20.3876 53.3389C20.2703 53.6463 20.3116 53.9918 20.4982 54.2628C20.6848 54.5338 20.9928 54.6956 21.3218 54.6956V53.6956ZM25.1226 43.7425V42.7425C24.708 42.7425 24.3363 42.9984 24.1884 43.3858L25.1226 43.7425ZM26.2711 43.7425L27.205 43.3852C27.057 42.9981 26.6855 42.7425 26.2711 42.7425V43.7425ZM30.0787 53.6956V54.6956C30.4078 54.6956 30.7159 54.5337 30.9025 54.2625C31.0891 53.9914 31.1303 53.6458 31.0127 53.3383L30.0787 53.6956ZM28.732 53.6956L27.7929 54.0392C27.9371 54.4334 28.3122 54.6956 28.732 54.6956V53.6956ZM24.0084 50.0179L23.0683 49.6769C22.9571 49.9835 23.0024 50.325 23.1895 50.5919C23.3767 50.8589 23.6823 51.0179 24.0084 51.0179V50.0179ZM27.3922 50.0179V51.0179C27.7184 51.0179 28.0242 50.8587 28.2114 50.5914C28.3985 50.3241 28.4434 49.9823 28.3318 49.6757L27.3922 50.0179ZM25.6968 45.3626L26.6365 45.0205C26.4926 44.6253 26.1168 44.3624 25.6962 44.3626C25.2756 44.3629 24.9002 44.6263 24.7568 45.0217L25.6968 45.3626ZM27.7818 50.098H23.6119V52.098H27.7818V50.098ZM22.6711 50.7588L21.7346 53.3565L23.6161 54.0348L24.5526 51.4371L22.6711 50.7588ZM22.6754 52.6956H21.3218V54.6956H22.6754V52.6956ZM22.256 54.0524L26.0568 44.0993L24.1884 43.3858L20.3876 53.3389L22.256 54.0524ZM25.1226 44.7425H26.2711V42.7425H25.1226V44.7425ZM25.3371 44.0998L29.1447 54.053L31.0127 53.3383L27.205 43.3852L25.3371 44.0998ZM30.0787 52.6956H28.732V54.6956H30.0787V52.6956ZM29.6711 53.3521L28.7209 50.7545L26.8427 51.4415L27.7929 54.0392L29.6711 53.3521ZM24.0084 51.0179H27.3922V49.0179H24.0084V51.0179ZM28.3318 49.6757L26.6365 45.0205L24.7572 45.7048L26.4525 50.3601L28.3318 49.6757ZM24.7568 45.0217L23.0683 49.6769L24.9484 50.3589L26.6369 45.7036L24.7568 45.0217ZM32.731 49.7992V48.7992C32.1787 48.7992 31.731 49.2469 31.731 49.7992H32.731ZM32.731 53.6956V54.6956C33.2833 54.6956 33.731 54.2479 33.731 53.6956H32.731ZM31.4185 53.6956H30.4185C30.4185 54.2479 30.8662 54.6956 31.4185 54.6956V53.6956ZM31.4185 43.7425V42.7425C30.8662 42.7425 30.4185 43.1902 30.4185 43.7425H31.4185ZM37.6461 44.5765L36.9756 45.3184L36.9783 45.3209L37.6461 44.5765ZM37.6666 49.0199L38.3202 49.7767L38.3206 49.7763L37.6666 49.0199ZM32.731 48.7259H31.731C31.731 49.2782 32.1787 49.7259 32.731 49.7259V48.7259ZM36.7027 48.2337L37.3625 48.9852L37.3676 48.9806L36.7027 48.2337ZM35.1646 44.8226L35.1856 43.8228C35.1786 43.8227 35.1716 43.8226 35.1646 43.8226V44.8226ZM32.731 44.8226V43.8226C32.1787 43.8226 31.731 44.2703 31.731 44.8226H32.731ZM31.731 49.7992V53.6956H33.731V49.7992H31.731ZM32.731 52.6956H31.4185V54.6956H32.731V52.6956ZM32.4185 53.6956V43.7425H30.4185V53.6956H32.4185ZM31.4185 44.7425H35.0894V42.7425H31.4185V44.7425ZM35.0894 44.7425C36.0103 44.7425 36.5956 44.9751 36.9756 45.3184L38.3165 43.8346C37.466 43.066 36.3469 42.7425 35.0894 42.7425V44.7425ZM36.9783 45.3209C37.3641 45.6669 37.5757 46.1207 37.5757 46.7845H39.5757C39.5757 45.6163 39.1676 44.598 38.3138 43.8321L36.9783 45.3209ZM37.5757 46.7845C37.5757 47.5256 37.3539 47.9683 37.0125 48.2634L38.3206 49.7763C39.1915 49.0233 39.5757 47.9757 39.5757 46.7845H37.5757ZM37.0129 48.263C36.6559 48.5714 36.0602 48.7992 35.0757 48.7992V50.7992C36.3426 50.7992 37.4741 50.5074 38.3202 49.7767L37.0129 48.263ZM35.0757 48.7992H32.731V50.7992H35.0757V48.7992ZM32.731 49.7259H35.0894V47.7259H32.731V49.7259ZM35.0894 49.7259C35.9349 49.7259 36.7435 49.5287 37.3625 48.9852L36.0429 47.4823C35.9145 47.5951 35.6476 47.7259 35.0894 47.7259V49.7259ZM37.3676 48.9806C38.0054 48.4128 38.2632 47.6317 38.2632 46.7982H36.2632C36.2632 47.2133 36.1474 47.3893 36.0378 47.4868L37.3676 48.9806ZM38.2632 46.7982C38.2632 45.9764 37.9942 45.2246 37.3919 44.6518L36.0135 46.1009C36.1586 46.2389 36.2632 46.4351 36.2632 46.7982H38.2632ZM37.3919 44.6518C36.7935 44.0826 36.0183 43.8403 35.1856 43.8228L35.1436 45.8224C35.6143 45.8323 35.8645 45.9591 36.0135 46.1009L37.3919 44.6518ZM35.1646 43.8226H32.731V45.8226H35.1646V43.8226ZM31.731 44.8226V48.7259H33.731V44.8226H31.731ZM41.6588 53.6956V54.6956C42.211 54.6956 42.6588 54.2479 42.6588 53.6956H41.6588ZM40.3463 53.6956H39.3463C39.3463 54.2479 39.794 54.6956 40.3463 54.6956V53.6956ZM40.3463 43.7425V42.7425C39.794 42.7425 39.3463 43.1902 39.3463 43.7425H40.3463ZM41.6588 43.7425H42.6588C42.6588 43.1902 42.211 42.7425 41.6588 42.7425V43.7425ZM41.6588 52.6956H40.3463V54.6956H41.6588V52.6956ZM41.3463 53.6956V43.7425H39.3463V53.6956H41.3463ZM40.3463 44.7425H41.6588V42.7425H40.3463V44.7425ZM40.6588 43.7425V53.6956H42.6588V43.7425H40.6588Z" fill="#EAFF00"/>
<path d="M23.0637 36.5618L23.9449 36.089C23.7707 35.7644 23.4321 35.5618 23.0637 35.5618V36.5618ZM21.0598 36.5618V35.5618C20.5075 35.5618 20.0598 36.0095 20.0598 36.5618H21.0598ZM21.0598 40.013V41.013C21.6121 41.013 22.0598 40.5653 22.0598 40.013H21.0598ZM19.9289 40.013H18.9289C18.9289 40.5653 19.3766 41.013 19.9289 41.013V40.013ZM19.9289 31.4817V30.4817C19.3766 30.4817 18.9289 30.9294 18.9289 31.4817H19.9289ZM24.968 32.138L24.321 32.9005L24.3239 32.9029L24.968 32.138ZM25.3137 35.4368L24.507 34.8458L24.5032 34.851L25.3137 35.4368ZM24.1184 36.3216L23.7618 35.3873C23.4911 35.4906 23.2786 35.7062 23.1791 35.9783C23.0797 36.2504 23.1031 36.5523 23.2434 36.8058L24.1184 36.3216ZM26.1223 39.9427H27.1223C27.1223 39.7733 27.0793 39.6067 26.9972 39.4585L26.1223 39.9427ZM26.1223 40.013V41.013C26.6746 41.013 27.1223 40.5653 27.1223 40.013H26.1223ZM24.9153 40.013L24.0341 40.4857C24.2082 40.8104 24.5468 41.013 24.9153 41.013V40.013ZM21.0598 35.6419H20.0598C20.0598 36.1942 20.5075 36.6419 21.0598 36.6419V35.6419ZM24.1184 35.2083L23.4617 34.454L23.4573 34.4579L24.1184 35.2083ZM24.1418 32.8352L23.4728 33.5785L23.4775 33.5826L24.1418 32.8352ZM22.7824 32.4075L22.789 31.4075H22.7824V32.4075ZM21.0598 32.4075V31.4075C20.5075 31.4075 20.0598 31.8552 20.0598 32.4075H21.0598ZM23.0637 35.5618H21.0598V37.5618H23.0637V35.5618ZM20.0598 36.5618V40.013H22.0598V36.5618H20.0598ZM21.0598 39.013H19.9289V41.013H21.0598V39.013ZM20.9289 40.013V31.4817H18.9289V40.013H20.9289ZM19.9289 32.4817H22.7531V30.4817H19.9289V32.4817ZM22.7531 32.4817C23.5754 32.4817 24.0491 32.6698 24.321 32.9005L25.615 31.3755C24.8556 30.7312 23.8527 30.4817 22.7531 30.4817V32.4817ZM24.3239 32.9029C24.5665 33.1072 24.7473 33.4328 24.7473 34.0481H26.7473C26.7473 32.9916 26.4086 32.0437 25.6121 31.3731L24.3239 32.9029ZM24.7473 34.0481C24.7473 34.3862 24.6595 34.6377 24.507 34.8458L26.1203 36.0278C26.546 35.4469 26.7473 34.7726 26.7473 34.0481H24.7473ZM24.5032 34.851C24.3461 35.0684 24.115 35.2525 23.7618 35.3873L24.475 37.2558C25.1452 37 25.711 36.5943 26.1242 36.0226L24.5032 34.851ZM23.2434 36.8058L25.2473 40.4269L26.9972 39.4585L24.9933 35.8374L23.2434 36.8058ZM25.1223 39.9427V40.013H27.1223V39.9427H25.1223ZM26.1223 39.013H24.9153V41.013H26.1223V39.013ZM25.7964 39.5402L23.9449 36.089L22.1825 37.0346L24.0341 40.4857L25.7964 39.5402ZM21.0598 36.6419H22.7883V34.6419H21.0598V36.6419ZM22.7883 36.6419C23.5208 36.6419 24.2225 36.4492 24.7794 35.9586L23.4573 34.4579C23.358 34.5454 23.173 34.6419 22.7883 34.6419V36.6419ZM24.775 35.9625C25.3486 35.4631 25.6164 34.7891 25.6164 34.0481H23.6164C23.6164 34.2759 23.5522 34.3753 23.4618 34.4541L24.775 35.9625ZM25.6164 34.0481C25.6164 33.3108 25.3867 32.6039 24.8062 32.0878L23.4775 33.5826C23.5297 33.6291 23.6164 33.7308 23.6164 34.0481H25.6164ZM24.8108 32.0919C24.2535 31.5904 23.5272 31.4124 22.789 31.4075L22.7759 33.4075C23.2252 33.4104 23.4051 33.5176 23.4729 33.5785L24.8108 32.0919ZM22.7824 31.4075H21.0598V33.4075H22.7824V31.4075ZM20.0598 32.4075V35.6419H22.0598V32.4075H20.0598ZM32.1516 36.0696V37.0696C32.7039 37.0696 33.1516 36.6219 33.1516 36.0696H32.1516ZM28.4543 36.0696V35.0696C27.902 35.0696 27.4543 35.5173 27.4543 36.0696H28.4543ZM28.4543 39.093H27.4543C27.4543 39.6453 27.902 40.093 28.4543 40.093V39.093ZM32.7492 39.093H33.7492C33.7492 38.5408 33.3015 38.093 32.7492 38.093V39.093ZM32.7492 40.013V41.013C33.3015 41.013 33.7492 40.5653 33.7492 40.013H32.7492ZM27.3293 40.013H26.3293C26.3293 40.5653 26.777 41.013 27.3293 41.013V40.013ZM27.3293 31.4817V30.4817C26.777 30.4817 26.3293 30.9294 26.3293 31.4817H27.3293ZM32.6906 31.4817H33.6906C33.6906 30.9294 33.2429 30.4817 32.6906 30.4817V31.4817ZM32.6906 32.4075V33.4075C33.2429 33.4075 33.6906 32.9598 33.6906 32.4075H32.6906ZM28.4543 32.4075V31.4075C27.902 31.4075 27.4543 31.8552 27.4543 32.4075H28.4543ZM28.4543 35.1497H27.4543C27.4543 35.702 27.902 36.1497 28.4543 36.1497V35.1497ZM32.1516 35.1497H33.1516C33.1516 34.5974 32.7039 34.1497 32.1516 34.1497V35.1497ZM32.1516 35.0696H28.4543V37.0696H32.1516V35.0696ZM27.4543 36.0696V39.093H29.4543V36.0696H27.4543ZM28.4543 40.093H32.7492V38.093H28.4543V40.093ZM31.7492 39.093V40.013H33.7492V39.093H31.7492ZM32.7492 39.013H27.3293V41.013H32.7492V39.013ZM28.3293 40.013V31.4817H26.3293V40.013H28.3293ZM27.3293 32.4817H32.6906V30.4817H27.3293V32.4817ZM31.6906 31.4817V32.4075H33.6906V31.4817H31.6906ZM32.6906 31.4075H28.4543V33.4075H32.6906V31.4075ZM27.4543 32.4075V35.1497H29.4543V32.4075H27.4543ZM28.4543 36.1497H32.1516V34.1497H28.4543V36.1497ZM31.1516 35.1497V36.0696H33.1516V35.1497H31.1516ZM36.6633 36.2102L36.9412 35.2496L36.9396 35.2492L36.6633 36.2102ZM34.5539 35.1907L33.8734 35.9235L33.8803 35.9298L34.5539 35.1907ZM34.7004 32.0266L35.3333 32.8009L35.334 32.8003L34.7004 32.0266ZM38.3625 31.7044L37.9184 32.6003L37.9214 32.6018L38.3625 31.7044ZM39.4289 32.6419L38.5818 33.1734L38.5856 33.1793L39.4289 32.6419ZM39.8098 33.9485V34.9485C40.3621 34.9485 40.8098 34.5008 40.8098 33.9485H39.8098ZM38.6789 33.9485H37.6789C37.6789 34.5008 38.1266 34.9485 38.6789 34.9485V33.9485ZM38.1867 32.7356L37.5158 33.4772L37.5207 33.4816L38.1867 32.7356ZM35.4973 32.6595L36.1147 33.4461L36.116 33.4451L35.4973 32.6595ZM35.4738 34.5579L34.8367 35.3286C34.8404 35.3317 34.8441 35.3347 34.8479 35.3378L35.4738 34.5579ZM36.9797 35.2141L36.7085 36.1767L36.7099 36.1771L36.9797 35.2141ZM38.6438 35.8763L38.1243 36.7308L38.1342 36.7367L38.6438 35.8763ZM39.5344 36.7141L38.6759 37.2271L38.6806 37.2347L39.5344 36.7141ZM39.0188 39.5091L39.6279 40.3021L39.6315 40.2993L39.0188 39.5091ZM35.216 39.7962L34.8086 40.7094L34.8145 40.712L35.216 39.7962ZM34.0383 38.8704L33.219 39.4439L33.2229 39.4493L34.0383 38.8704ZM33.6281 37.5403V36.5403C33.0759 36.5403 32.6281 36.988 32.6281 37.5403H33.6281ZM34.759 37.5403H35.759C35.759 36.988 35.3113 36.5403 34.759 36.5403V37.5403ZM35.3274 38.7649L34.7056 39.5482L34.7145 39.5551L35.3274 38.7649ZM38.257 36.8899L37.6387 37.6759L37.6453 37.681L38.257 36.8899ZM36.9396 35.2492C36.0346 34.989 35.503 34.7027 35.2276 34.4517L33.8803 35.9298C34.4877 36.4834 35.3623 36.8768 36.387 37.1713L36.9396 35.2492ZM35.2344 34.4579C34.9994 34.2397 34.8977 34.0046 34.8977 33.6907H32.8977C32.8977 34.5643 33.2335 35.3292 33.8735 35.9235L35.2344 34.4579ZM34.8977 33.6907C34.8977 33.3288 35.0228 33.0548 35.3333 32.8009L34.0675 31.2524C33.3077 31.8735 32.8977 32.7089 32.8977 33.6907H34.8977ZM35.334 32.8003C35.6556 32.537 36.1141 32.3645 36.7981 32.3645V30.3645C35.7633 30.3645 34.8234 30.6335 34.0669 31.2529L35.334 32.8003ZM36.7981 32.3645C37.2529 32.3645 37.6186 32.4517 37.9184 32.6003L38.8067 30.8084C38.1924 30.5039 37.5151 30.3645 36.7981 30.3645V32.3645ZM37.9214 32.6018C38.2315 32.7543 38.4396 32.9466 38.5819 33.1734L40.276 32.1104C39.9183 31.5403 39.4154 31.1076 38.8036 30.8069L37.9214 32.6018ZM38.5856 33.1793C38.7371 33.4171 38.8098 33.6662 38.8098 33.9485H40.8098C40.8098 33.2855 40.6285 32.6635 40.2722 32.1045L38.5856 33.1793ZM39.8098 32.9485H38.6789V34.9485H39.8098V32.9485ZM39.6789 33.9485C39.6789 33.2019 39.4305 32.5055 38.8528 31.9897L37.5207 33.4816C37.5992 33.5517 37.6789 33.6639 37.6789 33.9485H39.6789ZM38.8577 31.9941C38.2894 31.48 37.5556 31.2903 36.7981 31.2903V33.2903C37.2359 33.2903 37.4278 33.3975 37.5158 33.4772L38.8577 31.9941ZM36.7981 31.2903C36.106 31.2903 35.4254 31.4432 34.8786 31.8738L36.116 33.4451C36.1942 33.3835 36.3808 33.2903 36.7981 33.2903V31.2903ZM34.8799 31.8728C34.3021 32.3263 34.0344 32.9694 34.0344 33.6731H36.0344C36.0344 33.5096 36.0753 33.477 36.1147 33.4461L34.8799 31.8728ZM34.0344 33.6731C34.0344 34.3492 34.3383 34.9166 34.8367 35.3286L36.111 33.7871C36.056 33.7417 36.0418 33.7142 36.0399 33.7102C36.0384 33.7073 36.0376 33.705 36.0368 33.7017C36.036 33.6982 36.0344 33.6893 36.0344 33.6731H34.0344ZM34.8479 35.3378C35.3071 35.7063 35.97 35.9686 36.7085 36.1767L37.2509 34.2516C36.5754 34.0613 36.2343 33.886 36.0998 33.778L34.8479 35.3378ZM36.7099 36.1771C37.3778 36.3642 37.8354 36.5551 38.1244 36.7308L39.1632 35.0217C38.6552 34.713 38.0035 34.4625 37.2495 34.2512L36.7099 36.1771ZM38.1342 36.7367C38.4288 36.9111 38.5891 37.0817 38.676 37.2271L40.3928 36.2012C40.0969 35.706 39.6634 35.3179 39.1533 35.0158L38.1342 36.7367ZM38.6806 37.2347C38.7662 37.3751 38.8274 37.566 38.8274 37.845H40.8274C40.8274 37.2568 40.6932 36.6938 40.3882 36.1935L38.6806 37.2347ZM38.8274 37.845C38.8274 38.2322 38.6969 38.4932 38.406 38.7188L39.6315 40.2993C40.4187 39.689 40.8274 38.8406 40.8274 37.845H38.8274ZM38.4096 38.716C38.0948 38.9578 37.6107 39.1302 36.8567 39.1302V41.1302C37.9073 41.1302 38.8646 40.8885 39.6279 40.3021L38.4096 38.716ZM36.8567 39.1302C36.401 39.1302 35.9917 39.0444 35.6176 38.8803L34.8145 40.712C35.456 40.9933 36.1405 41.1302 36.8567 41.1302V39.1302ZM35.6235 38.8829C35.2525 38.7174 35.0117 38.5141 34.8537 38.2915L33.2229 39.4493C33.6195 40.0079 34.164 40.4218 34.8086 40.7094L35.6235 38.8829ZM34.8575 38.2969C34.7067 38.0815 34.6281 37.8401 34.6281 37.5403H32.6281C32.6281 38.2328 32.823 38.8781 33.2191 39.4439L34.8575 38.2969ZM33.6281 38.5403H34.759V36.5403H33.6281V38.5403ZM33.759 37.5403C33.759 38.3379 34.0702 39.0437 34.7056 39.5481L35.9491 37.9817C35.8267 37.8846 35.759 37.774 35.759 37.5403H33.759ZM34.7145 39.5551C35.3209 40.0254 36.0679 40.2102 36.8567 40.2102V38.2102C36.3719 38.2102 36.0994 38.0982 35.9402 37.9747L34.7145 39.5551ZM36.8567 40.2102C37.5673 40.2102 38.2718 40.0681 38.8297 39.641L37.6141 38.0529C37.5392 38.1102 37.3336 38.2102 36.8567 38.2102V40.2102ZM38.8297 39.641C39.4071 39.1991 39.6965 38.5682 39.6965 37.8567H37.6965C37.6965 37.9374 37.6819 37.9734 37.6761 37.9855C37.671 37.9962 37.6585 38.0189 37.6141 38.0529L38.8297 39.641ZM39.6965 37.8567C39.6965 37.1745 39.4404 36.5409 38.8688 36.0989L37.6453 37.681C37.6692 37.6994 37.6735 37.7093 37.6763 37.7153C37.6807 37.7252 37.6965 37.765 37.6965 37.8567H39.6965ZM38.8753 36.104C38.4193 35.7452 37.725 35.4764 36.9412 35.2496L36.3854 37.1708C37.1407 37.3894 37.5089 37.5737 37.6388 37.6759L38.8753 36.104ZM47.1692 32.4075V33.4075C47.7214 33.4075 48.1692 32.9598 48.1692 32.4075H47.1692ZM44.427 32.4075V31.4075C43.8747 31.4075 43.427 31.8552 43.427 32.4075H44.427ZM44.427 40.013V41.013C44.9793 41.013 45.427 40.5653 45.427 40.013H44.427ZM43.3078 40.013H42.3078C42.3078 40.5653 42.7555 41.013 43.3078 41.013V40.013ZM43.3078 32.4075H44.3078C44.3078 31.8552 43.8601 31.4075 43.3078 31.4075V32.4075ZM40.5715 32.4075H39.5715C39.5715 32.9598 40.0192 33.4075 40.5715 33.4075V32.4075ZM40.5715 31.4817V30.4817C40.0192 30.4817 39.5715 30.9294 39.5715 31.4817H40.5715ZM47.1692 31.4817H48.1692C48.1692 30.9294 47.7214 30.4817 47.1692 30.4817V31.4817ZM47.1692 31.4075H44.427V33.4075H47.1692V31.4075ZM43.427 32.4075V40.013H45.427V32.4075H43.427ZM44.427 39.013H43.3078V41.013H44.427V39.013ZM44.3078 40.013V32.4075H42.3078V40.013H44.3078ZM43.3078 31.4075H40.5715V33.4075H43.3078V31.4075ZM41.5715 32.4075V31.4817H39.5715V32.4075H41.5715ZM40.5715 32.4817H47.1692V30.4817H40.5715V32.4817ZM46.1692 31.4817V32.4075H48.1692V31.4817H46.1692Z" fill="#EAFF00"/>
<path d="M44.7257 20.4191C46.7836 20.4191 48.4519 18.7508 48.4519 16.6929C48.4519 14.635 46.7836 12.9667 44.7257 12.9667C42.6678 12.9667 40.9995 14.635 40.9995 16.6929C40.9995 18.7508 42.6678 20.4191 44.7257 20.4191Z" stroke="#EAFF00" stroke-width="4" stroke-linecap="round" stroke-linejoin="round"/>
<path d="M44.7257 9.59473C45.3545 9.59473 45.9642 9.67649 46.5447 9.82996M50.8499 13.102C51.173 13.652 51.4242 14.2493 51.5905 14.8811L50.8499 13.102ZM50.8662 20.2558C50.5512 20.7976 50.1665 21.2938 49.7244 21.7323L50.8662 20.2558ZM44.7075 23.791C44.0549 23.7892 43.423 23.6996 42.823 23.5331L44.7075 23.791ZM38.5447 20.1852C38.2497 19.6642 38.0187 19.1022 37.8623 18.5099L38.5447 20.1852ZM38.5732 13.1506C38.889 12.6034 39.2756 12.1022 39.7207 11.6596L38.5732 13.1506Z" stroke="#EAFF00" stroke-width="4" stroke-linecap="round" stroke-linejoin="round"/>
<path d="M50.7941 24.3243C49.3865 25.4451 47.6618 26.1847 45.7763 26.3867M41.1073 25.7491C39.3786 25.0578 37.894 23.8858 36.8189 22.3984L41.1073 25.7491ZM35.0797 18.1202C35.0114 17.6544 34.976 17.1778 34.976 16.6929C34.976 15.3005 35.2678 13.9763 35.7938 12.7781L35.0797 18.1202ZM38.6665 9.05416C40.0663 7.94233 41.7787 7.20714 43.6505 7.0018L38.6665 9.05416ZM48.2631 7.60472C49.9839 8.27501 51.4675 9.41996 52.5528 10.8787L48.2631 7.60472ZM54.3657 15.2255C54.438 15.7041 54.4754 16.1942 54.4754 16.6929C54.4754 18.0862 54.1831 19.4113 53.6566 20.6102L54.3657 15.2255Z" stroke="#EAFF00" stroke-width="4" stroke-linecap="round" stroke-linejoin="round"/>
<path d="M49.7308 21.7283L50.794 24.3299M43.6416 7.00064L44.7257 9.58689L43.6416 7.00064Z" stroke="#EAFF00" stroke-width="4" stroke-linecap="round" stroke-linejoin="round"/>
<path d="M38.6741 9.08133L39.7271 11.6742L38.6741 9.08133ZM44.7076 23.8017L45.7634 26.3861L44.7076 23.8017Z" stroke="#EAFF00" stroke-width="4" stroke-linecap="round" stroke-linejoin="round"/>
<path d="M42.8408 23.5012L41.1194 25.7227M52.5508 10.864L50.853 13.0959L52.5508 10.864Z" stroke="#EAFF00" stroke-width="4" stroke-linecap="round" stroke-linejoin="round"/>
<path d="M48.2651 7.60233L46.5461 9.81069L48.2651 7.60233ZM38.5336 20.1877L36.8233 22.3942L38.5336 20.1877Z" stroke="#EAFF00" stroke-width="4" stroke-linecap="round" stroke-linejoin="round"/>
<path d="M51.5692 14.8716L54.3538 15.2516M35.7701 12.781L38.5519 13.1354L35.7701 12.781Z" stroke="#EAFF00" stroke-width="4" stroke-linecap="round" stroke-linejoin="round"/>
<path d="M35.0883 18.1234L37.8603 18.5079L35.0883 18.1234ZM50.8533 20.2584L53.6194 20.6363L50.8533 20.2584Z" stroke="#EAFF00" stroke-width="4" stroke-linecap="round" stroke-linejoin="round"/>
<path d="M14.6841 42.8939C12.995 42.4207 12.5791 42.2222 11.9736 41.8398C10.4168 40.8182 9.72706 40.0025 9.11249 39.2046C8.20963 38.1543 7.75723 37.0212 7.38077 35.8918C7.00431 34.4612 7.0079 33.904 7.00431 33.2566C6.96996 31.8233 7.14494 30.8866 7.38077 30.0943C7.80282 28.7667 8.37115 27.4586 9.71482 26.2544C11.2308 24.9381 12.679 24.0666 14.0818 23.6192C15.437 23.1674 15.8769 23.1038 16.5664 22.9415C16.7693 22.1271 16.8676 21.7369 17.244 20.5322C17.7034 19.2367 18.0722 18.424 19.051 17.0688C19.8792 15.9394 20.3988 15.3822 21.0086 14.81C22.1995 13.5739 23.5674 12.7606 24.9991 12.0995C26.8019 11.2546 28.4625 10.8195 30.0437 10.6689C30.7966 10.5936 32.3024 10.5936 33.5824 10.8948" stroke="black" stroke-width="2" stroke-linecap="round" stroke-linejoin="round"/>
<path d="M55.4924 22.1886C56.0869 22.8329 56.6802 23.4847 57.2241 24.4474C58.6527 26.7411 58.7293 27.9032 58.9558 29.1908C59.226 31.0565 59.2077 32.77 58.8805 34.3859C58.6179 35.4875 58.2612 36.6389 57.2241 38.1505C56.9229 38.6776 55.5327 40.0923 54.4383 40.861C53.6101 41.4634 52.029 42.141 50.8243 42.5174" stroke="black" stroke-width="2" stroke-linecap="round" stroke-linejoin="round"/>
<path d="M27.7818 51.098H23.6119L22.6754 53.6956H21.3218L25.1226 43.7425H26.2711L30.0787 53.6956H28.732L27.7818 51.098ZM24.0084 50.0179H27.3922L25.6968 45.3626L24.0084 50.0179ZM32.731 49.7992V53.6956H31.4185V43.7425H35.0894C36.1786 43.7425 37.0308 44.0205 37.6461 44.5765C38.2658 45.1325 38.5757 45.8685 38.5757 46.7845C38.5757 47.7507 38.2727 48.4958 37.6666 49.0199C37.065 49.5394 36.2014 49.7992 35.0757 49.7992H32.731ZM32.731 48.7259H35.0894C35.7912 48.7259 36.329 48.5619 36.7027 48.2337C37.0764 47.9011 37.2632 47.4225 37.2632 46.7982C37.2632 46.2057 37.0764 45.7318 36.7027 45.3763C36.329 45.0208 35.8163 44.8363 35.1646 44.8226H32.731V48.7259ZM41.6588 53.6956H40.3463V43.7425H41.6588V53.6956Z" fill="black"/>
<path d="M27.7818 51.098L28.0166 51.0121C27.9805 50.9135 27.8868 50.848 27.7818 50.848V51.098ZM23.6119 51.098V50.848C23.5065 50.848 23.4124 50.9141 23.3767 51.0132L23.6119 51.098ZM22.6754 53.6956V53.9456C22.7807 53.9456 22.8748 53.8796 22.9105 53.7804L22.6754 53.6956ZM21.3218 53.6956L21.0883 53.6065C21.0589 53.6833 21.0693 53.7697 21.1159 53.8374C21.1626 53.9052 21.2396 53.9456 21.3218 53.9456V53.6956ZM25.1226 43.7425V43.4925C25.019 43.4925 24.926 43.5565 24.8891 43.6533L25.1226 43.7425ZM26.2711 43.7425L26.5046 43.6532C26.4675 43.5564 26.3747 43.4925 26.2711 43.4925V43.7425ZM30.0787 53.6956V53.9456C30.161 53.9456 30.238 53.9052 30.2846 53.8374C30.3313 53.7696 30.3416 53.6832 30.3122 53.6063L30.0787 53.6956ZM28.732 53.6956L28.4972 53.7815C28.5333 53.8801 28.627 53.9456 28.732 53.9456V53.6956ZM24.0084 50.0179L23.7733 49.9327C23.7455 50.0093 23.7569 50.0947 23.8037 50.1614C23.8504 50.2282 23.9268 50.2679 24.0084 50.2679V50.0179ZM27.3922 50.0179V50.2679C27.4737 50.2679 27.5502 50.2281 27.597 50.1613C27.6437 50.0945 27.655 50.009 27.6271 49.9324L27.3922 50.0179ZM25.6968 45.3626L25.9317 45.2771C25.8958 45.1783 25.8018 45.1126 25.6967 45.1126C25.5915 45.1127 25.4977 45.1786 25.4618 45.2774L25.6968 45.3626ZM27.7818 50.848H23.6119V51.348H27.7818V50.848ZM23.3767 51.0132L22.4402 53.6109L22.9105 53.7804L23.8471 51.1828L23.3767 51.0132ZM22.6754 53.4456H21.3218V53.9456H22.6754V53.4456ZM21.5554 53.7848L25.3562 43.8317L24.8891 43.6533L21.0883 53.6065L21.5554 53.7848ZM25.1226 43.9925H26.2711V43.4925H25.1226V43.9925ZM26.0376 43.8318L29.8452 53.785L30.3122 53.6063L26.5046 43.6532L26.0376 43.8318ZM30.0787 53.4456H28.732V53.9456H30.0787V53.4456ZM28.9668 53.6098L28.0166 51.0121L27.547 51.1839L28.4972 53.7815L28.9668 53.6098ZM24.0084 50.2679H27.3922V49.7679H24.0084V50.2679ZM27.6271 49.9324L25.9317 45.2771L25.4619 45.4482L27.1572 50.1035L27.6271 49.9324ZM25.4618 45.2774L23.7733 49.9327L24.2434 50.1032L25.9319 45.4479L25.4618 45.2774ZM32.731 49.7992V49.5492C32.5929 49.5492 32.481 49.6611 32.481 49.7992H32.731ZM32.731 53.6956V53.9456C32.8691 53.9456 32.981 53.8337 32.981 53.6956H32.731ZM31.4185 53.6956H31.1685C31.1685 53.8337 31.2804 53.9456 31.4185 53.9456V53.6956ZM31.4185 43.7425V43.4925C31.2804 43.4925 31.1685 43.6045 31.1685 43.7425H31.4185ZM37.6461 44.5765L37.4784 44.762L37.4791 44.7626L37.6461 44.5765ZM37.6666 49.0199L37.83 49.2091L37.8301 49.209L37.6666 49.0199ZM32.731 48.7259H32.481C32.481 48.864 32.5929 48.9759 32.731 48.9759V48.7259ZM36.7027 48.2337L36.8677 48.4216L36.8689 48.4205L36.7027 48.2337ZM35.1646 44.8226L35.1699 44.5726H35.1646V44.8226ZM32.731 44.8226V44.5726C32.5929 44.5726 32.481 44.6845 32.481 44.8226H32.731ZM32.481 49.7992V53.6956H32.981V49.7992H32.481ZM32.731 53.4456H31.4185V53.9456H32.731V53.4456ZM31.6685 53.6956V43.7425H31.1685V53.6956H31.6685ZM31.4185 43.9925H35.0894V43.4925H31.4185V43.9925ZM35.0894 43.9925C36.1365 43.9925 36.922 44.2592 37.4784 44.762L37.8137 44.391C37.1396 43.7819 36.2207 43.4925 35.0894 43.4925V43.9925ZM37.4791 44.7626C38.0404 45.2661 38.3257 45.9316 38.3257 46.7845H38.8257C38.8257 45.8054 38.4913 44.9989 37.813 44.3904L37.4791 44.7626ZM38.3257 46.7845C38.3257 47.6944 38.043 48.3639 37.503 48.8308L37.8301 49.209C38.5024 48.6277 38.8257 47.8069 38.8257 46.7845H38.3257ZM37.5032 48.8307C36.9627 49.2974 36.1661 49.5492 35.0757 49.5492V50.0492C36.2367 50.0492 37.1673 49.7814 37.83 49.2091L37.5032 48.8307ZM35.0757 49.5492H32.731V50.0492H35.0757V49.5492ZM32.731 48.9759H35.0894V48.4759H32.731V48.9759ZM35.0894 48.9759C35.8272 48.9759 36.4326 48.8036 36.8676 48.4216L36.5377 48.0459C36.2254 48.3202 35.7553 48.4759 35.0894 48.4759V48.9759ZM36.8689 48.4205C37.3087 48.029 37.5132 47.4748 37.5132 46.7982H37.0132C37.0132 47.3702 36.8441 47.7731 36.5365 48.047L36.8689 48.4205ZM37.5132 46.7982C37.5132 46.1484 37.3058 45.605 36.875 45.1952L36.5304 45.5575C36.847 45.8586 37.0132 46.2631 37.0132 46.7982H37.5132ZM36.875 45.1952C36.4451 44.7863 35.8668 44.5873 35.1699 44.5727L35.1594 45.0725C35.7658 45.0853 36.2129 45.2554 36.5304 45.5575L36.875 45.1952ZM35.1646 44.5726H32.731V45.0726H35.1646V44.5726ZM32.481 44.8226V48.7259H32.981V44.8226H32.481ZM41.6588 53.6956V53.9456C41.7968 53.9456 41.9088 53.8337 41.9088 53.6956H41.6588ZM40.3463 53.6956H40.0963C40.0963 53.8337 40.2082 53.9456 40.3463 53.9456V53.6956ZM40.3463 43.7425V43.4925C40.2082 43.4925 40.0963 43.6045 40.0963 43.7425H40.3463ZM41.6588 43.7425H41.9088C41.9088 43.6045 41.7968 43.4925 41.6588 43.4925V43.7425ZM41.6588 53.4456H40.3463V53.9456H41.6588V53.4456ZM40.5963 53.6956V43.7425H40.0963V53.6956H40.5963ZM40.3463 43.9925H41.6588V43.4925H40.3463V43.9925ZM41.4088 43.7425V53.6956H41.9088V43.7425H41.4088Z" fill="black"/>
<path d="M23.1643 36.5618H21.1604V40.013H20.0296V31.4817H22.8538C23.8147 31.4817 24.553 31.7005 25.0686 32.138C25.5882 32.5755 25.8479 33.2122 25.8479 34.0481C25.8479 34.5794 25.7034 35.0423 25.4143 35.4368C25.1292 35.8313 24.7307 36.1263 24.219 36.3216L26.2229 39.9427V40.013H25.0159L23.1643 36.5618ZM21.1604 35.6419H22.8889C23.4475 35.6419 23.8909 35.4973 24.219 35.2083C24.5511 34.9192 24.7171 34.5325 24.7171 34.0481C24.7171 33.5208 24.5589 33.1165 24.2425 32.8352C23.93 32.554 23.4768 32.4114 22.8831 32.4075H21.1604V35.6419ZM32.2522 36.0696H28.555V39.093H32.8499V40.013H27.43V31.4817H32.7913V32.4075H28.555V35.1497H32.2522V36.0696ZM36.7639 36.2102C35.7991 35.9329 35.096 35.593 34.6546 35.1907C34.2171 34.7845 33.9983 34.2845 33.9983 33.6907C33.9983 33.0188 34.2659 32.4641 34.8011 32.0266C35.3401 31.5852 36.0393 31.3645 36.8987 31.3645C37.4846 31.3645 38.0061 31.4778 38.4632 31.7044C38.9241 31.9309 39.2796 32.2434 39.5296 32.6419C39.7835 33.0403 39.9104 33.4759 39.9104 33.9485H38.7796C38.7796 33.4329 38.6155 33.0286 38.2874 32.7356C37.9593 32.4388 37.4964 32.2903 36.8987 32.2903C36.344 32.2903 35.9104 32.4134 35.5979 32.6595C35.2893 32.9016 35.135 33.2395 35.135 33.6731C35.135 34.0208 35.2815 34.3157 35.5745 34.5579C35.8714 34.7962 36.3733 35.0149 37.0804 35.2141C37.7913 35.4134 38.346 35.6341 38.7444 35.8763C39.1468 36.1145 39.4436 36.3938 39.635 36.7141C39.8304 37.0345 39.928 37.4114 39.928 37.845C39.928 38.5364 39.6585 39.0911 39.1194 39.5091C38.5804 39.9231 37.8596 40.1302 36.9573 40.1302C36.3714 40.1302 35.8245 40.0188 35.3167 39.7962C34.8089 39.5696 34.4163 39.261 34.1389 38.8704C33.8655 38.4798 33.7288 38.0364 33.7288 37.5403H34.8596C34.8596 38.0559 35.0491 38.4641 35.428 38.7649C35.8108 39.0618 36.3206 39.2102 36.9573 39.2102C37.5511 39.2102 38.0061 39.0891 38.3225 38.847C38.6389 38.6048 38.7971 38.2747 38.7971 37.8567C38.7971 37.4388 38.6507 37.1165 38.3577 36.8899C38.0647 36.6595 37.5335 36.4329 36.7639 36.2102ZM47.2698 32.4075H44.5276V40.013H43.4085V32.4075H40.6721V31.4817H47.2698V32.4075Z" fill="black"/>
<path d="M23.1643 36.5618L23.3846 36.4436C23.3411 36.3624 23.2564 36.3118 23.1643 36.3118V36.5618ZM21.1604 36.5618V36.3118C21.0224 36.3118 20.9104 36.4237 20.9104 36.5618H21.1604ZM21.1604 40.013V40.263C21.2985 40.263 21.4104 40.151 21.4104 40.013H21.1604ZM20.0296 40.013H19.7796C19.7796 40.151 19.8915 40.263 20.0296 40.263V40.013ZM20.0296 31.4817V31.2317C19.8915 31.2317 19.7796 31.3436 19.7796 31.4817H20.0296ZM25.0686 32.138L24.9069 32.3286L24.9076 32.3292L25.0686 32.138ZM25.4143 35.4368L25.2127 35.289L25.2117 35.2904L25.4143 35.4368ZM24.219 36.3216L24.1299 36.088C24.0622 36.1138 24.0091 36.1677 23.9842 36.2358C23.9594 36.3038 23.9652 36.3792 24.0003 36.4426L24.219 36.3216ZM26.2229 39.9427H26.4729C26.4729 39.9003 26.4622 39.8587 26.4417 39.8216L26.2229 39.9427ZM26.2229 40.013V40.263C26.361 40.263 26.4729 40.151 26.4729 40.013H26.2229ZM25.0159 40.013L24.7956 40.1312C24.8391 40.2123 24.9238 40.263 25.0159 40.263V40.013ZM21.1604 35.6419H20.9104C20.9104 35.7799 21.0224 35.8919 21.1604 35.8919V35.6419ZM24.219 35.2083L24.0549 35.0197L24.0538 35.0207L24.219 35.2083ZM24.2425 32.8352L24.0752 33.0211L24.0764 33.0221L24.2425 32.8352ZM22.8831 32.4075L22.8847 32.1575H22.8831V32.4075ZM21.1604 32.4075V32.1575C21.0224 32.1575 20.9104 32.2694 20.9104 32.4075H21.1604ZM23.1643 36.3118H21.1604V36.8118H23.1643V36.3118ZM20.9104 36.5618V40.013H21.4104V36.5618H20.9104ZM21.1604 39.763H20.0296V40.263H21.1604V39.763ZM20.2796 40.013V31.4817H19.7796V40.013H20.2796ZM20.0296 31.7317H22.8538V31.2317H20.0296V31.7317ZM22.8538 31.7317C23.7801 31.7317 24.4522 31.9428 24.9069 32.3286L25.2304 31.9473C24.6538 31.4581 23.8494 31.2317 22.8538 31.2317V31.7317ZM24.9076 32.3292C25.3579 32.7084 25.5979 33.2673 25.5979 34.0481H26.0979C26.0979 33.157 25.8184 32.4425 25.2297 31.9467L24.9076 32.3292ZM25.5979 34.0481C25.5979 34.5311 25.4676 34.9411 25.2127 35.289L25.616 35.5846C25.9392 35.1434 26.0979 34.6277 26.0979 34.0481H25.5979ZM25.2117 35.2904C24.9586 35.6406 24.602 35.9078 24.1299 36.088L24.3082 36.5551C24.8595 36.3447 25.2998 36.0221 25.617 35.5832L25.2117 35.2904ZM24.0003 36.4426L26.0042 40.0637L26.4417 39.8216L24.4378 36.2005L24.0003 36.4426ZM25.9729 39.9427V40.013H26.4729V39.9427H25.9729ZM26.2229 39.763H25.0159V40.263H26.2229V39.763ZM25.2362 39.8948L23.3846 36.4436L22.944 36.68L24.7956 40.1312L25.2362 39.8948ZM21.1604 35.8919H22.8889V35.3919H21.1604V35.8919ZM22.8889 35.8919C23.491 35.8919 23.999 35.7353 24.3843 35.3959L24.0538 35.0207C23.7828 35.2594 23.4041 35.3919 22.8889 35.3919V35.8919ZM24.3832 35.3968C24.7756 35.0552 24.9671 34.5967 24.9671 34.0481H24.4671C24.4671 34.4683 24.3265 34.7832 24.0549 35.0197L24.3832 35.3968ZM24.9671 34.0481C24.9671 33.4683 24.791 32.9883 24.4086 32.6484L24.0764 33.0221C24.3267 33.2446 24.4671 33.5733 24.4671 34.0481H24.9671ZM24.4097 32.6494C24.036 32.3131 23.5146 32.1617 22.8847 32.1575L22.8814 32.6575C23.4391 32.6612 23.8239 32.7949 24.0752 33.0211L24.4097 32.6494ZM22.8831 32.1575H21.1604V32.6575H22.8831V32.1575ZM20.9104 32.4075V35.6419H21.4104V32.4075H20.9104ZM32.2522 36.0696V36.3196C32.3903 36.3196 32.5022 36.2077 32.5022 36.0696H32.2522ZM28.555 36.0696V35.8196C28.4169 35.8196 28.305 35.9315 28.305 36.0696H28.555ZM28.555 39.093H28.305C28.305 39.2311 28.4169 39.343 28.555 39.343V39.093ZM32.8499 39.093H33.0999C33.0999 38.955 32.988 38.843 32.8499 38.843V39.093ZM32.8499 40.013V40.263C32.988 40.263 33.0999 40.151 33.0999 40.013H32.8499ZM27.43 40.013H27.18C27.18 40.151 27.2919 40.263 27.43 40.263V40.013ZM27.43 31.4817V31.2317C27.2919 31.2317 27.18 31.3436 27.18 31.4817H27.43ZM32.7913 31.4817H33.0413C33.0413 31.3436 32.9294 31.2317 32.7913 31.2317V31.4817ZM32.7913 32.4075V32.6575C32.9294 32.6575 33.0413 32.5456 33.0413 32.4075H32.7913ZM28.555 32.4075V32.1575C28.4169 32.1575 28.305 32.2694 28.305 32.4075H28.555ZM28.555 35.1497H28.305C28.305 35.2878 28.4169 35.3997 28.555 35.3997V35.1497ZM32.2522 35.1497H32.5022C32.5022 35.0116 32.3903 34.8997 32.2522 34.8997V35.1497ZM32.2522 35.8196H28.555V36.3196H32.2522V35.8196ZM28.305 36.0696V39.093H28.805V36.0696H28.305ZM28.555 39.343H32.8499V38.843H28.555V39.343ZM32.5999 39.093V40.013H33.0999V39.093H32.5999ZM32.8499 39.763H27.43V40.263H32.8499V39.763ZM27.68 40.013V31.4817H27.18V40.013H27.68ZM27.43 31.7317H32.7913V31.2317H27.43V31.7317ZM32.5413 31.4817V32.4075H33.0413V31.4817H32.5413ZM32.7913 32.1575H28.555V32.6575H32.7913V32.1575ZM28.305 32.4075V35.1497H28.805V32.4075H28.305ZM28.555 35.3997H32.2522V34.8997H28.555V35.3997ZM32.0022 35.1497V36.0696H32.5022V35.1497H32.0022ZM36.7639 36.2102L36.8334 35.9701L36.833 35.97L36.7639 36.2102ZM34.6546 35.1907L34.4845 35.3739L34.4862 35.3755L34.6546 35.1907ZM34.8011 32.0266L34.9593 32.2202L34.9594 32.2201L34.8011 32.0266ZM38.4632 31.7044L38.3521 31.9284L38.3529 31.9287L38.4632 31.7044ZM39.5296 32.6419L39.3178 32.7748L39.3187 32.7762L39.5296 32.6419ZM39.9104 33.9485V34.1985C40.0485 34.1985 40.1604 34.0866 40.1604 33.9485H39.9104ZM38.7796 33.9485H38.5296C38.5296 34.0866 38.6415 34.1985 38.7796 34.1985V33.9485ZM38.2874 32.7356L38.1197 32.921L38.1209 32.9221L38.2874 32.7356ZM35.5979 32.6595L35.7523 32.8561L35.7526 32.8559L35.5979 32.6595ZM35.5745 34.5579L35.4152 34.7506L35.418 34.7529L35.5745 34.5579ZM37.0804 35.2141L37.0126 35.4548L37.0129 35.4549L37.0804 35.2141ZM38.7444 35.8763L38.6146 36.0899L38.617 36.0914L38.7444 35.8763ZM39.635 36.7141L39.4204 36.8424L39.4216 36.8443L39.635 36.7141ZM39.1194 39.5091L39.2717 39.7073L39.2726 39.7066L39.1194 39.5091ZM35.3167 39.7962L35.2148 40.0245L35.2163 40.0251L35.3167 39.7962ZM34.1389 38.8704L33.9341 39.0138L33.9351 39.0151L34.1389 38.8704ZM33.7288 37.5403V37.2903C33.5907 37.2903 33.4788 37.4022 33.4788 37.5403H33.7288ZM34.8596 37.5403H35.1096C35.1096 37.4022 34.9977 37.2903 34.8596 37.2903V37.5403ZM35.428 38.7649L35.2726 38.9607L35.2748 38.9625L35.428 38.7649ZM38.3577 36.8899L38.2031 37.0864L38.2048 37.0877L38.3577 36.8899ZM36.833 35.97C35.8831 35.6969 35.2229 35.3705 34.823 35.0059L34.4862 35.3755C34.9691 35.8156 35.7151 36.1689 36.6949 36.4505L36.833 35.97ZM34.8247 35.0075C34.4378 34.6483 34.2483 34.2145 34.2483 33.6907H33.7483C33.7483 34.3544 33.9963 34.9206 34.4845 35.3739L34.8247 35.0075ZM34.2483 33.6907C34.2483 33.0963 34.4803 32.6118 34.9593 32.2202L34.6428 31.8331C34.0515 32.3165 33.7483 32.9413 33.7483 33.6907H34.2483ZM34.9594 32.2201C35.4441 31.8232 36.0832 31.6145 36.8987 31.6145V31.1145C35.9955 31.1145 35.2361 31.3473 34.6427 31.8332L34.9594 32.2201ZM36.8987 31.6145C37.4519 31.6145 37.9344 31.7213 38.3521 31.9284L38.5742 31.4804C38.0779 31.2343 37.5174 31.1145 36.8987 31.1145V31.6145ZM38.3529 31.9287C38.7761 32.1368 39.0947 32.4192 39.3178 32.7747L39.7413 32.509C39.4644 32.0677 39.0721 31.7251 38.5734 31.48L38.3529 31.9287ZM39.3187 32.7762C39.5471 33.1345 39.6604 33.5234 39.6604 33.9485H40.1604C40.1604 33.4283 40.0199 32.9461 39.7404 32.5075L39.3187 32.7762ZM39.9104 33.6985H38.7796V34.1985H39.9104V33.6985ZM39.0296 33.9485C39.0296 33.3751 38.8444 32.8978 38.4539 32.5491L38.1209 32.9221C38.3866 33.1594 38.5296 33.4906 38.5296 33.9485H39.0296ZM38.4551 32.5502C38.067 32.1991 37.5363 32.0403 36.8987 32.0403V32.5403C37.4564 32.5403 37.8516 32.6784 38.1197 32.921L38.4551 32.5502ZM36.8987 32.0403C36.3097 32.0403 35.8143 32.1708 35.4433 32.463L35.7526 32.8559C36.0065 32.6559 36.3784 32.5403 36.8987 32.5403V32.0403ZM35.4436 32.4628C35.0677 32.7578 34.885 33.172 34.885 33.6731H35.385C35.385 33.3071 35.511 33.0455 35.7523 32.8561L35.4436 32.4628ZM34.885 33.6731C34.885 34.1029 35.0709 34.4659 35.4152 34.7506L35.7338 34.3652C35.4922 34.1655 35.385 33.9387 35.385 33.6731H34.885ZM35.418 34.7529C35.7555 35.0237 36.2976 35.2533 37.0126 35.4548L37.1482 34.9735C36.449 34.7765 35.9873 34.5686 35.731 34.3629L35.418 34.7529ZM37.0129 35.4549C37.7131 35.6511 38.2435 35.8643 38.6146 36.0899L38.8743 35.6626C38.4485 35.4038 37.8695 35.1756 37.1478 34.9734L37.0129 35.4549ZM38.617 36.0914C38.9924 36.3137 39.2552 36.5658 39.4204 36.8424L39.8496 36.5859C39.6321 36.2219 39.3011 35.9154 38.8718 35.6611L38.617 36.0914ZM39.4216 36.8443C39.5895 37.1196 39.678 37.45 39.678 37.845H40.178C40.178 37.3728 40.0712 36.9493 39.8485 36.584L39.4216 36.8443ZM39.678 37.845C39.678 38.4604 39.4432 38.9416 38.9662 39.3115L39.2726 39.7066C39.8737 39.2406 40.178 38.6125 40.178 37.845H39.678ZM38.9671 39.3108C38.4841 39.6818 37.8226 39.8802 36.9573 39.8802V40.3802C37.8967 40.3802 38.6766 40.1645 39.2717 39.7073L38.9671 39.3108ZM36.9573 39.8802C36.4039 39.8802 35.8915 39.7752 35.4171 39.5672L35.2163 40.0251C35.7575 40.2624 36.3388 40.3802 36.9573 40.3802V39.8802ZM35.4185 39.5679C34.9449 39.3566 34.5903 39.0743 34.3428 38.7257L33.9351 39.0151C34.2423 39.4477 34.6728 39.7827 35.2148 40.0245L35.4185 39.5679ZM34.3438 38.727C34.101 38.3802 33.9788 37.9873 33.9788 37.5403H33.4788C33.4788 38.0855 33.63 38.5793 33.9341 39.0138L34.3438 38.727ZM33.7288 37.7903H34.8596V37.2903H33.7288V37.7903ZM34.6096 37.5403C34.6096 38.1264 34.8295 38.609 35.2726 38.9607L35.5834 38.5691C35.2687 38.3192 35.1096 37.9854 35.1096 37.5403H34.6096ZM35.2748 38.9625C35.7135 39.3027 36.2826 39.4602 36.9573 39.4602V38.9602C36.3586 38.9602 35.9081 38.8209 35.5812 38.5674L35.2748 38.9625ZM36.9573 39.4602C37.5803 39.4602 38.0977 39.3339 38.4745 39.0455L38.1706 38.6484C37.9146 38.8444 37.5218 38.9602 36.9573 38.9602V39.4602ZM38.4745 39.0455C38.8561 38.7533 39.0471 38.3481 39.0471 37.8567H38.5471C38.5471 38.2013 38.4217 38.4562 38.1706 38.6484L38.4745 39.0455ZM39.0471 37.8567C39.0471 37.3727 38.8733 36.9726 38.5106 36.6922L38.2048 37.0877C38.4281 37.2604 38.5471 37.5048 38.5471 37.8567H39.0471ZM38.5123 36.6934C38.1785 36.4309 37.6065 36.1938 36.8334 35.9701L36.6945 36.4504C37.4604 36.672 37.9509 36.888 38.2031 37.0864L38.5123 36.6934ZM47.2698 32.4075V32.6575C47.4079 32.6575 47.5198 32.5456 47.5198 32.4075H47.2698ZM44.5276 32.4075V32.1575C44.3895 32.1575 44.2776 32.2694 44.2776 32.4075H44.5276ZM44.5276 40.013V40.263C44.6657 40.263 44.7776 40.151 44.7776 40.013H44.5276ZM43.4085 40.013H43.1585C43.1585 40.151 43.2704 40.263 43.4085 40.263V40.013ZM43.4085 32.4075H43.6585C43.6585 32.2694 43.5465 32.1575 43.4085 32.1575V32.4075ZM40.6721 32.4075H40.4221C40.4221 32.5456 40.5341 32.6575 40.6721 32.6575V32.4075ZM40.6721 31.4817V31.2317C40.5341 31.2317 40.4221 31.3436 40.4221 31.4817H40.6721ZM47.2698 31.4817H47.5198C47.5198 31.3436 47.4079 31.2317 47.2698 31.2317V31.4817ZM47.2698 32.1575H44.5276V32.6575H47.2698V32.1575ZM44.2776 32.4075V40.013H44.7776V32.4075H44.2776ZM44.5276 39.763H43.4085V40.263H44.5276V39.763ZM43.6585 40.013V32.4075H43.1585V40.013H43.6585ZM43.4085 32.1575H40.6721V32.6575H43.4085V32.1575ZM40.9221 32.4075V31.4817H40.4221V32.4075H40.9221ZM40.6721 31.7317H47.2698V31.2317H40.6721V31.7317ZM47.0198 31.4817V32.4075H47.5198V31.4817H47.0198Z" fill="black"/>
<path d="M44.7256 20.4185C46.7835 20.4185 48.4518 18.7502 48.4518 16.6923C48.4518 14.6344 46.7835 12.9661 44.7256 12.9661C42.6677 12.9661 40.9994 14.6344 40.9994 16.6923C40.9994 18.7502 42.6677 20.4185 44.7256 20.4185Z" stroke="black" stroke-width="2" stroke-linecap="round" stroke-linejoin="round"/>
<path d="M44.7256 9.59415C45.3544 9.59415 45.9641 9.67591 46.5447 9.82938M50.8498 13.1014C51.173 13.6514 51.4242 14.2487 51.5905 14.8805L50.8498 13.1014ZM50.8661 20.2552C50.5511 20.797 50.1664 21.2932 49.7244 21.7317L50.8661 20.2552ZM44.7074 23.7904C44.0548 23.7886 43.4229 23.6991 42.823 23.5325L44.7074 23.7904ZM38.5446 20.1847C38.2496 19.6637 38.0186 19.1017 37.8622 18.5094L38.5446 20.1847ZM38.5731 13.1501C38.8889 12.6028 39.2756 12.1016 39.7206 11.659L38.5731 13.1501Z" stroke="black" stroke-width="2" stroke-linecap="round" stroke-linejoin="round"/>
<path d="M50.7941 24.3237C49.3864 25.4445 47.6617 26.184 45.7762 26.386M41.1073 25.7485C39.3785 25.0572 37.894 23.8852 36.8188 22.3978L41.1073 25.7485ZM35.0796 18.1196C35.0113 17.6537 34.9759 17.1771 34.9759 16.6923C34.9759 15.2999 35.2678 13.9757 35.7937 12.7775L35.0796 18.1196ZM38.6664 9.05352C40.0662 7.94169 41.7786 7.2065 43.6504 7.00116L38.6664 9.05352ZM48.263 7.60408C49.9838 8.27437 51.4674 9.41932 52.5528 10.8781L48.263 7.60408ZM54.3657 15.2249C54.4379 15.7035 54.4753 16.1935 54.4753 16.6923C54.4753 18.0856 54.1831 19.4107 53.6565 20.6095L54.3657 15.2249Z" stroke="black" stroke-width="2" stroke-linecap="round" stroke-linejoin="round"/>
<path d="M49.7307 21.7277L50.7939 24.3292M43.6416 7L44.7256 9.58625L43.6416 7Z" stroke="black" stroke-width="2" stroke-linecap="round" stroke-linejoin="round"/>
<path d="M38.674 9.08075L39.727 11.6736L38.674 9.08075ZM44.7075 23.8011L45.7633 26.3856L44.7075 23.8011Z" stroke="black" stroke-width="2" stroke-linecap="round" stroke-linejoin="round"/>
<path d="M42.8408 23.5005L41.1194 25.7221M52.5507 10.8634L50.853 13.0953L52.5507 10.8634Z" stroke="black" stroke-width="2" stroke-linecap="round" stroke-linejoin="round"/>
<path d="M48.265 7.60168L46.546 9.81005L48.265 7.60168ZM38.5336 20.187L36.8232 22.3936L38.5336 20.187Z" stroke="black" stroke-width="2" stroke-linecap="round" stroke-linejoin="round"/>
<path d="M51.5692 14.8709L54.3538 15.2509M35.7701 12.7804L38.5518 13.1348L35.7701 12.7804Z" stroke="black" stroke-width="2" stroke-linecap="round" stroke-linejoin="round"/>
<path d="M35.0882 18.1228L37.8602 18.5073L35.0882 18.1228ZM50.8532 20.2578L53.6193 20.6357L50.8532 20.2578Z" stroke="black" stroke-width="2" stroke-linecap="round" stroke-linejoin="round"/>
<defs>
<filter id="filter0_f" x="0.143368" y="3.77107" width="40.2965" height="45.9809" filterUnits="userSpaceOnUse" color-interpolation-filters="sRGB">
<feFlood flood-opacity="0" result="BackgroundImageFix"/>
<feBlend mode="normal" in="SourceGraphic" in2="BackgroundImageFix" result="shape"/>
<feGaussianBlur stdDeviation="1.92835" result="effect1_foregroundBlur"/>
</filter>
<filter id="filter1_f" x="43.9668" y="15.3325" width="22.0335" height="34.0431" filterUnits="userSpaceOnUse" color-interpolation-filters="sRGB">
<feFlood flood-opacity="0" result="BackgroundImageFix"/>
<feBlend mode="normal" in="SourceGraphic" in2="BackgroundImageFix" result="shape"/>
<feGaussianBlur stdDeviation="1.92835" result="effect1_foregroundBlur"/>
</filter>
<filter id="filter2_f" x="16.8218" y="39.2425" width="29.3369" height="18.9531" filterUnits="userSpaceOnUse" color-interpolation-filters="sRGB">
<feFlood flood-opacity="0" result="BackgroundImageFix"/>
<feBlend mode="normal" in="SourceGraphic" in2="BackgroundImageFix" result="shape"/>
<feGaussianBlur stdDeviation="1.5" result="effect1_foregroundBlur"/>
</filter>
<filter id="filter3_f" x="15.4289" y="26.8645" width="36.2402" height="17.7656" filterUnits="userSpaceOnUse" color-interpolation-filters="sRGB">
<feFlood flood-opacity="0" result="BackgroundImageFix"/>
<feBlend mode="normal" in="SourceGraphic" in2="BackgroundImageFix" result="shape"/>
<feGaussianBlur stdDeviation="1.5" result="effect1_foregroundBlur"/>
</filter>
<filter id="filter4_f" x="34.1428" y="6.10997" width="21.1658" height="21.1658" filterUnits="userSpaceOnUse" color-interpolation-filters="sRGB">
<feFlood flood-opacity="0" result="BackgroundImageFix"/>
<feBlend mode="normal" in="SourceGraphic" in2="BackgroundImageFix" result="shape"/>
<feGaussianBlur stdDeviation="1.92835" result="effect1_foregroundBlur"/>
</filter>
<filter id="filter5_f" x="31.005" y="2.73802" width="27.4429" height="27.9097" filterUnits="userSpaceOnUse" color-interpolation-filters="sRGB">
<feFlood flood-opacity="0" result="BackgroundImageFix"/>
<feBlend mode="normal" in="SourceGraphic" in2="BackgroundImageFix" result="shape"/>
<feGaussianBlur stdDeviation="1.92835" result="effect1_foregroundBlur"/>
</filter>
<filter id="filter6_f" x="28.1193" y="0.144909" width="33.2129" height="33.0987" filterUnits="userSpaceOnUse" color-interpolation-filters="sRGB">
<feFlood flood-opacity="0" result="BackgroundImageFix"/>
<feBlend mode="normal" in="SourceGraphic" in2="BackgroundImageFix" result="shape"/>
<feGaussianBlur stdDeviation="1.92835" result="effect1_foregroundBlur"/>
</filter>
<filter id="filter7_f" x="36.7842" y="0.143139" width="20.8673" height="31.0442" filterUnits="userSpaceOnUse" color-interpolation-filters="sRGB">
<feFlood flood-opacity="0" result="BackgroundImageFix"/>
<feBlend mode="normal" in="SourceGraphic" in2="BackgroundImageFix" result="shape"/>
<feGaussianBlur stdDeviation="1.92835" result="effect1_foregroundBlur"/>
</filter>
<filter id="filter8_f" x="31.8166" y="2.22383" width="20.8043" height="31.0198" filterUnits="userSpaceOnUse" color-interpolation-filters="sRGB">
<feFlood flood-opacity="0" result="BackgroundImageFix"/>
<feBlend mode="normal" in="SourceGraphic" in2="BackgroundImageFix" result="shape"/>
<feGaussianBlur stdDeviation="1.92835" result="effect1_foregroundBlur"/>
</filter>
<filter id="filter9_f" x="34.2626" y="4.00712" width="25.1451" height="28.5724" filterUnits="userSpaceOnUse" color-interpolation-filters="sRGB">
<feFlood flood-opacity="0" result="BackgroundImageFix"/>
<feBlend mode="normal" in="SourceGraphic" in2="BackgroundImageFix" result="shape"/>
<feGaussianBlur stdDeviation="1.92835" result="effect1_foregroundBlur"/>
</filter>
<filter id="filter10_f" x="29.9665" y="0.745495" width="25.1554" height="28.5056" filterUnits="userSpaceOnUse" color-interpolation-filters="sRGB">
<feFlood flood-opacity="0" result="BackgroundImageFix"/>
<feBlend mode="normal" in="SourceGraphic" in2="BackgroundImageFix" result="shape"/>
<feGaussianBlur stdDeviation="1.92835" result="effect1_foregroundBlur"/>
</filter>
<filter id="filter11_f" x="28.9131" y="5.92399" width="32.2978" height="16.1846" filterUnits="userSpaceOnUse" color-interpolation-filters="sRGB">
<feFlood flood-opacity="0" result="BackgroundImageFix"/>
<feBlend mode="normal" in="SourceGraphic" in2="BackgroundImageFix" result="shape"/>
<feGaussianBlur stdDeviation="1.92835" result="effect1_foregroundBlur"/>
</filter>
<filter id="filter12_f" x="28.2312" y="11.2663" width="32.2452" height="16.227" filterUnits="userSpaceOnUse" color-interpolation-filters="sRGB">
<feFlood flood-opacity="0" result="BackgroundImageFix"/>
<feBlend mode="normal" in="SourceGraphic" in2="BackgroundImageFix" result="shape"/>
<feGaussianBlur stdDeviation="1.92835" result="effect1_foregroundBlur"/>
</filter>
</defs>
</svg>
