<svg width="51" height="62" viewBox="0 0 51 62" fill="none" xmlns="http://www.w3.org/2000/svg">
<g filter="url(#filter0_f)">
<path d="M6 21.3846L32.9231 6L38.6923 9.84616M6 21.3846L11.7692 25.2308M6 21.3846V28.1154M38.6923 9.84616L11.7692 25.2308M38.6923 9.84616V16.5769M11.7692 25.2308V31.9615M6 28.1154L11.7692 31.9615M6 28.1154V34.8462M11.7692 31.9615L29.0769 22.0577M11.7692 31.9615L38.6923 16.5769M11.7692 31.9615V38.6923M38.6923 16.5769L44.4615 20.4231V33.8846M38.6923 16.5769V23.3077M38.6923 16.5769L29.0769 22.0577M38.6923 23.3077L44.4615 27.1538M38.6923 23.3077V30.0385M38.6923 23.3077L11.7692 38.6923M11.7692 52.1538L17.5385 56L44.4615 40.6154M11.7692 52.1538L38.6923 36.7692M11.7692 52.1538V45.4231M44.4615 40.6154L38.6923 36.7692M44.4615 40.6154V33.8846M38.6923 36.7692V30.0385M44.4615 33.8846L38.6923 30.0385M38.6923 30.0385L11.7692 45.4231M38.6923 30.0385L21.3846 39.9423M29.0769 22.0577V28.7885M11.7692 38.6923L6 34.8462M11.7692 38.6923V45.4231M6 34.8462V41.5769L11.7692 45.4231M11.7692 45.4231L21.3846 39.9423M21.3846 39.9423V33.2115" stroke="#F0FF4C" stroke-opacity="0.8" stroke-width="6" stroke-linecap="round" stroke-linejoin="round"/>
</g>
<path d="M6 21.3846L32.9231 6L38.6923 9.84615M6 21.3846L11.7692 25.2308M6 21.3846V28.1154M38.6923 9.84615L11.7692 25.2308M38.6923 9.84615V16.5769M11.7692 25.2308V31.9615M6 28.1154L11.7692 31.9615M6 28.1154V34.8462M11.7692 31.9615L29.0769 22.0577M11.7692 31.9615L38.6923 16.5769M11.7692 31.9615V38.6923M38.6923 16.5769L44.4615 20.4231V33.8846M38.6923 16.5769V23.3077M38.6923 16.5769L29.0769 22.0577M38.6923 23.3077L44.4615 27.1538M38.6923 23.3077V30.0385M38.6923 23.3077L11.7692 38.6923M11.7692 52.1538L17.5385 56L44.4615 40.6154M11.7692 52.1538L38.6923 36.7692M11.7692 52.1538V45.4231M44.4615 40.6154L38.6923 36.7692M44.4615 40.6154V33.8846M38.6923 36.7692V30.0385M44.4615 33.8846L38.6923 30.0385M38.6923 30.0385L11.7692 45.4231M38.6923 30.0385L21.3846 39.9423M29.0769 22.0577V28.7885M11.7692 38.6923L6 34.8462M11.7692 38.6923V45.4231M6 34.8462V41.5769L11.7692 45.4231M11.7692 45.4231L21.3846 39.9423M21.3846 39.9423V33.2115" stroke="#EAFF00" stroke-width="4" stroke-linecap="round" stroke-linejoin="round"/>
<path d="M6 21.3846L32.9231 6L38.6923 9.84615M6 21.3846L11.7692 25.2308M6 21.3846V28.1154M38.6923 9.84615L11.7692 25.2308M38.6923 9.84615V16.5769M11.7692 25.2308V31.9615M6 28.1154L11.7692 31.9615M6 28.1154V34.8462M11.7692 31.9615L29.0769 22.0577M11.7692 31.9615L38.6923 16.5769M11.7692 31.9615V38.6923M38.6923 16.5769L44.4615 20.4231V33.8846M38.6923 16.5769V23.3077M38.6923 16.5769L29.0769 22.0577M38.6923 23.3077L44.4615 27.1538M38.6923 23.3077V30.0385M38.6923 23.3077L11.7692 38.6923M11.7692 52.1538L17.5385 56L44.4615 40.6154M11.7692 52.1538L38.6923 36.7692M11.7692 52.1538V45.4231M44.4615 40.6154L38.6923 36.7692M44.4615 40.6154V33.8846M38.6923 36.7692V30.0385M44.4615 33.8846L38.6923 30.0385M38.6923 30.0385L11.7692 45.4231M38.6923 30.0385L21.3846 39.9423M29.0769 22.0577V28.7885M11.7692 38.6923L6 34.8462M11.7692 38.6923V45.4231M6 34.8462V41.5769L11.7692 45.4231M11.7692 45.4231L21.3846 39.9423M21.3846 39.9423V33.2115" stroke="black" stroke-width="2" stroke-linecap="round" stroke-linejoin="round"/>
<defs>
<filter id="filter0_f" x="0.261563" y="0.261563" width="49.9387" height="61.4769" filterUnits="userSpaceOnUse" color-interpolation-filters="sRGB">
<feFlood flood-opacity="0" result="BackgroundImageFix"/>
<feBlend mode="normal" in="SourceGraphic" in2="BackgroundImageFix" result="shape"/>
<feGaussianBlur stdDeviation="1.36922" result="effect1_foregroundBlur"/>
</filter>
</defs>
</svg>
