<svg width="67" height="64" viewBox="0 0 67 64" fill="none" xmlns="http://www.w3.org/2000/svg">
<g filter="url(#filter0_f)">
<path d="M30.3855 27.6949C31.7069 27.6949 32.7781 26.6237 32.7781 25.3023C32.7781 23.9809 31.7069 22.9097 30.3855 22.9097C29.0641 22.9097 27.9929 23.9809 27.9929 25.3023C27.9929 26.6237 29.0641 27.6949 30.3855 27.6949Z" stroke="#F0FF4C" stroke-opacity="0.8" stroke-width="6" stroke-linecap="round" stroke-linejoin="round"/>
</g>
<g filter="url(#filter1_f)">
<path d="M43.8751 41.3669C45.1965 41.3669 46.2677 40.2957 46.2677 38.9743C46.2677 37.6529 45.1965 36.5817 43.8751 36.5817C42.5538 36.5817 41.4825 37.6529 41.4825 38.9743C41.4825 40.2957 42.5538 41.3669 43.8751 41.3669Z" stroke="#F0FF4C" stroke-opacity="0.8" stroke-width="6" stroke-linecap="round" stroke-linejoin="round"/>
</g>
<g filter="url(#filter2_f)">
<path d="M25.3725 46.1977C26.6939 46.1977 27.7651 45.1265 27.7651 43.8051C27.7651 42.4837 26.6939 41.4125 25.3725 41.4125C24.0511 41.4125 22.9799 42.4837 22.9799 43.8051C22.9799 45.1265 24.0511 46.1977 25.3725 46.1977Z" stroke="#F0FF4C" stroke-opacity="0.8" stroke-width="6" stroke-linecap="round" stroke-linejoin="round"/>
</g>
<g filter="url(#filter3_f)">
<path d="M30.3855 25.3023C34.0314 25.2111 39.5002 25.1457 43.146 26.1226C46.8831 27.1252 49.7798 28.6515 52.6253 30.8622C55.1774 33.0498 57.0003 34.6904 58.8233 38.792C59.6436 40.6149 60.1905 43.0759 59.8259 46.3572C59.5524 48.4535 59.1879 49.2739 57.9118 51.0057C56.3623 52.8286 55.2046 53.6352 53.081 54.7427C50.9961 55.7106 49.1617 55.9276 47.2476 55.9276C43.7841 55.7453 41.814 55.0907 39.409 54.1046" stroke="#F0FF4C" stroke-opacity="0.8" stroke-width="6" stroke-linecap="round" stroke-linejoin="round"/>
</g>
<g filter="url(#filter4_f)">
<path d="M43.8752 38.9743C42.1312 42.1773 39.4535 46.9461 36.7845 49.6151C34.0477 52.3501 31.2775 54.0957 27.9402 55.4545C24.7697 56.571 22.4374 57.3294 17.9739 56.8573C15.985 56.6562 13.5803 55.8994 10.9209 53.943C9.24214 52.658 8.71401 51.9321 7.85226 49.9611C7.04831 47.7077 6.92857 46.3018 7.0313 43.909C7.2355 41.6195 7.9648 39.9223 8.92184 38.2647C10.8115 35.3563 12.3634 33.9775 14.4199 32.3877" stroke="#F0FF4C" stroke-opacity="0.8" stroke-width="6" stroke-linecap="round" stroke-linejoin="round"/>
</g>
<g filter="url(#filter5_f)">
<path d="M25.3724 43.8051C23.4706 40.6932 20.6795 35.9898 19.7026 32.3439C18.7024 28.6063 18.5758 25.3345 19.0676 21.7649C19.686 18.4609 20.1954 16.0619 22.836 12.4324C24.0045 10.8105 25.8623 9.10638 28.8863 7.78149C30.8385 6.9701 31.7313 6.87569 33.8691 7.11489C36.2225 7.54532 37.4999 8.14457 39.5208 9.42996C41.4015 10.7516 42.5066 12.2317 43.4636 13.8894C45.0376 16.9801 45.4557 19.0134 45.8042 21.5893" stroke="#F0FF4C" stroke-opacity="0.8" stroke-width="6" stroke-linecap="round" stroke-linejoin="round"/>
</g>
<path d="M30.3855 27.6949C31.7069 27.6949 32.7781 26.6237 32.7781 25.3023C32.7781 23.9809 31.7069 22.9097 30.3855 22.9097C29.0641 22.9097 27.9929 23.9809 27.9929 25.3023C27.9929 26.6237 29.0641 27.6949 30.3855 27.6949Z" stroke="#EAFF00" stroke-width="4" stroke-linecap="round" stroke-linejoin="round"/>
<path d="M43.8751 41.3669C45.1965 41.3669 46.2677 40.2957 46.2677 38.9743C46.2677 37.6529 45.1965 36.5817 43.8751 36.5817C42.5538 36.5817 41.4825 37.6529 41.4825 38.9743C41.4825 40.2957 42.5538 41.3669 43.8751 41.3669Z" stroke="#EAFF00" stroke-width="4" stroke-linecap="round" stroke-linejoin="round"/>
<path d="M25.3725 46.1977C26.6939 46.1977 27.7651 45.1265 27.7651 43.8051C27.7651 42.4837 26.6939 41.4125 25.3725 41.4125C24.0511 41.4125 22.9799 42.4837 22.9799 43.8051C22.9799 45.1265 24.0511 46.1977 25.3725 46.1977Z" stroke="#EAFF00" stroke-width="4" stroke-linecap="round" stroke-linejoin="round"/>
<path d="M30.3855 25.3023C34.0314 25.2111 39.5002 25.1457 43.146 26.1226C46.8831 27.1252 49.7798 28.6515 52.6253 30.8622C55.1774 33.0498 57.0003 34.6904 58.8233 38.792C59.6436 40.6149 60.1905 43.0759 59.8259 46.3572C59.5524 48.4535 59.1879 49.2739 57.9118 51.0057C56.3623 52.8286 55.2046 53.6352 53.081 54.7427C50.9961 55.7106 49.1617 55.9276 47.2476 55.9276C43.7841 55.7453 41.814 55.0907 39.409 54.1046" stroke="#EAFF00" stroke-width="4" stroke-linecap="round" stroke-linejoin="round"/>
<path d="M43.8752 38.9743C42.1312 42.1773 39.4535 46.9461 36.7845 49.6151C34.0477 52.3501 31.2775 54.0957 27.9402 55.4545C24.7697 56.571 22.4374 57.3294 17.9739 56.8573C15.985 56.6562 13.5803 55.8994 10.9209 53.943C9.24214 52.658 8.71401 51.9321 7.85226 49.9611C7.04831 47.7077 6.92857 46.3018 7.0313 43.909C7.2355 41.6195 7.9648 39.9223 8.92184 38.2647C10.8115 35.3563 12.3634 33.9775 14.4199 32.3877" stroke="#EAFF00" stroke-width="4" stroke-linecap="round" stroke-linejoin="round"/>
<path d="M25.3724 43.8051C23.4706 40.6932 20.6795 35.9898 19.7026 32.3439C18.7024 28.6063 18.5758 25.3345 19.0676 21.7649C19.686 18.4609 20.1954 16.0619 22.836 12.4324C24.0045 10.8105 25.8623 9.10638 28.8863 7.78149C30.8385 6.9701 31.7313 6.87569 33.8691 7.11489C36.2225 7.54532 37.4999 8.14457 39.5208 9.42996C41.4015 10.7516 42.5066 12.2317 43.4636 13.8894C45.0376 16.9801 45.4557 19.0134 45.8042 21.5893" stroke="#EAFF00" stroke-width="4" stroke-linecap="round" stroke-linejoin="round"/>
<path d="M30.3855 27.6949C31.7069 27.6949 32.7781 26.6237 32.7781 25.3023C32.7781 23.9809 31.7069 22.9097 30.3855 22.9097C29.0641 22.9097 27.9929 23.9809 27.9929 25.3023C27.9929 26.6237 29.0641 27.6949 30.3855 27.6949Z" fill="black" stroke="black" stroke-width="2" stroke-linecap="round" stroke-linejoin="round"/>
<path d="M43.8751 41.3669C45.1965 41.3669 46.2677 40.2957 46.2677 38.9743C46.2677 37.6529 45.1965 36.5817 43.8751 36.5817C42.5537 36.5817 41.4825 37.6529 41.4825 38.9743C41.4825 40.2957 42.5537 41.3669 43.8751 41.3669Z" fill="black" stroke="black" stroke-width="2" stroke-linecap="round" stroke-linejoin="round"/>
<path d="M25.3725 46.1977C26.6939 46.1977 27.7651 45.1265 27.7651 43.8051C27.7651 42.4837 26.6939 41.4125 25.3725 41.4125C24.0511 41.4125 22.9799 42.4837 22.9799 43.8051C22.9799 45.1265 24.0511 46.1977 25.3725 46.1977Z" fill="black" stroke="black" stroke-width="2" stroke-linecap="round" stroke-linejoin="round"/>
<path d="M30.3855 25.3023C34.0314 25.2111 39.5002 25.1457 43.146 26.1226C46.8831 27.1252 49.7798 28.6515 52.6253 30.8622C55.1774 33.0497 57.0003 34.6904 58.8233 38.792C59.6436 40.6149 60.1905 43.0759 59.8259 46.3572C59.5524 48.4535 59.1879 49.2739 57.9118 51.0057C56.3623 52.8286 55.2046 53.6352 53.081 54.7427C50.9961 55.7106 49.1617 55.9276 47.2476 55.9276C43.7841 55.7453 41.814 55.0907 39.409 54.1046" stroke="black" stroke-width="2" stroke-linecap="round" stroke-linejoin="round"/>
<path d="M43.8752 38.9743C42.1312 42.1773 39.4535 46.9461 36.7845 49.6151C34.0477 52.3501 31.2775 54.0957 27.9402 55.4545C24.7697 56.571 22.4374 57.3294 17.9739 56.8573C15.985 56.6562 13.5803 55.8994 10.9209 53.943C9.24214 52.658 8.71401 51.9321 7.85226 49.9611C7.04831 47.7077 6.92857 46.3018 7.0313 43.909C7.2355 41.6195 7.9648 39.9223 8.92184 38.2647C10.8115 35.3563 12.3634 33.9775 14.4199 32.3877" stroke="black" stroke-width="2" stroke-linecap="round" stroke-linejoin="round"/>
<path d="M25.3724 43.8051C23.4706 40.6932 20.6795 35.9898 19.7026 32.3439C18.7024 28.6063 18.5758 25.3345 19.0676 21.7649C19.686 18.4609 20.1954 16.0619 22.836 12.4324C24.0045 10.8105 25.8623 9.10638 28.8863 7.78149C30.8385 6.9701 31.7313 6.87569 33.8691 7.11489C36.2225 7.54532 37.4999 8.14457 39.5208 9.42996C41.4015 10.7516 42.5066 12.2317 43.4636 13.8894C45.0376 16.9801 45.4557 19.0134 45.8042 21.5893" stroke="black" stroke-width="2" stroke-linecap="round" stroke-linejoin="round"/>
<defs>
<filter id="filter0_f" x="21.6312" y="16.5479" width="17.5086" height="17.5087" filterUnits="userSpaceOnUse" color-interpolation-filters="sRGB">
<feFlood flood-opacity="0" result="BackgroundImageFix"/>
<feBlend mode="normal" in="SourceGraphic" in2="BackgroundImageFix" result="shape"/>
<feGaussianBlur stdDeviation="1.68086" result="effect1_foregroundBlur_301:19"/>
</filter>
<filter id="filter1_f" x="35.1208" y="30.22" width="17.5086" height="17.5087" filterUnits="userSpaceOnUse" color-interpolation-filters="sRGB">
<feFlood flood-opacity="0" result="BackgroundImageFix"/>
<feBlend mode="normal" in="SourceGraphic" in2="BackgroundImageFix" result="shape"/>
<feGaussianBlur stdDeviation="1.68086" result="effect1_foregroundBlur_301:19"/>
</filter>
<filter id="filter2_f" x="16.6181" y="35.0507" width="17.5086" height="17.5087" filterUnits="userSpaceOnUse" color-interpolation-filters="sRGB">
<feFlood flood-opacity="0" result="BackgroundImageFix"/>
<feBlend mode="normal" in="SourceGraphic" in2="BackgroundImageFix" result="shape"/>
<feGaussianBlur stdDeviation="1.68086" result="effect1_foregroundBlur_301:19"/>
</filter>
<filter id="filter3_f" x="24.0238" y="18.8912" width="42.2789" height="43.3981" filterUnits="userSpaceOnUse" color-interpolation-filters="sRGB">
<feFlood flood-opacity="0" result="BackgroundImageFix"/>
<feBlend mode="normal" in="SourceGraphic" in2="BackgroundImageFix" result="shape"/>
<feGaussianBlur stdDeviation="1.68086" result="effect1_foregroundBlur_301:19"/>
</filter>
<filter id="filter4_f" x="0.638641" y="26.0258" width="49.5988" height="37.3352" filterUnits="userSpaceOnUse" color-interpolation-filters="sRGB">
<feFlood flood-opacity="0" result="BackgroundImageFix"/>
<feBlend mode="normal" in="SourceGraphic" in2="BackgroundImageFix" result="shape"/>
<feGaussianBlur stdDeviation="1.68086" result="effect1_foregroundBlur_301:19"/>
</filter>
<filter id="filter5_f" x="12.4268" y="0.638392" width="39.7394" height="49.5288" filterUnits="userSpaceOnUse" color-interpolation-filters="sRGB">
<feFlood flood-opacity="0" result="BackgroundImageFix"/>
<feBlend mode="normal" in="SourceGraphic" in2="BackgroundImageFix" result="shape"/>
<feGaussianBlur stdDeviation="1.68086" result="effect1_foregroundBlur_301:19"/>
</filter>
</defs>
</svg>
