<svg width="50" height="46" viewBox="0 0 50 46" fill="none" xmlns="http://www.w3.org/2000/svg">
<g filter="url(#filter0_f)">
<path d="M8 22.1176L41.3824 8L35.5 38L26.5294 31.0882L23.2941 28.5882L26.5294 31.0882L21.2353 35.7941L23.2941 28.5882L36.5294 13.2941L18.1471 25.6471L21.2353 35.7941L18.1471 25.6471L8 22.1176Z" stroke="#FF80C0" stroke-opacity="0.8" stroke-width="6" stroke-linecap="round" stroke-linejoin="round"/>
</g>
<path d="M8 22.1176L41.3824 8L35.5 38L26.5294 31.0882L23.2941 28.5882L26.5294 31.0882L21.2353 35.7941L23.2941 28.5882L36.5294 13.2941L18.1471 25.6471L21.2353 35.7941L18.1471 25.6471L8 22.1176Z" stroke="#FF4CA5" stroke-width="4" stroke-linecap="round" stroke-linejoin="round"/>
<path d="M8 22.1176L41.3824 8L35.5 38L26.5294 31.0882L23.2941 28.5882L26.5294 31.0882L21.2353 35.7941L23.2941 28.5882L36.5294 13.2941L18.1471 25.6471L21.2353 35.7941L18.1471 25.6471L8 22.1176Z" stroke="black" stroke-width="2" stroke-linecap="round" stroke-linejoin="round"/>
<defs>
<filter id="filter0_f" x="0.151235" y="0.151219" width="49.0799" height="45.6976" filterUnits="userSpaceOnUse" color-interpolation-filters="sRGB">
<feFlood flood-opacity="0" result="BackgroundImageFix"/>
<feBlend mode="normal" in="SourceGraphic" in2="BackgroundImageFix" result="shape"/>
<feGaussianBlur stdDeviation="2.42438" result="effect1_foregroundBlur"/>
</filter>
</defs>
</svg>
