<svg width="94" height="66" viewBox="0 0 94 66" fill="none" xmlns="http://www.w3.org/2000/svg">
<g filter="url(#filter0_f)">
<path d="M8 33H50.8571C50.8501 18.7117 39.4813 8 29.4286 8C17.8214 8 8 18.7143 8 33C8 47.2857 17.8214 58 29.4286 58C41.0357 58 47.2857 48.1786 49.4286 41.9286" stroke="#F0FF4C" stroke-opacity="0.8" stroke-width="6"/>
</g>
<g filter="url(#filter1_f)">
<path d="M50.8571 8L86.5714 58" stroke="#F0FF4C" stroke-opacity="0.8" stroke-width="6"/>
</g>
<g filter="url(#filter2_f)">
<path d="M50.8571 58L86.5714 8" stroke="#F0FF4C" stroke-opacity="0.8" stroke-width="6"/>
</g>
<path d="M8 33H50.8571C50.8501 18.7117 39.4813 8 29.4286 8C17.8214 8 8 18.7143 8 33C8 47.2857 17.8214 58 29.4286 58C41.0357 58 47.2857 48.1786 49.4286 41.9286" stroke="#EAFF00" stroke-width="4"/>
<path d="M50.8571 8L86.5714 58" stroke="#EAFF00" stroke-width="4"/>
<path d="M50.8571 58L86.5714 8" stroke="#EAFF00" stroke-width="4"/>
<path d="M8 33H50.8571C50.8501 18.7117 39.4813 8 29.4286 8C17.8214 8 8 18.7143 8 33C8 47.2857 17.8214 58 29.4286 58C41.0357 58 47.2857 48.1786 49.4286 41.9286" stroke="black" stroke-width="2"/>
<path d="M50.8571 8L86.5714 58" stroke="black" stroke-width="2"/>
<path d="M50.8571 58L86.5714 8" stroke="black" stroke-width="2"/>
<defs>
<filter id="filter0_f" x="0.71375" y="0.71375" width="57.4311" height="64.5725" filterUnits="userSpaceOnUse" color-interpolation-filters="sRGB">
<feFlood flood-opacity="0" result="BackgroundImageFix"/>
<feBlend mode="normal" in="SourceGraphic" in2="BackgroundImageFix" result="shape"/>
<feGaussianBlur stdDeviation="2.14312" result="effect1_foregroundBlur"/>
</filter>
<filter id="filter1_f" x="44.1296" y="1.97004" width="49.1692" height="62.0599" filterUnits="userSpaceOnUse" color-interpolation-filters="sRGB">
<feFlood flood-opacity="0" result="BackgroundImageFix"/>
<feBlend mode="normal" in="SourceGraphic" in2="BackgroundImageFix" result="shape"/>
<feGaussianBlur stdDeviation="2.14312" result="effect1_foregroundBlur"/>
</filter>
<filter id="filter2_f" x="44.1296" y="1.97004" width="49.1692" height="62.0599" filterUnits="userSpaceOnUse" color-interpolation-filters="sRGB">
<feFlood flood-opacity="0" result="BackgroundImageFix"/>
<feBlend mode="normal" in="SourceGraphic" in2="BackgroundImageFix" result="shape"/>
<feGaussianBlur stdDeviation="2.14312" result="effect1_foregroundBlur"/>
</filter>
</defs>
</svg>
