<svg width="64" height="64" viewBox="0 0 64 64" fill="none" xmlns="http://www.w3.org/2000/svg">
<g filter="url(#filter0_f)">
<path d="M32.0023 57C45.8082 57 57 45.8082 57 32.0023C57 18.1965 45.8082 7.00463 32.0023 7.00463C18.1965 7.00463 7.00464 18.1965 7.00464 32.0023C7.00464 45.8082 18.1965 57 32.0023 57Z" stroke="#F0FF4C" stroke-opacity="0.8" stroke-width="6" stroke-linecap="round" stroke-linejoin="round"/>
</g>
<g filter="url(#filter1_f)">
<path d="M20.2512 44.5868C19.4657 44.6469 19.323 43.3919 19.0011 42.5033C18.8257 41.7057 18.736 40.8635 19.0011 39.8364C19.2316 39.254 19.4178 38.8363 19.8345 38.1696C20.1679 37.6695 20.3921 37.3981 20.7513 37.0028C20.7833 35.622 20.8346 34.2525 21.168 33.3358C21.5563 32.1985 21.9883 31.1567 22.9181 30.1688L24.5016 28.4187C23.9507 27.6343 23.5024 26.7784 23.4182 25.6684C23.4141 24.6888 23.5524 24.0958 23.7516 23.6682C24.187 22.6986 24.4231 22.358 24.585 22.2514C24.9797 22.0926 25.3472 21.9274 25.6684 21.7514C26.8529 20.5267 27.6686 20.0846 28.4187 19.7512C29.2207 19.3923 30.0809 19.1951 31.0022 19.1678C31.3392 18.2058 31.7068 17.5825 32.0857 17.0843C32.6837 16.3106 33.2062 15.9805 33.6691 16.0008C34.5025 16.0008 35.2794 17.0911 36.0027 18.8344C36.9078 18.4604 37.2109 18.5679 37.4195 18.7511C38.3068 19.6692 38.5029 21.418 38.6696 23.0015C38.691 24.8625 38.6186 26.8834 37.7529 28.752L35.9193 31.919C37.105 33.2107 38.2665 34.746 38.7529 36.8361C39.1268 38.1594 39.007 39.5 39.003 40.8365C40.5052 40.8407 41.8464 39.5806 43.2534 38.8363C44.496 38.2158 46.837 37.4195 47.8371 38.5029C48.6705 39.253 48.6751 40.1048 48.2538 40.9198C48.0038 41.3365 47.3324 41.814 45.9203 42.1699C44.8356 42.3696 43.5367 43.21 42.1699 44.2535C40.6698 45.2536 38.3158 46.3191 36.6694 46.6704C36.1086 47.1546 35.4193 47.2537 34.5859 47.3371L29.9188 47.8371C28.3353 48.0038 26.7628 48.0673 26.0851 47.4204C25.7098 47.0817 25.4202 46.6896 25.335 46.1703L26.1684 44.0034L25.335 46.1703C25.0925 46.6357 24.7788 47.0471 24.0849 47.1704C23.0086 47.3487 22.0847 47.2537 21.3347 46.9204C20.7907 46.5902 20.1679 46.1703 20.1679 45.6703L20.2512 44.5868" stroke="#F0FF4C" stroke-opacity="0.8" stroke-width="6"/>
</g>
<path d="M32.0023 57C45.8082 57 57 45.8082 57 32.0023C57 18.1965 45.8082 7.00463 32.0023 7.00463C18.1965 7.00463 7.00464 18.1965 7.00464 32.0023C7.00464 45.8082 18.1965 57 32.0023 57Z" stroke="#EAFF00" stroke-width="4" stroke-linecap="round" stroke-linejoin="round"/>
<path d="M20.2512 44.5868C19.4657 44.6469 19.323 43.3919 19.0011 42.5033C18.8257 41.7057 18.736 40.8634 19.0011 39.8364C19.2316 39.254 19.4178 38.8363 19.8345 38.1696C20.1679 37.6695 20.3921 37.3981 20.7513 37.0028C20.7833 35.622 20.8346 34.2525 21.168 33.3358C21.5563 32.1985 21.9883 31.1567 22.9181 30.1688L24.5016 28.4187C23.9507 27.6343 23.5024 26.7784 23.4182 25.6684C23.4141 24.6888 23.5524 24.0958 23.7516 23.6682C24.187 22.6986 24.4231 22.358 24.585 22.2514C24.9797 22.0926 25.3472 21.9274 25.6684 21.7514C26.8529 20.5266 27.6686 20.0845 28.4187 19.7512C29.2207 19.3923 30.0809 19.1951 31.0022 19.1678C31.3392 18.2058 31.7068 17.5825 32.0857 17.0843C32.6837 16.3106 33.2062 15.9804 33.6691 16.0008C34.5025 16.0008 35.2794 17.0911 36.0027 18.8344C36.9078 18.4603 37.2109 18.5679 37.4195 18.7511C38.3068 19.6692 38.5029 21.418 38.6696 23.0015C38.691 24.8625 38.6186 26.8834 37.7529 28.752L35.9193 31.919C37.105 33.2107 38.2665 34.746 38.7529 36.8361C39.1268 38.1593 39.007 39.4999 39.003 40.8365C40.5052 40.8407 41.8464 39.5806 43.2534 38.8363C44.496 38.2158 46.837 37.4195 47.8371 38.5029C48.6705 39.253 48.6751 40.1048 48.2538 40.9198C48.0038 41.3365 47.3324 41.814 45.9203 42.1699C44.8356 42.3696 43.5367 43.21 42.1699 44.2535C40.6698 45.2535 38.3158 46.3191 36.6694 46.6703C36.1086 47.1546 35.4193 47.2537 34.5859 47.3371L29.9188 47.8371C28.3353 48.0038 26.7628 48.0672 26.0851 47.4204C25.7098 47.0817 25.4202 46.6896 25.335 46.1703L26.1684 44.0034L25.335 46.1703C25.0925 46.6357 24.7788 47.0471 24.0849 47.1704C23.0086 47.3487 22.0847 47.2537 21.3347 46.9204C20.7906 46.5902 20.1679 46.1703 20.1679 45.6703L20.2512 44.5868" stroke="#EAFF00" stroke-width="4"/>
<path d="M31.9977 56.9954C45.8035 56.9954 56.9954 45.8035 56.9954 31.9977C56.9954 18.1918 45.8035 7 31.9977 7C18.1918 7 7 18.1918 7 31.9977C7 45.8035 18.1918 56.9954 31.9977 56.9954Z" stroke="black" stroke-width="2" stroke-linecap="round" stroke-linejoin="round"/>
<path d="M20.2466 44.5822C19.4611 44.6423 19.3183 43.3872 18.9965 42.4987C18.8211 41.701 18.7313 40.8588 18.9965 39.8317C19.227 39.2493 19.4132 38.8317 19.8299 38.1649C20.1632 37.6649 20.3875 37.3935 20.7466 36.9981C20.7787 35.6173 20.83 34.2479 21.1633 33.3311C21.5517 32.1939 21.9837 31.152 22.9135 30.1642L24.497 28.414C23.9461 27.6297 23.4978 26.7737 23.4135 25.6638C23.4095 24.6841 23.5478 24.0912 23.7469 23.6636C24.1824 22.6939 24.4184 22.3533 24.5803 22.2468C24.9751 22.088 25.3426 21.9228 25.6638 21.7467C26.8483 20.522 27.6639 20.0799 28.414 19.7465C29.2161 19.3877 30.0763 19.1905 30.9976 19.1632C31.3346 18.2012 31.7021 17.5779 32.081 17.0796C32.6791 16.3059 33.2016 15.9758 33.6645 15.9962C34.4979 15.9962 35.2747 17.0864 35.998 18.8298C36.9031 18.4557 37.2062 18.5633 37.4148 18.7465C38.3021 19.6646 38.4983 21.4134 38.665 22.9968C38.6863 24.8579 38.6139 26.8788 37.7482 28.7474L35.9147 31.9143C37.1003 33.2061 38.2618 34.7413 38.7483 36.8315C39.1222 38.1547 39.0023 39.4953 38.9983 40.8318C40.5006 40.836 41.8418 39.576 43.2487 38.8317C44.4914 38.2111 46.8324 37.4149 47.8325 38.4983C48.6659 39.2484 48.6705 40.1002 48.2492 40.9152C47.9992 41.3319 47.3277 41.8094 45.9156 42.1653C44.831 42.365 43.5321 43.2054 42.1653 44.2488C40.6651 45.2489 38.3112 46.3144 36.6648 46.6657C36.104 47.1499 35.4147 47.2491 34.5813 47.3324L29.9141 47.8325C28.3307 47.9992 26.7582 48.0626 26.0805 47.4158C25.7052 47.077 25.4155 46.685 25.3304 46.1657L26.1638 43.9988L25.3304 46.1657C25.0879 46.6311 24.7741 47.0425 24.0803 47.1658C23.0039 47.3441 22.0801 47.2491 21.33 46.9157C20.786 46.5856 20.1632 46.1657 20.1632 45.6656L20.2466 44.5822" stroke="black" stroke-width="2"/>
<defs>
<filter id="filter0_f" x="0.433426" y="0.433421" width="63.1378" height="63.1378" filterUnits="userSpaceOnUse" color-interpolation-filters="sRGB">
<feFlood flood-opacity="0" result="BackgroundImageFix"/>
<feBlend mode="normal" in="SourceGraphic" in2="BackgroundImageFix" result="shape"/>
<feGaussianBlur stdDeviation="1.78561" result="effect1_foregroundBlur_301:3"/>
</filter>
<filter id="filter1_f" x="12.263" y="9.42852" width="42.838" height="45.0917" filterUnits="userSpaceOnUse" color-interpolation-filters="sRGB">
<feFlood flood-opacity="0" result="BackgroundImageFix"/>
<feBlend mode="normal" in="SourceGraphic" in2="BackgroundImageFix" result="shape"/>
<feGaussianBlur stdDeviation="1.78561" result="effect1_foregroundBlur_301:3"/>
</filter>
</defs>
</svg>
