<svg width="57" height="64" viewBox="0 0 57 64" fill="none" xmlns="http://www.w3.org/2000/svg">
<path d="M7.83337 45.3333L11.1667 39.5C12.4506 37.4335 13.8413 35.4912 15.3334 33.6667C16.7194 31.8038 18.5008 30.4617 19.5 30.3333C20.8334 30.25 22.0806 30.6929 24.5 32.8333C25.5312 33.8021 26.5883 34.7493 27.8334 35.3333C29.0555 35.8658 30.4696 36.1051 32 36.1667C33.8173 36.1665 34.9878 34.489 36.1667 32.8333L38.6667 28.6667C39.4734 27.3804 40.3654 26.1351 42 25.3333C43.3883 24.6594 44.8806 24.3408 47 26.1667C48.0607 27.0936 50.3334 29.5 50.3334 29.5V44.5L28.6667 57L7.83337 45.3333" fill="#F6FF99" fill-opacity="0.7"/>
<path d="M34.9167 34.5C34.4845 34.9538 34.0585 35.4133 33.5 35.75C33.2274 35.9254 32.9167 36.1667 32 36.1667C31.2527 36.1373 30.5035 36.0698 29.75 35.9167C28.7746 35.705 27.8396 35.4395 27.103 34.9033C26.1004 34.3058 25.3845 33.6527 24.6667 33C23.9306 32.3521 23.2485 31.6566 22.3334 31.1667C23.0167 29.7418 23.4167 29.0833 23.6667 28.6667C25.5749 25.7343 26.27 25.5738 27 25.3333C27.4847 25.2532 27.9884 25.1947 28.6667 25.3333C30.25 25.8333 31.1953 27.0495 32 28.6667L34.9167 34.5" fill="#CCCCCC" fill-opacity="0.7"/>
<path d="M50.3333 31.1667V44.5L28.6667 57L7 44.5V33.6667C8.66667 29.5 9.87695 27.4489 12 24.5C13.5842 22.5765 14.75 21.5 16.5833 24.4167C20.3333 31.1667 23.7771 37.381 27.8333 42.8333C29.2254 44.7824 30.6496 43.508 32 42C34.7058 38.8212 37.0766 35.3927 39.5 32C41.3719 29.3234 42.9398 29.2521 44.5 29.5C45.5302 29.6324 47.8976 30.3837 50.3333 31.1667" fill="#FFB399" fill-opacity="0.6"/>
<g filter="url(#filter0_f)">
<path d="M28.6667 57L7 44.5V19.5L28.6667 7L50.3333 19.5V44.5L28.6667 57Z" stroke="#F0FF4C" stroke-opacity="0.8" stroke-width="6" stroke-linecap="round" stroke-linejoin="round"/>
</g>
<path d="M28.6667 57L7 44.5V19.5L28.6667 7L50.3333 19.5V44.5L28.6667 57Z" stroke="#E8FF00" stroke-width="4" stroke-linecap="round" stroke-linejoin="round"/>
<path d="M28.6667 57L7 44.5V19.5L28.6667 7L50.3333 19.5V44.5L28.6667 57" stroke="black" stroke-width="2" stroke-linecap="round" stroke-linejoin="round"/>
<defs>
<filter id="filter0_f" x="0.66625" y="0.66625" width="56.0009" height="62.6675" filterUnits="userSpaceOnUse" color-interpolation-filters="sRGB">
<feFlood flood-opacity="0" result="BackgroundImageFix"/>
<feBlend mode="normal" in="SourceGraphic" in2="BackgroundImageFix" result="shape"/>
<feGaussianBlur stdDeviation="1.66688" result="effect1_foregroundBlur_301:11"/>
</filter>
</defs>
</svg>
