<svg width="66" height="66" viewBox="0 0 66 66" fill="none" xmlns="http://www.w3.org/2000/svg">
<g filter="url(#filter0_f)">
<path d="M58 8H8V58H58V8Z" stroke="#F0FF4C" stroke-opacity="0.8" stroke-width="6" stroke-linecap="round" stroke-linejoin="round"/>
</g>
<path d="M58 8H8V58H58V8Z" stroke="#EAFF00" stroke-width="4" stroke-linecap="round" stroke-linejoin="round"/>
<path d="M58 8H8V58H58V8Z" stroke="black" stroke-width="2" stroke-linecap="round" stroke-linejoin="round"/>
<g filter="url(#filter1_f)">
<path d="M31.155 33.7224V30.7224H28.155V33.7224H31.155ZM32.8513 33.7224H35.8513V30.7224H32.8513V33.7224ZM31.7439 45.6579L29.6932 43.4682L29.6845 43.4764L31.7439 45.6579ZM24.7741 42.9861V39.9861H21.7741V42.9861H24.7741ZM26.4616 42.9861H29.4616V39.9861H26.4616V42.9861ZM27.0593 44.6999L24.9074 46.7903L24.9151 46.7981L24.9228 46.8059L27.0593 44.6999ZM30.4958 44.656L28.3603 42.5489L28.3531 42.5562L28.346 42.5635L30.4958 44.656ZM31.155 42.8103L34.1549 42.8325L34.155 42.8214V42.8103H31.155ZM31.155 36.7224H32.8513V30.7224H31.155V36.7224ZM29.8513 33.7224V42.7839H35.8513V33.7224H29.8513ZM29.8513 42.7839C29.8513 43.0968 29.8041 43.2667 29.775 43.3422C29.7506 43.4057 29.7271 43.4365 29.6932 43.4682L33.7945 47.8476C35.2636 46.4718 35.8513 44.6497 35.8513 42.7839H29.8513ZM29.6845 43.4764C29.6241 43.5334 29.4418 43.695 28.8083 43.695V49.695C30.624 49.695 32.3988 49.1652 33.8032 47.8395L29.6845 43.4764ZM28.8083 43.695C28.4232 43.695 28.1831 43.6453 28.048 43.6009C27.924 43.5602 27.8802 43.5222 27.8656 43.5087L23.8096 47.9302C25.2304 49.2336 27.0329 49.695 28.8083 49.695V43.695ZM27.8656 43.5087C27.8553 43.4993 27.8493 43.4951 27.8358 43.4605C27.8174 43.4132 27.7741 43.272 27.7741 42.9861H21.7741C21.7741 44.8005 22.349 46.5903 23.8096 47.9302L27.8656 43.5087ZM24.7741 45.9861H26.4616V39.9861H24.7741V45.9861ZM23.4616 42.9861C23.4616 44.2704 23.8242 45.6752 24.9074 46.7903L29.2111 42.6096C29.334 42.7361 29.408 42.8734 29.4437 42.976C29.4754 43.0668 29.4616 43.0845 29.4616 42.9861H23.4616ZM24.9228 46.8059C26.0552 47.9548 27.5125 48.3152 28.8083 48.3152V42.3152C28.6906 42.3152 28.7024 42.2987 28.7952 42.3313C28.9021 42.3689 29.0545 42.4506 29.1958 42.5939L24.9228 46.8059ZM28.8083 48.3152C30.194 48.3152 31.5738 47.8496 32.6456 46.7484L28.346 42.5635C28.426 42.4813 28.5377 42.4044 28.6616 42.356C28.7776 42.3107 28.8405 42.3152 28.8083 42.3152V48.3152ZM32.6313 46.763C33.7557 45.6234 34.145 44.1753 34.1549 42.8325L28.1551 42.7881C28.1541 42.9158 28.1363 42.9239 28.1606 42.856C28.1731 42.8209 28.195 42.7711 28.2306 42.7136C28.2664 42.6557 28.3104 42.5995 28.3603 42.5489L32.6313 46.763ZM34.155 42.8103V33.7224H28.155V42.8103H34.155ZM39.4958 40.8152L40.3296 37.9334L40.3246 37.9319L39.4958 40.8152ZM36.3317 39.2859L34.2904 41.4842L34.3005 41.4937L34.3108 41.503L36.3317 39.2859ZM36.5515 34.5398L38.4503 36.8624L38.4521 36.8609L36.5515 34.5398ZM42.0446 34.0564L40.7122 36.7442L40.7213 36.7487L42.0446 34.0564ZM43.6442 35.4626L41.103 37.0571L41.1086 37.066L41.1143 37.0748L43.6442 35.4626ZM44.2155 37.4226V40.4226H47.2155V37.4226H44.2155ZM42.5192 37.4226H39.5192V40.4226H42.5192V37.4226ZM41.781 35.6032L39.7682 37.8278L39.7755 37.8345L39.7829 37.8411L41.781 35.6032ZM37.7468 35.489L39.5989 37.849L39.6028 37.8459L37.7468 35.489ZM37.7116 38.3366L35.8002 40.6489L35.8169 40.6627L35.8338 40.6762L37.7116 38.3366ZM39.9704 39.321L39.1568 42.2086L39.1609 42.2097L39.9704 39.321ZM42.4665 40.3142L40.9083 42.8777L40.923 42.8867L40.9378 42.8955L42.4665 40.3142ZM43.8024 41.571L41.2272 43.1099L41.2341 43.1214L41.2411 43.1328L43.8024 41.571ZM43.029 45.7634L44.8565 48.1426L44.8673 48.1342L43.029 45.7634ZM37.3249 46.1941L36.1026 48.9338L36.1114 48.9377L36.1202 48.9416L37.3249 46.1941ZM35.5583 44.8054L33.1006 46.5258L33.1064 46.534L33.1122 46.5422L35.5583 44.8054ZM34.9431 42.8103V39.8103H31.9431V42.8103H34.9431ZM36.6394 42.8103H39.6394V39.8103H36.6394V42.8103ZM37.4919 44.6472L35.6267 46.9969L35.64 47.0074L35.6534 47.0178L37.4919 44.6472ZM41.8864 41.8347L40.0316 44.1925L40.0413 44.2002L40.0512 44.2078L41.8864 41.8347ZM40.3246 37.9319C39.057 37.5675 38.5168 37.2183 38.3527 37.0687L34.3108 41.503C35.4709 42.5604 37.0401 43.2307 38.667 43.6984L40.3246 37.9319ZM38.3731 37.0875C38.343 37.0595 38.3317 37.044 38.3309 37.0429C38.3305 37.0424 38.3358 37.0499 38.3419 37.0639C38.3447 37.0702 38.3469 37.0762 38.3485 37.0812C38.3492 37.0837 38.3498 37.0856 38.3501 37.087C38.3505 37.0885 38.3506 37.0892 38.3506 37.0891C38.3506 37.0891 38.3498 37.0852 38.349 37.0769C38.3482 37.0685 38.3474 37.055 38.3474 37.0359H32.3474C32.3474 38.7659 33.0267 40.3108 34.2904 41.4842L38.3731 37.0875ZM38.3474 37.0359C38.3474 36.9839 38.3524 36.9581 38.3537 36.9524C38.3548 36.9475 38.3541 36.9518 38.3504 36.9594C38.3468 36.9669 38.3465 36.9648 38.3569 36.9518C38.3681 36.9381 38.3955 36.9071 38.4503 36.8624L34.6527 32.2171C33.1762 33.4242 32.3474 35.0982 32.3474 37.0359H38.3474ZM38.4521 36.8609C38.6084 36.7329 38.9351 36.5466 39.698 36.5466V30.5466C37.8827 30.5466 36.1118 31.0224 34.6508 32.2186L38.4521 36.8609ZM39.698 36.5466C40.1835 36.5466 40.4984 36.6382 40.7122 36.7442L43.3771 31.3685C42.2198 30.7948 40.9702 30.5466 39.698 30.5466V36.5466ZM40.7213 36.7487C40.9603 36.8662 41.0512 36.9744 41.103 37.0571L46.1854 33.8681C45.4873 32.7555 44.5118 31.9262 43.368 31.364L40.7213 36.7487ZM41.1143 37.0748C41.188 37.1906 41.2155 37.2845 41.2155 37.4226H47.2155C47.2155 36.1426 46.8622 34.93 46.1742 33.8504L41.1143 37.0748ZM44.2155 34.4226H42.5192V40.4226H44.2155V34.4226ZM45.5192 37.4226C45.5192 35.9561 45.02 34.4735 43.779 33.3654L39.7829 37.8411C39.6899 37.758 39.6056 37.6409 39.5548 37.5157C39.5086 37.4018 39.5192 37.3535 39.5192 37.4226H45.5192ZM43.7937 33.3786C42.5812 32.2816 41.074 31.9353 39.698 31.9353V37.9353C39.9038 37.9353 39.9828 37.9615 39.975 37.959C39.9692 37.9571 39.9424 37.9479 39.9022 37.9252C39.8613 37.9022 39.8147 37.8699 39.7682 37.8278L43.7937 33.3786ZM39.698 31.9353C38.4537 31.9353 37.0624 32.2094 35.8907 33.1321L39.6028 37.8459C39.5494 37.888 39.5005 37.9169 39.4628 37.9356C39.4257 37.954 39.4043 37.96 39.4051 37.9597C39.4109 37.9581 39.4978 37.9353 39.698 37.9353V31.9353ZM35.8946 33.129C34.6241 34.1261 34.0524 35.5488 34.0524 37.0095H40.0524C40.0524 37.0429 40.0453 37.1899 39.955 37.3877C39.8604 37.5948 39.7228 37.7518 39.5989 37.849L35.8946 33.129ZM34.0524 37.0095C34.0524 38.5162 34.7444 39.7761 35.8002 40.6489L39.6231 36.0244C39.6778 36.0696 39.8001 36.1886 39.9041 36.3979C40.0117 36.6145 40.0524 36.8337 40.0524 37.0095H34.0524ZM35.8338 40.6762C36.7661 41.4246 38.0018 41.8831 39.1568 42.2086L40.784 36.4335C40.3438 36.3094 40.0263 36.1954 39.8088 36.1006C39.5793 36.0006 39.5362 35.9543 39.5895 35.997L35.8338 40.6762ZM39.1609 42.2097C40.0982 42.4724 40.6391 42.7141 40.9083 42.8777L44.0248 37.7506C43.0986 37.1877 41.9754 36.7673 40.7799 36.4323L39.1609 42.2097ZM40.9378 42.8955C41.218 43.0614 41.2536 43.1541 41.2272 43.1099L46.3777 40.0321C45.7771 39.027 44.922 38.2818 43.9952 37.7329L40.9378 42.8955ZM41.2411 43.1328C41.2284 43.1121 41.2257 43.0994 41.2279 43.1078C41.2308 43.1188 41.2419 43.1676 41.2419 43.2673H47.2419C47.2419 42.1532 46.986 41.0295 46.3638 40.0092L41.2411 43.1328ZM41.2419 43.2673C41.2419 43.3312 41.2357 43.3639 41.2339 43.3724C41.2323 43.3798 41.2333 43.3726 41.2404 43.358C41.2475 43.3433 41.2539 43.3355 41.2527 43.3369C41.2508 43.3392 41.2341 43.359 41.1908 43.3926L44.8673 48.1342C46.4203 46.93 47.2419 45.217 47.2419 43.2673H41.2419ZM41.2015 43.3842C41.0658 43.4885 40.6943 43.695 39.7858 43.695V49.695C41.5844 49.695 43.375 49.2805 44.8565 48.1426L41.2015 43.3842ZM39.7858 43.695C39.2977 43.695 38.8902 43.6047 38.5296 43.4466L36.1202 48.9416C37.2831 49.4514 38.5162 49.695 39.7858 49.695V43.695ZM38.5472 43.4544C38.196 43.2977 38.0626 43.1506 38.0045 43.0686L33.1122 46.5422C33.886 47.6321 34.9304 48.4108 36.1026 48.9338L38.5472 43.4544ZM38.016 43.085C37.9737 43.0246 37.9431 42.9653 37.9431 42.8103H31.9431C31.9431 44.1435 32.3226 45.4143 33.1006 46.5258L38.016 43.085ZM34.9431 45.8103H36.6394V39.8103H34.9431V45.8103ZM33.6394 42.8103C33.6394 44.4296 34.2887 45.9348 35.6267 46.9969L39.3571 42.2975C39.411 42.3402 39.5045 42.4374 39.5737 42.5866C39.6402 42.73 39.6394 42.8243 39.6394 42.8103H33.6394ZM35.6534 47.0178C36.8983 47.9833 38.3748 48.3152 39.7858 48.3152V42.3152C39.5376 42.3152 39.3967 42.2858 39.3348 42.2678C39.2799 42.2518 39.2918 42.2467 39.3304 42.2765L35.6534 47.0178ZM39.7858 48.3152C41.027 48.3152 42.4579 48.0704 43.6571 47.1525L40.0103 42.388C40.1377 42.2904 40.2226 42.2723 40.1943 42.2798C40.1601 42.2889 40.0351 42.3152 39.7858 42.3152V48.3152ZM43.6571 47.1525C44.9147 46.1899 45.5456 44.7925 45.5456 43.2849H39.5456C39.5456 43.2133 39.5612 43.0408 39.6623 42.8298C39.7657 42.6142 39.9061 42.4677 40.0103 42.388L43.6571 47.1525ZM45.5456 43.2849C45.5456 41.8653 44.9971 40.4478 43.7217 39.4615L40.0512 44.2078C39.9031 44.0933 39.7513 43.9171 39.6497 43.6935C39.5532 43.4813 39.5456 43.3232 39.5456 43.2849H45.5456ZM43.7413 39.4768C42.8126 38.7463 41.5266 38.2797 40.3296 37.9334L38.662 43.697C39.1634 43.842 39.5291 43.972 39.7823 44.0801C40.0554 44.1965 40.1 44.2463 40.0316 44.1925L43.7413 39.4768Z" fill="#F0FF4C" fill-opacity="0.8"/>
</g>
<path d="M31.2087 33.7141V31.7141H29.2087V33.7141H31.2087ZM32.905 33.7141H34.905V31.7141H32.905V33.7141ZM31.7976 45.6496L30.4305 44.1898L30.4247 44.1953L31.7976 45.6496ZM24.8279 42.9778V40.9778H22.8279V42.9778H24.8279ZM26.5154 42.9778H28.5154V40.9778H26.5154V42.9778ZM27.113 44.6916L25.6784 46.0852L25.6835 46.0904L25.6887 46.0956L27.113 44.6916ZM30.5495 44.6477L29.1258 43.243L29.1163 43.2527L30.5495 44.6477ZM31.2087 42.802L33.2087 42.8168L33.2087 42.8094V42.802H31.2087ZM31.2087 35.7141H32.905V31.7141H31.2087V35.7141ZM30.905 33.7141V42.7756H34.905V33.7141H30.905ZM30.905 42.7756C30.905 43.5727 30.6816 43.9547 30.4305 44.1898L33.1647 47.1094C34.3902 45.9618 34.905 44.4277 34.905 42.7756H30.905ZM30.4247 44.1953C30.1403 44.4638 29.6925 44.6867 28.862 44.6867V48.6867C30.4807 48.6867 31.99 48.2183 33.1705 47.104L30.4247 44.1953ZM28.862 44.6867C27.9265 44.6867 27.4777 44.4524 27.2433 44.2373L24.5393 47.185C25.7229 48.2707 27.2546 48.6867 28.862 48.6867V44.6867ZM27.2433 44.2373C27.0354 44.0466 26.8279 43.7212 26.8279 42.9778H22.8279C22.8279 44.578 23.3293 46.0749 24.5393 47.185L27.2433 44.2373ZM24.8279 44.9778H26.5154V40.9778H24.8279V44.9778ZM24.5154 42.9778C24.5154 44.0781 24.8235 45.2051 25.6784 46.0852L28.5476 43.298C28.5631 43.314 28.5626 43.3238 28.5532 43.297C28.5411 43.2623 28.5154 43.1655 28.5154 42.9778H24.5154ZM25.6887 46.0956C26.5784 46.9983 27.7443 47.3069 28.862 47.3069V43.3069C28.6566 43.3069 28.5524 43.2788 28.5171 43.2664C28.4912 43.2572 28.5106 43.2604 28.5374 43.2876L25.6887 46.0956ZM28.862 47.3069C30.0183 47.3069 31.1256 46.9232 31.9827 46.0426L29.1163 43.2527C29.0984 43.2712 29.0903 43.2748 29.0792 43.2791C29.0628 43.2855 28.9997 43.3069 28.862 43.3069V47.3069ZM31.9732 46.0524C32.8673 45.1462 33.2001 43.9757 33.2087 42.8168L29.2088 42.7872C29.2072 43.0042 29.1765 43.1268 29.156 43.184C29.1384 43.2333 29.126 43.2428 29.1259 43.243L31.9732 46.0524ZM33.2087 42.802V33.7141H29.2087V42.802H33.2087ZM39.5495 40.8069L40.1054 38.8857L40.1021 38.8847L39.5495 40.8069ZM36.3855 39.2776L35.0246 40.7431L35.0313 40.7494L35.0382 40.7557L36.3855 39.2776ZM36.6052 34.5315L37.8711 36.0799L37.8723 36.0789L36.6052 34.5315ZM42.0984 34.0481L41.2101 35.84L41.2161 35.843L42.0984 34.0481ZM43.698 35.4543L42.0038 36.5173L42.0113 36.5291L43.698 35.4543ZM44.2693 37.4143V39.4143H46.2693V37.4143H44.2693ZM42.573 37.4143H40.573V39.4143H42.573V37.4143ZM41.8347 35.5949L40.4928 37.078L40.5027 37.0868L41.8347 35.5949ZM37.8005 35.4807L39.0353 37.054L39.0379 37.052L37.8005 35.4807ZM37.7654 38.3283L36.4911 39.8698L36.5022 39.879L36.5135 39.8881L37.7654 38.3283ZM40.0241 39.3127L39.4817 41.2378L39.4845 41.2385L40.0241 39.3127ZM42.5202 40.3059L41.4814 42.0149L41.4912 42.0209L41.5011 42.0267L42.5202 40.3059ZM43.8562 41.5627L42.1393 42.5886L42.1439 42.5963L42.1486 42.6039L43.8562 41.5627ZM43.0827 45.7551L44.3011 47.3412L44.3082 47.3356L43.0827 45.7551ZM37.3786 46.1858L36.5637 48.0123L36.5755 48.0174L37.3786 46.1858ZM35.612 44.7971L33.9735 45.944L33.9813 45.9549L35.612 44.7971ZM34.9968 42.802V40.802H32.9968V42.802H34.9968ZM36.6931 42.802H38.6931V40.802H36.6931V42.802ZM37.5456 44.6389L36.3022 46.2053L36.311 46.2124L36.32 46.2193L37.5456 44.6389ZM41.9402 41.8264L40.7036 43.3983L40.7101 43.4034L40.7167 43.4085L41.9402 41.8264ZM40.1021 38.8847C38.7746 38.5031 38.0629 38.1004 37.7328 37.7995L35.0382 40.7557C36.0323 41.6618 37.43 42.2786 38.997 42.729L40.1021 38.8847ZM37.7464 37.812C37.4951 37.5786 37.4011 37.3586 37.4011 37.0276H33.4011C33.4011 38.4778 33.9633 39.7577 35.0246 40.7431L37.7464 37.812ZM37.4011 37.0276C37.4011 36.6396 37.5175 36.3689 37.8711 36.0799L35.3393 32.983C34.0875 34.0065 33.4011 35.3999 33.4011 37.0276H37.4011ZM37.8723 36.0789C38.246 35.7729 38.8134 35.5383 39.7517 35.5383V31.5383C38.1118 31.5383 36.5816 31.9658 35.3381 32.984L37.8723 36.0789ZM39.7517 35.5383C40.3683 35.5383 40.839 35.656 41.2101 35.84L42.9867 32.2562C41.9866 31.7604 40.8928 31.5383 39.7517 31.5383V35.5383ZM41.2161 35.843C41.6059 36.0346 41.8442 36.2629 42.0038 36.5173L45.3921 34.3913C44.8017 33.4504 43.9736 32.7413 42.9806 32.2532L41.2161 35.843ZM42.0113 36.5291C42.1875 36.8055 42.2693 37.0859 42.2693 37.4143H46.2693C46.2693 36.3247 45.9702 35.2984 45.3846 34.3795L42.0113 36.5291ZM44.2693 35.4143H42.573V39.4143H44.2693V35.4143ZM44.573 37.4143C44.573 36.1788 44.1581 34.9883 43.1667 34.1031L40.5027 37.0868C40.5227 37.1047 40.528 37.1138 40.5352 37.1314C40.5454 37.1565 40.573 37.2393 40.573 37.4143H44.573ZM43.1765 34.1119C42.2041 33.2321 40.9679 32.927 39.7517 32.927V36.927C40.3284 36.927 40.4809 37.0672 40.4929 37.078L43.1765 34.1119ZM39.7517 32.927C38.6448 32.927 37.5005 33.1712 36.5631 33.9094L39.0379 37.052C39.038 37.0519 39.1945 36.927 39.7517 36.927V32.927ZM36.5657 33.9074C35.5644 34.6932 35.1062 35.8106 35.1062 37.0012H39.1062C39.1062 36.9571 39.1101 36.9357 39.1107 36.9325C39.1112 36.9302 39.1089 36.9425 39.099 36.964C39.089 36.986 39.0754 37.0083 39.06 37.0275C39.0449 37.0464 39.0344 37.0547 39.0353 37.054L36.5657 33.9074ZM35.1062 37.0012C35.1062 38.1795 35.6407 39.1669 36.4911 39.8698L39.0396 36.7869C39.0029 36.7564 39.0295 36.7687 39.0622 36.8344C39.0776 36.8655 39.0897 36.8994 39.0973 36.9329C39.1049 36.9661 39.1062 36.9902 39.1062 37.0012H35.1062ZM36.5135 39.8881C37.2835 40.5061 38.3582 40.9212 39.4817 41.2378L40.5666 37.3877C39.569 37.1066 39.1379 36.8654 39.0172 36.7686L36.5135 39.8881ZM39.4845 41.2385C40.4648 41.5132 41.1027 41.7848 41.4814 42.0149L43.5591 38.5968C42.7424 38.1004 41.7163 37.7098 40.5638 37.3869L39.4845 41.2385ZM41.5011 42.0267C41.8891 42.2565 42.0612 42.4579 42.1393 42.5886L45.573 40.5368C45.0769 39.7066 44.3584 39.0701 43.5394 38.585L41.5011 42.0267ZM42.1486 42.6039C42.2221 42.7245 42.2956 42.9177 42.2956 43.259H46.2956C46.2956 42.2995 46.0762 41.3618 45.5638 40.5215L42.1486 42.6039ZM42.2956 43.259C42.2956 43.6877 42.1695 43.9324 41.8572 44.1745L44.3082 47.3356C45.6132 46.3239 46.2956 44.9045 46.2956 43.259H42.2956ZM41.8644 44.169C41.5044 44.4455 40.8964 44.6867 39.8396 44.6867V48.6867C41.4898 48.6867 43.0439 48.3068 44.301 47.3412L41.8644 44.169ZM39.8396 44.6867C39.2212 44.6867 38.676 44.5708 38.1817 44.3541L36.5755 48.0174C37.6047 48.4687 38.7002 48.6867 39.8396 48.6867V44.6867ZM38.1935 44.3593C37.7055 44.1415 37.4203 43.8892 37.2428 43.6392L33.9813 45.9549C34.6358 46.8769 35.5284 47.5503 36.5637 48.0122L38.1935 44.3593ZM37.2505 43.6502C37.0856 43.4146 36.9968 43.1534 36.9968 42.802H32.9968C32.9968 43.9388 33.3182 45.0077 33.9736 45.944L37.2505 43.6502ZM34.9968 44.802H36.6931V40.802H34.9968V44.802ZM34.6931 42.802C34.6931 44.1393 35.2207 45.3469 36.3022 46.2053L38.7891 43.0724C38.7566 43.0466 38.7403 43.0283 38.7331 43.0193C38.7263 43.0108 38.723 43.0049 38.7204 42.9993C38.7174 42.9928 38.6931 42.9402 38.6931 42.802H34.6931ZM36.32 46.2193C37.3413 47.0114 38.5805 47.3069 39.8396 47.3069V43.3069C39.1885 43.3069 38.8984 43.157 38.7713 43.0584L36.32 46.2193ZM39.8396 47.3069C40.9639 47.3069 42.1453 47.0831 43.103 46.3501L40.6718 43.1738C40.6803 43.1673 40.4965 43.3069 39.8396 43.3069V47.3069ZM43.103 46.3501C44.0996 45.5873 44.5993 44.4906 44.5993 43.2766H40.5993C40.5993 43.307 40.5965 43.316 40.5981 43.3083C40.5999 43.2997 40.6053 43.2797 40.6178 43.2537C40.6304 43.2275 40.6455 43.2048 40.6594 43.188C40.6729 43.1717 40.6797 43.1678 40.6718 43.1738L43.103 46.3501ZM44.5993 43.2766C44.5993 42.1212 44.1604 41.0151 43.1637 40.2443L40.7167 43.4085C40.7079 43.4017 40.6891 43.3854 40.6674 43.3583C40.6453 43.3307 40.627 43.3005 40.6138 43.2714C40.5861 43.2105 40.5993 43.1976 40.5993 43.2766H44.5993ZM43.1767 40.2545C42.4111 39.6522 41.2881 39.2279 40.1054 38.8857L38.9937 42.7281C40.1195 43.0538 40.5903 43.3092 40.7036 43.3983L43.1767 40.2545Z" fill="#EAFF00"/>
<path d="M31.1618 33.6817V32.6817H30.1618V33.6817H31.1618ZM32.858 33.6817H33.858V32.6817H32.858V33.6817ZM31.7506 45.6172L31.0671 44.8873L31.0642 44.8901L31.7506 45.6172ZM24.7809 42.9454V41.9454H23.7809V42.9454H24.7809ZM26.4684 42.9454H27.4684V41.9454H26.4684V42.9454ZM27.0661 44.6592L26.3488 45.356L26.3539 45.3612L27.0661 44.6592ZM30.5026 44.6153L29.7907 43.9129L29.786 43.9178L30.5026 44.6153ZM31.1618 42.7696L32.1618 42.777V42.7696H31.1618ZM31.1618 34.6817H32.858V32.6817H31.1618V34.6817ZM31.858 33.6817V42.7432H33.858V33.6817H31.858ZM31.858 42.7432C31.858 43.7541 31.5618 44.4241 31.0671 44.8874L32.4342 46.3471C33.4161 45.4276 33.858 44.1816 33.858 42.7432H31.858ZM31.0642 44.8901C30.5558 45.37 29.8426 45.6544 28.8151 45.6544V47.6544C30.2367 47.6544 31.4806 47.2473 32.4371 46.3444L31.0642 44.8901ZM28.8151 45.6544C27.7116 45.6544 26.9921 45.3746 26.5204 44.9419L25.1684 46.4157C26.1146 47.2837 27.3756 47.6544 28.8151 47.6544V45.6544ZM26.5204 44.9419C26.0619 44.5213 25.7809 43.9031 25.7809 42.9454H23.7809C23.7809 44.3314 24.2089 45.5355 25.1684 46.4157L26.5204 44.9419ZM24.7809 43.9454H26.4684V41.9454H24.7809V43.9454ZM25.4684 42.9454C25.4684 43.8618 25.7221 44.7109 26.3488 45.356L27.7833 43.9625C27.6132 43.7873 27.4684 43.4938 27.4684 42.9454H25.4684ZM26.3539 45.3612C27.0009 46.0176 27.8753 46.2745 28.8151 46.2745V44.2745C28.2314 44.2745 27.9398 44.1212 27.7782 43.9572L26.3539 45.3612ZM28.8151 46.2745C29.7418 46.2745 30.5768 45.9728 31.2192 45.3128L29.786 43.9178C29.5729 44.1367 29.2829 44.2745 28.8151 44.2745V46.2745ZM31.2144 45.3176C31.8783 44.6448 32.1545 43.7519 32.1617 42.777L30.1618 42.7622C30.1573 43.3693 29.9941 43.7069 29.7907 43.913L31.2144 45.3176ZM32.1618 42.7696V33.6817H30.1618V42.7696H32.1618ZM39.5026 40.7745L39.7805 39.8139L39.7788 39.8134L39.5026 40.7745ZM36.3385 39.2452L35.658 39.978L35.6649 39.9842L36.3385 39.2452ZM36.5582 34.4991L37.1912 35.2733L37.1918 35.2728L36.5582 34.4991ZM42.0514 34.0157L41.6073 34.9116L41.6103 34.9131L42.0514 34.0157ZM43.651 35.4219L42.8039 35.9534L42.8077 35.9593L43.651 35.4219ZM44.2223 37.3819V38.3819H45.2223V37.3819H44.2223ZM42.526 37.3819H41.526V38.3819H42.526V37.3819ZM41.7877 35.5626L41.1168 36.3041L41.1217 36.3085L41.7877 35.5626ZM37.7536 35.4483L38.3709 36.235L38.3722 36.2339L37.7536 35.4483ZM37.7184 38.296L37.0813 39.0667L37.0868 39.0713L37.0925 39.0758L37.7184 38.296ZM39.9772 39.2803L39.706 40.2429L39.7074 40.2432L39.9772 39.2803ZM42.4733 40.2735L41.9538 41.1281L41.9637 41.1339L42.4733 40.2735ZM43.8092 41.5303L42.9508 42.0433L42.9554 42.0509L43.8092 41.5303ZM43.0358 45.7227L43.6449 46.5158L43.6485 46.513L43.0358 45.7227ZM37.3317 46.1534L36.9242 47.0666L36.9301 47.0692L37.3317 46.1534ZM35.5651 44.7647L34.7458 45.3382L34.7497 45.3436L35.5651 44.7647ZM34.9498 42.7696V41.7696H33.9498V42.7696H34.9498ZM36.6461 42.7696H37.6461V41.7696H36.6461V42.7696ZM37.4987 44.6065L36.8769 45.3898L36.8858 45.3967L37.4987 44.6065ZM41.8932 41.794L41.2749 42.58L41.2815 42.5851L41.8932 41.794ZM39.7788 39.8134C38.3915 39.4146 37.5083 38.9583 37.0122 38.5061L35.6649 39.9842C36.493 40.739 37.7192 41.3023 39.2263 41.7356L39.7788 39.8134ZM37.019 38.5124C36.5652 38.091 36.3541 37.606 36.3541 36.9952H34.3541C34.3541 38.1656 34.7993 39.1806 35.6581 39.978L37.019 38.5124ZM36.3541 36.9952C36.3541 36.2973 36.613 35.746 37.1912 35.2733L35.9253 33.7249C34.898 34.5647 34.3541 35.6774 34.3541 36.9952H36.3541ZM37.1918 35.2728C37.7829 34.7887 38.5911 34.5059 39.7047 34.5059V32.5059C38.2403 32.5059 36.9507 32.8852 35.9247 33.7254L37.1918 35.2728ZM39.7047 34.5059C40.4525 34.5059 41.079 34.6497 41.6073 34.9116L42.4956 33.1197C41.6528 32.7019 40.7148 32.5059 39.7047 32.5059V34.5059ZM41.6103 34.9131C42.1509 35.1789 42.5367 35.5274 42.804 35.9534L44.4981 34.8904C44.0154 34.1211 43.3347 33.5322 42.4925 33.1182L41.6103 34.9131ZM42.8077 35.9593C43.0862 36.3964 43.2223 36.8632 43.2223 37.3819H45.2223C45.2223 36.4826 44.9776 35.6428 44.4943 34.8845L42.8077 35.9593ZM44.2223 36.3819H42.526V38.3819H44.2223V36.3819ZM43.526 37.3819C43.526 36.3775 43.1956 35.4789 42.4538 34.8166L41.1217 36.3085C41.3643 36.5251 41.526 36.8395 41.526 37.3819H43.526ZM42.4586 34.821C41.7263 34.1585 40.7611 33.8946 39.7047 33.8946V35.8946C40.4414 35.8946 40.8648 36.076 41.1168 36.3041L42.4586 34.821ZM39.7047 33.8946C38.7353 33.8946 37.8379 34.109 37.1349 34.6627L38.3722 36.2339C38.6067 36.0493 39.0101 35.8946 39.7047 35.8946V33.8946ZM37.1362 34.6616C36.4041 35.2362 36.0592 36.0483 36.0592 36.9688H38.0592C38.0592 36.5885 38.1773 36.387 38.3709 36.235L37.1362 34.6616ZM36.0592 36.9688C36.0592 37.8187 36.4364 38.5336 37.0813 39.0667L38.3555 37.5252C38.1215 37.3318 38.0592 37.1619 38.0592 36.9688H36.0592ZM37.0925 39.0758C37.7001 39.5636 38.6139 39.9352 39.706 40.2429L40.2484 38.3178C39.2193 38.0279 38.6273 37.7432 38.3443 37.5161L37.0925 39.0758ZM39.7074 40.2432C40.7307 40.53 41.4657 40.8313 41.9539 41.128L42.9927 39.419C42.2855 38.9891 41.3565 38.6283 40.247 38.3174L39.7074 40.2432ZM41.9637 41.1339C42.4595 41.4275 42.7682 41.7377 42.9508 42.0433L44.6676 41.0174C44.276 40.362 43.6941 39.8343 42.9829 39.4131L41.9637 41.1339ZM42.9554 42.0509C43.1387 42.3515 43.2487 42.7308 43.2487 43.2266H45.2487C45.2487 42.4217 45.0657 41.6701 44.663 41.0097L42.9554 42.0509ZM43.2487 43.2266C43.2487 43.9595 42.9835 44.4979 42.423 44.9324L43.6485 46.513C44.7053 45.6936 45.2487 44.5679 45.2487 43.2266H43.2487ZM42.4266 44.9297C41.8423 45.3785 40.9978 45.6544 39.7926 45.6544V47.6544C41.2945 47.6544 42.6121 47.3091 43.6449 46.5158L42.4266 44.9297ZM39.7926 45.6544C39.044 45.6544 38.3612 45.5129 37.7332 45.2375L36.9301 47.0692C37.8256 47.4618 38.7835 47.6544 39.7926 47.6544V45.6544ZM37.7391 45.2402C37.1142 44.9614 36.6772 44.6037 36.3805 44.1858L34.7497 45.3436C35.285 46.0976 36.0257 46.6657 36.9242 47.0666L37.7391 45.2402ZM36.3843 44.1912C36.0968 43.7805 35.9498 43.3174 35.9498 42.7696H33.9498C33.9498 43.7101 34.2131 44.5771 34.7458 45.3382L36.3843 44.1912ZM34.9498 43.7696H36.6461V41.7696H34.9498V43.7696ZM35.6461 42.7696C35.6461 43.825 36.052 44.7349 36.8769 45.3897L38.1204 43.8233C37.8086 43.5757 37.6461 43.2611 37.6461 42.7696H35.6461ZM36.8858 45.3967C37.6836 46.0154 38.6855 46.2745 39.7926 46.2745V44.2745C38.9895 44.2745 38.4622 44.0882 38.1115 43.8163L36.8858 45.3967ZM39.7926 46.2745C40.8001 46.2745 41.7321 46.0718 42.4483 45.5236L41.2327 43.9355C40.9996 44.1139 40.5664 44.2745 39.7926 44.2745V46.2745ZM42.4483 45.5236C43.1839 44.9606 43.5524 44.1647 43.5524 43.2442H41.5524C41.5524 43.5776 41.4463 43.772 41.2327 43.9355L42.4483 45.5236ZM43.5524 43.2442C43.5524 42.353 43.2231 41.5583 42.505 41.003L41.2815 42.5851C41.4423 42.7094 41.5524 42.8815 41.5524 43.2442H43.5524ZM42.5115 41.0081C41.909 40.5341 40.949 40.152 39.7805 39.8139L39.2246 41.7351C40.3647 42.0649 40.9985 42.3625 41.2749 42.58L42.5115 41.0081Z" fill="black"/>
<defs>
<filter id="filter0_f" x="0.5" y="0.5" width="65" height="65" filterUnits="userSpaceOnUse" color-interpolation-filters="sRGB">
<feFlood flood-opacity="0" result="BackgroundImageFix"/>
<feBlend mode="normal" in="SourceGraphic" in2="BackgroundImageFix" result="shape"/>
<feGaussianBlur stdDeviation="2.25" result="effect1_foregroundBlur"/>
</filter>
<filter id="filter1_f" x="17.2741" y="26.0466" width="34.4678" height="28.1484" filterUnits="userSpaceOnUse" color-interpolation-filters="sRGB">
<feFlood flood-opacity="0" result="BackgroundImageFix"/>
<feBlend mode="normal" in="SourceGraphic" in2="BackgroundImageFix" result="shape"/>
<feGaussianBlur stdDeviation="2.25" result="effect1_foregroundBlur"/>
</filter>
</defs>
</svg>
