<svg width="66" height="66" viewBox="0 0 66 66" fill="none" xmlns="http://www.w3.org/2000/svg">
<g filter="url(#filter0_f)">
<path d="M58 8H8V58H58V8Z" stroke="#F0FF4C" stroke-opacity="0.8" stroke-width="6" stroke-linecap="round" stroke-linejoin="round"/>
</g>
<path d="M58 8H8V58H58V8Z" stroke="#EAFF00" stroke-width="4" stroke-linecap="round" stroke-linejoin="round"/>
<path d="M58 8H8V58H58V8Z" stroke="black" stroke-width="2" stroke-linecap="round" stroke-linejoin="round"/>
<g filter="url(#filter1_f)">
<path d="M34.9371 35.1218V38.1218H37.9371V35.1218H34.9371ZM30.8239 35.1218V32.1218H27.8239V35.1218H30.8239ZM30.8239 46.53V49.53H33.8239V46.53H30.8239ZM29.1452 46.53H26.1452V49.53H29.1452V46.53ZM29.1452 35.1218H32.1452V32.1218H29.1452V35.1218ZM25.0407 35.1218H22.0407V38.1218H25.0407V35.1218ZM25.0407 33.7331V30.7331H22.0407V33.7331H25.0407ZM34.9371 33.7331H37.9371V30.7331H34.9371V33.7331ZM34.9371 32.1218H30.8239V38.1218H34.9371V32.1218ZM27.8239 35.1218V46.53H33.8239V35.1218H27.8239ZM30.8239 43.53H29.1452V49.53H30.8239V43.53ZM32.1452 46.53V35.1218H26.1452V46.53H32.1452ZM29.1452 32.1218H25.0407V38.1218H29.1452V32.1218ZM28.0407 35.1218V33.7331H22.0407V35.1218H28.0407ZM25.0407 36.7331H34.9371V30.7331H25.0407V36.7331ZM31.9371 33.7331V35.1218H37.9371V33.7331H31.9371ZM40.4655 40.8259L41.2993 37.9441L41.2943 37.9427L40.4655 40.8259ZM37.3014 39.2966L35.2601 41.495L35.2702 41.5044L35.2805 41.5138L37.3014 39.2966ZM37.5211 34.5505L39.4199 36.8731L39.4218 36.8716L37.5211 34.5505ZM43.0143 34.0671L41.6818 36.755L41.6909 36.7595L43.0143 34.0671ZM44.6139 35.4734L42.0727 37.0678L42.0783 37.0767L42.0839 37.0856L44.6139 35.4734ZM45.1852 37.4333V40.4333H48.1852V37.4333H45.1852ZM43.4889 37.4333H40.4889V40.4333H43.4889V37.4333ZM42.7506 35.614L40.7379 37.8386L40.7452 37.8452L40.7526 37.8518L42.7506 35.614ZM38.7164 35.4997L40.5686 37.8597L40.5725 37.8566L38.7164 35.4997ZM38.6813 38.3474L36.7698 40.6596L36.7866 40.6734L36.8035 40.687L38.6813 38.3474ZM40.9401 39.3318L40.1265 42.2193L40.1306 42.2205L40.9401 39.3318ZM43.4362 40.3249L41.8779 42.8885L41.8926 42.8974L41.9075 42.9062L43.4362 40.3249ZM44.7721 41.5818L42.1969 43.1206L42.2037 43.1321L42.2107 43.1436L44.7721 41.5818ZM43.9987 45.7741L45.8262 48.1533L45.8369 48.145L43.9987 45.7741ZM38.2946 46.2048L37.0722 48.9445L37.0811 48.9484L37.0899 48.9523L38.2946 46.2048ZM36.528 44.8161L34.0703 46.5365L34.076 46.5447L34.0818 46.5529L36.528 44.8161ZM35.9127 42.821V39.821H32.9127V42.821H35.9127ZM37.609 42.821H40.609V39.821H37.609V42.821ZM38.4616 44.6579L36.5964 47.0076L36.6097 47.0182L36.6231 47.0286L38.4616 44.6579ZM42.8561 41.8454L41.0012 44.2033L41.011 44.211L41.0209 44.2186L42.8561 41.8454ZM41.2943 37.9427C40.0267 37.5783 39.4865 37.2291 39.3224 37.0794L35.2805 41.5138C36.4405 42.5712 38.0097 43.2415 39.6367 43.7091L41.2943 37.9427ZM39.3428 37.0982C39.3127 37.0703 39.3014 37.0548 39.3006 37.0537C39.3002 37.0531 39.3055 37.0607 39.3116 37.0746C39.3144 37.081 39.3166 37.0869 39.3181 37.092C39.3189 37.0944 39.3194 37.0964 39.3198 37.0978C39.3202 37.0992 39.3203 37.0999 39.3203 37.0999C39.3203 37.0998 39.3195 37.096 39.3187 37.0876C39.3179 37.0793 39.317 37.0658 39.317 37.0466H33.317C33.317 38.7767 33.9963 40.3215 35.2601 41.495L39.3428 37.0982ZM39.317 37.0466C39.317 36.9947 39.3221 36.9689 39.3234 36.9631C39.3244 36.9582 39.3238 36.9625 39.3201 36.9702C39.3165 36.9776 39.3161 36.9755 39.3266 36.9626C39.3377 36.9488 39.3652 36.9179 39.4199 36.8731L35.6223 32.2279C34.1459 33.4349 33.317 35.109 33.317 37.0466H39.317ZM39.4218 36.8716C39.578 36.7437 39.9047 36.5573 40.6676 36.5573V30.5573C38.8524 30.5573 37.0814 31.0331 35.6205 32.2294L39.4218 36.8716ZM40.6676 36.5573C41.1531 36.5573 41.4681 36.649 41.6819 36.755L44.3467 31.3792C43.1894 30.8055 41.9399 30.5573 40.6676 30.5573V36.5573ZM41.6909 36.7595C41.9299 36.8769 42.0208 36.9851 42.0727 37.0678L47.1551 33.8789C46.457 32.7663 45.4815 31.937 44.3377 31.3748L41.6909 36.7595ZM42.0839 37.0856C42.1577 37.2013 42.1852 37.2953 42.1852 37.4333H48.1852C48.1852 36.1534 47.8318 34.9407 47.1439 33.8611L42.0839 37.0856ZM45.1852 34.4333H43.4889V40.4333H45.1852V34.4333ZM46.4889 37.4333C46.4889 35.9669 45.9897 34.4842 44.7487 33.3762L40.7526 37.8518C40.6596 37.7688 40.5753 37.6516 40.5245 37.5265C40.4783 37.4125 40.4889 37.3643 40.4889 37.4333H46.4889ZM44.7634 33.3894C43.5508 32.2923 42.0437 31.946 40.6676 31.946V37.946C40.8734 37.946 40.9524 37.9722 40.9447 37.9697C40.9389 37.9679 40.9121 37.9586 40.8719 37.936C40.8309 37.9129 40.7844 37.8806 40.7379 37.8386L44.7634 33.3894ZM40.6676 31.946C39.4234 31.946 38.0321 32.2201 36.8604 33.1428L40.5725 37.8566C40.5191 37.8987 40.4702 37.9277 40.4324 37.9464C40.3954 37.9647 40.3739 37.9707 40.3748 37.9705C40.3806 37.9689 40.4674 37.946 40.6676 37.946V31.946ZM36.8643 33.1397C35.5938 34.1369 35.0221 35.5596 35.0221 37.0202H41.0221C41.0221 37.0537 41.015 37.2006 40.9246 37.3985C40.8301 37.6055 40.6924 37.7625 40.5686 37.8597L36.8643 33.1397ZM35.0221 37.0202C35.0221 38.5269 35.7141 39.7869 36.7698 40.6596L40.5927 36.0352C40.6474 36.0804 40.7698 36.1994 40.8737 36.4086C40.9813 36.6252 41.0221 36.8444 41.0221 37.0202H35.0221ZM36.8035 40.687C37.7358 41.4353 38.9714 41.8939 40.1265 42.2193L41.7537 36.4442C41.3135 36.3202 40.996 36.2061 40.7785 36.1114C40.5489 36.0113 40.5058 35.965 40.5591 36.0078L36.8035 40.687ZM40.1306 42.2205C41.0679 42.4831 41.6088 42.7249 41.8779 42.8885L44.9944 37.7614C44.0683 37.1984 42.9451 36.778 41.7496 36.443L40.1306 42.2205ZM41.9075 42.9062C42.1877 43.0722 42.2233 43.1648 42.1969 43.1206L47.3474 40.0429C46.7467 39.0378 45.8917 38.2925 44.9649 37.7436L41.9075 42.9062ZM42.2107 43.1436C42.1981 43.1229 42.1954 43.1101 42.1976 43.1185C42.2004 43.1295 42.2116 43.1784 42.2116 43.278H48.2116C48.2116 42.164 47.9556 41.0402 47.3335 40.0199L42.2107 43.1436ZM42.2116 43.278C42.2116 43.3419 42.2054 43.3747 42.2036 43.3832C42.202 43.3906 42.2029 43.3834 42.21 43.3688C42.2172 43.354 42.2235 43.3463 42.2224 43.3477C42.2205 43.3499 42.2037 43.3697 42.1604 43.4033L45.8369 48.145C47.39 46.9408 48.2116 45.2277 48.2116 43.278H42.2116ZM42.1712 43.395C42.0355 43.4992 41.664 43.7058 40.7555 43.7058V49.7058C42.554 49.7058 44.3447 49.2912 45.8261 48.1533L42.1712 43.395ZM40.7555 43.7058C40.2673 43.7058 39.8598 43.6154 39.4992 43.4573L37.0899 48.9523C38.2527 49.4622 39.4859 49.7058 40.7555 49.7058V43.7058ZM39.5169 43.4651C39.1657 43.3084 39.0323 43.1613 38.9741 43.0794L34.0818 46.5529C34.8557 47.6428 35.9 48.4215 37.0722 48.9445L39.5169 43.4651ZM38.9857 43.0957C38.9434 43.0353 38.9127 42.9761 38.9127 42.821H32.9127C32.9127 44.1542 33.2923 45.4251 34.0703 46.5365L38.9857 43.0957ZM35.9127 45.821H37.609V39.821H35.9127V45.821ZM34.609 42.821C34.609 44.4403 35.2584 45.9455 36.5964 47.0076L40.3268 42.3083C40.3806 42.351 40.4741 42.4482 40.5434 42.5974C40.6099 42.7407 40.609 42.835 40.609 42.821H34.609ZM36.6231 47.0286C37.868 47.994 39.3444 48.3259 40.7555 48.3259V42.3259C40.5072 42.3259 40.3664 42.2966 40.3044 42.2785C40.2496 42.2626 40.2615 42.2574 40.3 42.2873L36.6231 47.0286ZM40.7555 48.3259C41.9967 48.3259 43.4276 48.0812 44.6268 47.1632L40.9799 42.3987C41.1074 42.3012 41.1922 42.283 41.164 42.2906C41.1298 42.2997 41.0048 42.3259 40.7555 42.3259V48.3259ZM44.6268 47.1632C45.8843 46.2007 46.5153 44.8032 46.5153 43.2956H40.5153C40.5153 43.2241 40.5308 43.0516 40.632 42.8405C40.7353 42.6249 40.8757 42.4785 40.9799 42.3987L44.6268 47.1632ZM46.5153 43.2956C46.5153 41.876 45.9667 40.4586 44.6913 39.4723L41.0209 44.2186C40.8728 44.1041 40.721 43.9279 40.6194 43.7043C40.5229 43.492 40.5153 43.3339 40.5153 43.2956H46.5153ZM44.7109 39.4876C43.7823 38.757 42.4962 38.2904 41.2993 37.9441L39.6317 43.7077C40.1331 43.8528 40.4987 43.9828 40.752 44.0908C41.0251 44.2073 41.0696 44.2571 41.0012 44.2033L44.7109 39.4876Z" fill="#F0FF4C" fill-opacity="0.8"/>
</g>
<path d="M34.6871 35.1118V37.1118H36.6871V35.1118H34.6871ZM30.5739 35.1118V33.1118H28.5739V35.1118H30.5739ZM30.5739 46.52V48.52H32.5739V46.52H30.5739ZM28.8952 46.52H26.8952V48.52H28.8952V46.52ZM28.8952 35.1118H30.8952V33.1118H28.8952V35.1118ZM24.7907 35.1118H22.7907V37.1118H24.7907V35.1118ZM24.7907 33.7231V31.7231H22.7907V33.7231H24.7907ZM34.6871 33.7231H36.6871V31.7231H34.6871V33.7231ZM34.6871 33.1118H30.5739V37.1118H34.6871V33.1118ZM28.5739 35.1118V46.52H32.5739V35.1118H28.5739ZM30.5739 44.52H28.8952V48.52H30.5739V44.52ZM30.8952 46.52V35.1118H26.8952V46.52H30.8952ZM28.8952 33.1118H24.7907V37.1118H28.8952V33.1118ZM26.7907 35.1118V33.7231H22.7907V35.1118H26.7907ZM24.7907 35.7231H34.6871V31.7231H24.7907V35.7231ZM32.6871 33.7231V35.1118H36.6871V33.7231H32.6871ZM40.2155 40.8159L40.7713 38.8947L40.768 38.8937L40.2155 40.8159ZM37.0514 39.2866L35.6905 40.7522L35.6973 40.7585L35.7041 40.7647L37.0514 39.2866ZM37.2711 34.5405L38.537 36.0889L38.5382 36.0879L37.2711 34.5405ZM42.7643 34.0571L41.876 35.849L41.8821 35.852L42.7643 34.0571ZM44.3639 35.4634L42.6697 36.5264L42.6773 36.5382L44.3639 35.4634ZM44.9352 37.4233V39.4233H46.9352V37.4233H44.9352ZM43.2389 37.4233H41.2389V39.4233H43.2389V37.4233ZM42.5006 35.604L41.1588 37.0871L41.1686 37.0959L42.5006 35.604ZM38.4664 35.4897L39.7012 37.0631L39.7038 37.061L38.4664 35.4897ZM38.4313 38.3374L37.157 39.8789L37.1681 39.8881L37.1794 39.8971L38.4313 38.3374ZM40.6901 39.3218L40.1477 41.2468L40.1504 41.2476L40.6901 39.3218ZM43.1862 40.3149L42.1473 42.024L42.1571 42.0299L42.167 42.0358L43.1862 40.3149ZM44.5221 41.5718L42.8053 42.5977L42.8099 42.6053L42.8145 42.613L44.5221 41.5718ZM43.7487 45.7641L44.967 47.3503L44.9742 47.3447L43.7487 45.7641ZM38.0446 46.1948L37.2297 48.0213L37.2415 48.0265L38.0446 46.1948ZM36.278 44.8061L34.6395 45.9531L34.6472 45.964L36.278 44.8061ZM35.6627 42.811V40.811H33.6627V42.811H35.6627ZM37.359 42.811H39.359V40.811H37.359V42.811ZM38.2116 44.6479L36.9681 46.2144L36.977 46.2214L36.9859 46.2284L38.2116 44.6479ZM42.6061 41.8354L41.3695 43.4073L41.376 43.4125L41.3826 43.4175L42.6061 41.8354ZM40.768 38.8937C39.4405 38.5122 38.7288 38.1094 38.3987 37.8085L35.7041 40.7647C36.6982 41.6708 38.0959 42.2876 39.6629 42.7381L40.768 38.8937ZM38.4123 37.821C38.161 37.5877 38.067 37.3676 38.067 37.0366H34.067C34.067 38.4869 34.6293 39.7668 35.6905 40.7522L38.4123 37.821ZM38.067 37.0366C38.067 36.6487 38.1834 36.378 38.537 36.0889L36.0053 32.9921C34.7534 34.0155 34.067 35.4089 34.067 37.0366H38.067ZM38.5382 36.0879C38.9119 35.7819 39.4793 35.5473 40.4176 35.5473V31.5473C38.7778 31.5473 37.2475 31.9749 36.004 32.9931L38.5382 36.0879ZM40.4176 35.5473C41.0343 35.5473 41.505 35.6651 41.876 35.849L43.6526 32.2652C42.6525 31.7695 41.5588 31.5473 40.4176 31.5473V35.5473ZM41.8821 35.852C42.2719 36.0436 42.5102 36.272 42.6698 36.5263L46.058 34.4004C45.4676 33.4594 44.6396 32.7503 43.6465 32.2622L41.8821 35.852ZM42.6773 36.5382C42.8534 36.8146 42.9352 37.095 42.9352 37.4233H46.9352C46.9352 36.3337 46.6361 35.3075 46.0505 34.3885L42.6773 36.5382ZM44.9352 35.4233H43.2389V39.4233H44.9352V35.4233ZM45.2389 37.4233C45.2389 36.1879 44.8241 34.9973 43.8327 34.1121L41.1686 37.0959C41.1886 37.1138 41.194 37.1228 41.2011 37.1404C41.2113 37.1656 41.2389 37.2484 41.2389 37.4233H45.2389ZM43.8425 34.1209C42.87 33.2411 41.6338 32.936 40.4176 32.936V36.936C40.9944 36.936 41.1469 37.0762 41.1588 37.0871L43.8425 34.1209ZM40.4176 32.936C39.3108 32.936 38.1664 33.1803 37.2291 33.9185L39.7038 37.061C39.704 37.0609 39.8604 36.936 40.4176 36.936V32.936ZM37.2317 33.9164C36.2304 34.7022 35.7721 35.8197 35.7721 37.0102H39.7721C39.7721 36.9661 39.776 36.9448 39.7767 36.9416C39.7771 36.9392 39.7748 36.9516 39.765 36.9731C39.7549 36.9951 39.7413 37.0173 39.726 37.0366C39.7109 37.0555 39.7003 37.0638 39.7012 37.0631L37.2317 33.9164ZM35.7721 37.0102C35.7721 38.1885 36.3067 39.1759 37.157 39.8789L39.7056 36.7959C39.6688 36.7655 39.6955 36.7777 39.7281 36.8435C39.7436 36.8746 39.7556 36.9084 39.7633 36.942C39.7708 36.9751 39.7721 36.9992 39.7721 37.0102H35.7721ZM37.1794 39.8971C37.9494 40.5151 39.0241 40.9302 40.1477 41.2468L41.2325 37.3967C40.2349 37.1156 39.8038 36.8745 39.6832 36.7776L37.1794 39.8971ZM40.1504 41.2476C41.1308 41.5223 41.7687 41.7938 42.1473 42.024L44.225 38.6059C43.4084 38.1095 42.3822 37.7189 41.2297 37.3959L40.1504 41.2476ZM42.167 42.0358C42.555 42.2656 42.7272 42.467 42.8053 42.5977L46.2389 40.5458C45.7428 39.7156 45.0244 39.0791 44.2053 38.5941L42.167 42.0358ZM42.8145 42.613C42.8881 42.7336 42.9616 42.9268 42.9616 43.268H46.9616C46.9616 42.3085 46.7421 41.3709 46.2297 40.5305L42.8145 42.613ZM42.9616 43.268C42.9616 43.6968 42.8354 43.9415 42.5232 44.1836L44.9742 47.3447C46.2791 46.3329 46.9616 44.9135 46.9616 43.268H42.9616ZM42.5304 44.178C42.1703 44.4546 41.5623 44.6958 40.5055 44.6958V48.6958C42.1557 48.6958 43.7098 48.3159 44.967 47.3502L42.5304 44.178ZM40.5055 44.6958C39.8871 44.6958 39.342 44.5799 38.8477 44.3631L37.2415 48.0265C38.2706 48.4777 39.3661 48.6958 40.5055 48.6958V44.6958ZM38.8595 44.3683C38.3714 44.1506 38.0862 43.8982 37.9087 43.6483L34.6472 45.964C35.3018 46.8859 36.1943 47.5593 37.2297 48.0213L38.8595 44.3683ZM37.9164 43.6592C37.7515 43.4236 37.6627 43.1624 37.6627 42.811H33.6627C33.6627 43.9479 33.9841 45.0168 34.6395 45.9531L37.9164 43.6592ZM35.6627 44.811H37.359V40.811H35.6627V44.811ZM35.359 42.811C35.359 44.1484 35.8867 45.3559 36.9681 46.2144L39.455 43.0815C39.4225 43.0557 39.4062 43.0373 39.3991 43.0284C39.3922 43.0199 39.3889 43.014 39.3863 43.0084C39.3833 43.0019 39.359 42.9492 39.359 42.811H35.359ZM36.9859 46.2284C38.0072 47.0204 39.2464 47.3159 40.5055 47.3159V43.3159C39.8544 43.3159 39.5643 43.1661 39.4372 43.0675L36.9859 46.2284ZM40.5055 47.3159C41.6298 47.3159 42.8113 47.0922 43.769 46.3591L41.3377 43.1828C41.3462 43.1763 41.1624 43.3159 40.5055 43.3159V47.3159ZM43.769 46.3591C44.7655 45.5963 45.2653 44.4997 45.2653 43.2856H41.2653C41.2653 43.3161 41.2624 43.3251 41.2641 43.3173C41.2659 43.3087 41.2713 43.2888 41.2838 43.2628C41.2963 43.2365 41.3114 43.2139 41.3254 43.197C41.3389 43.1808 41.3456 43.1768 41.3377 43.1828L43.769 46.3591ZM45.2653 43.2856C45.2653 42.1302 44.8263 41.0241 43.8296 40.2533L41.3826 43.4175C41.3738 43.4108 41.3551 43.3945 41.3333 43.3673C41.3113 43.3398 41.293 43.3096 41.2797 43.2805C41.252 43.2195 41.2653 43.2067 41.2653 43.2856H45.2653ZM43.8427 40.2635C43.077 39.6612 41.9541 39.2369 40.7713 38.8947L39.6596 42.7371C40.7855 43.0629 41.2562 43.3182 41.3695 43.4073L43.8427 40.2635Z" fill="#EAFF00"/>
<path d="M34.6472 34.8398V35.8398H35.6472V34.8398H34.6472ZM30.5339 34.8398V33.8398H29.5339V34.8398H30.5339ZM30.5339 46.248V47.248H31.5339V46.248H30.5339ZM28.8552 46.248H27.8552V47.248H28.8552V46.248ZM28.8552 34.8398H29.8552V33.8398H28.8552V34.8398ZM24.7507 34.8398H23.7507V35.8398H24.7507V34.8398ZM24.7507 33.4511V32.4511H23.7507V33.4511H24.7507ZM34.6472 33.4511H35.6472V32.4511H34.6472V33.4511ZM34.6472 33.8398H30.5339V35.8398H34.6472V33.8398ZM29.5339 34.8398V46.248H31.5339V34.8398H29.5339ZM30.5339 45.248H28.8552V47.248H30.5339V45.248ZM29.8552 46.248V34.8398H27.8552V46.248H29.8552ZM28.8552 33.8398H24.7507V35.8398H28.8552V33.8398ZM25.7507 34.8398V33.4511H23.7507V34.8398H25.7507ZM24.7507 34.4511H34.6472V32.4511H24.7507V34.4511ZM33.6472 33.4511V34.8398H35.6472V33.4511H33.6472ZM40.1755 40.5439L40.4534 39.5833L40.4517 39.5828L40.1755 40.5439ZM37.0114 39.0146L36.3309 39.7474L36.3378 39.7537L37.0114 39.0146ZM37.2311 34.2685L37.8641 35.0427L37.8647 35.0422L37.2311 34.2685ZM42.7243 33.7851L42.2802 34.6811L42.2832 34.6826L42.7243 33.7851ZM44.3239 35.1914L43.4768 35.7229L43.4806 35.7288L44.3239 35.1914ZM44.8952 37.1513V38.1513H45.8952V37.1513H44.8952ZM43.1989 37.1513H42.1989V38.1513H43.1989V37.1513ZM42.4606 35.332L41.7897 36.0735L41.7946 36.0779L42.4606 35.332ZM38.4265 35.2177L39.0438 36.0044L39.0451 36.0034L38.4265 35.2177ZM38.3913 38.0654L37.7541 38.8361L37.7597 38.8407L37.7654 38.8452L38.3913 38.0654ZM40.6501 39.0498L40.3789 40.0123L40.3803 40.0127L40.6501 39.0498ZM43.1462 40.0429L42.6267 40.8975L42.6366 40.9033L43.1462 40.0429ZM44.4821 41.2998L43.6237 41.8127L43.6283 41.8204L44.4821 41.2998ZM43.7087 45.4921L44.3178 46.2852L44.3214 46.2824L43.7087 45.4921ZM38.0046 45.9228L37.5971 46.8361L37.603 46.8386L38.0046 45.9228ZM36.238 44.5341L35.4187 45.1076L35.4226 45.1131L36.238 44.5341ZM35.6227 42.539V41.539H34.6227V42.539H35.6227ZM37.319 42.539H38.319V41.539H37.319V42.539ZM38.1716 44.3759L37.5498 45.1592L37.5587 45.1661L38.1716 44.3759ZM42.5661 41.5634L41.9478 42.3494L41.9544 42.3545L42.5661 41.5634ZM40.4517 39.5828C39.0644 39.184 38.1812 38.7278 37.6851 38.2755L36.3378 39.7537C37.1659 40.5085 38.3921 41.0717 39.8992 41.505L40.4517 39.5828ZM37.6919 38.2818C37.2381 37.8605 37.027 37.3754 37.027 36.7646H35.027C35.027 37.935 35.4722 38.95 36.331 39.7474L37.6919 38.2818ZM37.027 36.7646C37.027 36.0667 37.2859 35.5154 37.8641 35.0427L36.5982 33.4943C35.5709 34.3341 35.027 35.4469 35.027 36.7646H37.027ZM37.8647 35.0422C38.4558 34.5582 39.264 34.2753 40.3776 34.2753V32.2753C38.9132 32.2753 37.6236 32.6546 36.5976 33.4948L37.8647 35.0422ZM40.3776 34.2753C41.1254 34.2753 41.7519 34.4192 42.2802 34.6811L43.1685 32.8892C42.3257 32.4714 41.3877 32.2753 40.3776 32.2753V34.2753ZM42.2832 34.6826C42.8238 34.9483 43.2095 35.2968 43.4768 35.7228L45.171 34.6599C44.6883 33.8906 44.0076 33.3016 43.1654 32.8877L42.2832 34.6826ZM43.4806 35.7288C43.7591 36.1658 43.8952 36.6327 43.8952 37.1513H45.8952C45.8952 36.252 45.6505 35.4122 45.1672 34.6539L43.4806 35.7288ZM44.8952 36.1513H43.1989V38.1513H44.8952V36.1513ZM44.1989 37.1513C44.1989 36.1469 43.8684 35.2484 43.1266 34.586L41.7946 36.0779C42.0372 36.2945 42.1989 36.6089 42.1989 37.1513H44.1989ZM43.1315 34.5904C42.3992 33.9279 41.434 33.664 40.3776 33.664V35.664C41.1142 35.664 41.5377 35.8455 41.7897 36.0735L43.1315 34.5904ZM40.3776 33.664C39.4082 33.664 38.5108 33.8784 37.8078 34.4321L39.0451 36.0034C39.2796 35.8187 39.683 35.664 40.3776 35.664V33.664ZM37.8091 34.4311C37.077 35.0056 36.7321 35.8178 36.7321 36.7382H38.7321C38.7321 36.3579 38.8502 36.1564 39.0438 36.0044L37.8091 34.4311ZM36.7321 36.7382C36.7321 37.5881 37.1093 38.303 37.7541 38.8361L39.0284 37.2946C38.7944 37.1012 38.7321 36.9313 38.7321 36.7382H36.7321ZM37.7654 38.8452C38.373 39.333 39.2868 39.7046 40.3789 40.0123L40.9213 38.0872C39.8922 37.7973 39.3002 37.5126 39.0172 37.2855L37.7654 38.8452ZM40.3803 40.0127C41.4036 40.2994 42.1386 40.6007 42.6268 40.8974L43.6656 39.1884C42.9584 38.7586 42.0294 38.3977 40.9199 38.0868L40.3803 40.0127ZM42.6366 40.9033C43.1324 41.197 43.4411 41.5071 43.6237 41.8127L45.3405 40.7868C44.9489 40.1314 44.367 39.6037 43.6558 39.1825L42.6366 40.9033ZM43.6283 41.8204C43.8116 42.1209 43.9216 42.5002 43.9216 42.996H45.9216C45.9216 42.1911 45.7386 41.4396 45.3359 40.7791L43.6283 41.8204ZM43.9216 42.996C43.9216 43.729 43.6564 44.2673 43.0959 44.7019L44.3214 46.2824C45.3782 45.463 45.9216 44.3373 45.9216 42.996H43.9216ZM43.0995 44.6991C42.5152 45.1479 41.6707 45.4238 40.4655 45.4238V47.4238C41.9674 47.4238 43.285 47.0786 44.3178 46.2852L43.0995 44.6991ZM40.4655 45.4238C39.7169 45.4238 39.0341 45.2823 38.4061 45.007L37.603 46.8386C38.4984 47.2312 39.4564 47.4238 40.4655 47.4238V45.4238ZM38.412 45.0096C37.7871 44.7308 37.3501 44.3732 37.0534 43.9552L35.4226 45.1131C35.9579 45.867 36.6986 46.4351 37.5971 46.836L38.412 45.0096ZM37.0572 43.9607C36.7697 43.5499 36.6227 43.0868 36.6227 42.539H34.6227C34.6227 43.4795 34.886 44.3465 35.4187 45.1076L37.0572 43.9607ZM35.6227 43.539H37.319V41.539H35.6227V43.539ZM36.319 42.539C36.319 43.5944 36.7249 44.5043 37.5498 45.1592L38.7933 43.5927C38.4815 43.3452 38.319 43.0305 38.319 42.539H36.319ZM37.5587 45.1661C38.3565 45.7848 39.3584 46.0439 40.4655 46.0439V44.0439C39.6624 44.0439 39.1351 43.8577 38.7844 43.5857L37.5587 45.1661ZM40.4655 46.0439C41.473 46.0439 42.405 45.8412 43.1212 45.2931L41.9056 43.7049C41.6725 43.8833 41.2393 44.0439 40.4655 44.0439V46.0439ZM43.1212 45.2931C43.8568 44.73 44.2253 43.9341 44.2253 43.0136H42.2253C42.2253 43.347 42.1192 43.5414 41.9056 43.7049L43.1212 45.2931ZM44.2253 43.0136C44.2253 42.1224 43.8959 41.3277 43.1778 40.7724L41.9544 42.3545C42.1152 42.4788 42.2253 42.6509 42.2253 43.0136H44.2253ZM43.1844 40.7775C42.5819 40.3035 41.6219 39.9214 40.4534 39.5833L39.8975 41.5045C41.0376 41.8344 41.6714 42.132 41.9478 42.3494L43.1844 40.7775Z" fill="black"/>
<defs>
<filter id="filter0_f" x="0.5" y="0.5" width="65" height="65" filterUnits="userSpaceOnUse" color-interpolation-filters="sRGB">
<feFlood flood-opacity="0" result="BackgroundImageFix"/>
<feBlend mode="normal" in="SourceGraphic" in2="BackgroundImageFix" result="shape"/>
<feGaussianBlur stdDeviation="2.25" result="effect1_foregroundBlur"/>
</filter>
<filter id="filter1_f" x="17.5407" y="26.0573" width="35.1709" height="28.1484" filterUnits="userSpaceOnUse" color-interpolation-filters="sRGB">
<feFlood flood-opacity="0" result="BackgroundImageFix"/>
<feBlend mode="normal" in="SourceGraphic" in2="BackgroundImageFix" result="shape"/>
<feGaussianBlur stdDeviation="2.25" result="effect1_foregroundBlur"/>
</filter>
</defs>
</svg>
