<svg width="14" height="14" viewBox="0 0 14 14" fill="none" xmlns="http://www.w3.org/2000/svg">
<path d="M13 7L13.3536 7.35355L13.7071 7L13.3536 6.64645L13 7ZM7.35355 13.3536L13.3536 7.35355L12.6464 6.64645L6.64645 12.6464L7.35355 13.3536ZM13.3536 6.64645L7.35355 0.646446L6.64645 1.35355L12.6464 7.35355L13.3536 6.64645Z" fill="#9D4DD0"/>
<path d="M7 7L7.35355 7.35355L7.70711 7L7.35355 6.64645L7 7ZM1.35355 13.3536L7.35355 7.35355L6.64645 6.64645L0.646447 12.6464L1.35355 13.3536ZM7.35355 6.64645L1.35355 0.646446L0.646448 1.35355L6.64645 7.35355L7.35355 6.64645Z" fill="#9D4DD0"/>
</svg>
